<svg width="183" height="184" viewBox="0 0 183 184" fill="none" xmlns="http://www.w3.org/2000/svg">
<path d="M182.783 104.828C182.783 103.961 182.566 103.31 182.349 102.442C182.349 102.225 182.132 101.791 181.915 101.574C181.481 100.923 181.047 100.272 180.396 99.8377C179.962 99.4037 179.311 98.9697 178.66 98.5357C178.443 98.3187 178.226 98.3187 178.009 98.1017C177.792 98.1017 177.793 97.8847 177.576 97.8847L177.359 97.6677L176.925 97.4507L173.019 95.2808L122.242 65.7695L38.6992 114.159L93.3818 146.708L94.4667 147.359L97.7216 149.312L98.1556 150.397L98.3726 167.106L182.132 118.716C182.566 118.499 183 117.631 183 116.763L182.783 104.828Z" fill="url(#paint0_linear_447_9684)"/>
<path d="M99.4576 164.936C99.4576 166.889 98.1556 167.757 96.2027 166.672L38.6992 133.472V131.953H39.7842L48.6809 133.255L89.9098 143.454L94.2497 145.841C95.3347 146.492 96.2027 147.143 97.0706 147.577H96.8536C96.8536 147.794 97.0707 148.228 97.2877 148.445C97.7216 149.096 98.1556 149.747 98.8066 150.398C98.8066 150.181 98.8066 149.964 99.0236 149.964C99.4576 150.832 99.6746 151.7 99.6746 152.785L99.4576 164.936Z" fill="#FFE998"/>
<path d="M38.6992 132.172L94.0327 164.07L94.6837 163.854V147.796L43.6901 123.059L40.0012 131.304L38.6992 132.172Z" fill="url(#paint1_linear_447_9684)"/>
<path d="M91.8633 146.273L94.6842 147.792V163.85L91.8633 162.114V146.273Z" fill="#C6C2C4"/>
<path d="M91.862 162.112V155.385V152.13V151.262V148.442V146.272L41.0854 116.977L39.7834 116.326V116.109H39.5664V116.326V118.279V121.968V125.223V131.95V132.167L48.4632 137.158L51.7181 138.894L91.428 161.895L91.862 162.112Z" fill="#FFE998"/>
<path opacity="0.1" d="M91.862 162.116V155.389L39.5664 125.227V131.953L48.0292 136.944L51.0671 138.68L51.7181 138.897L91.862 162.116Z" fill="#FFE998"/>
<path opacity="0.1" d="M39.5664 118.281V121.97H39.7834L91.862 152.132V151.264V148.443L39.7834 118.498L39.5664 118.281Z" fill="#FFE998"/>
<path d="M38.6992 114.16L89.9098 143.454V145.19L38.6992 115.679V114.16Z" fill="#413C7C"/>
<path d="M106.617 140.412L110.957 137.809C112.693 138.894 113.778 140.195 114.212 141.28C114.646 142.148 114.863 143.016 114.863 143.884V147.79V156.036C114.863 156.904 114.646 157.555 114.212 157.989L109.872 160.593C110.306 160.159 110.523 159.508 110.523 158.64V150.394V146.488C110.523 145.62 110.306 144.752 109.872 143.884C109.438 142.582 108.353 141.497 106.617 140.412Z" fill="#413C7C"/>
<path d="M163.906 107.217L168.246 104.613C169.982 105.698 171.067 107 171.501 108.085C171.935 108.953 172.152 109.821 172.152 110.689V114.595V122.841C172.152 123.709 171.935 124.36 171.501 124.794L167.161 127.398C167.595 126.964 167.812 126.313 167.812 125.445V117.199V113.293C167.812 112.425 167.595 111.557 167.161 110.689C166.727 109.604 165.642 108.519 163.906 107.217Z" fill="#413C7C"/>
<path d="M99.0928 150.094C99.0928 150.311 98.5879 150.397 98.3709 150.614C97.72 149.963 97.0689 149.312 96.852 148.661C96.635 148.444 96.635 148.01 96.418 147.793L97.01 147.543C98.0949 148.411 98.8758 149.226 99.0928 150.094Z" fill="#FFE998"/>
<path d="M93.3819 120.454L94.4669 121.105L97.2878 122.841L97.7218 123.709L97.9388 138.682L172.368 95.7166C172.802 95.4996 173.236 94.8487 173.236 93.9807V83.348C173.236 82.263 173.019 81.395 172.585 80.527C172.151 79.659 171.066 78.7911 169.764 77.9231C169.547 77.7061 169.547 77.7061 169.33 77.4891C169.113 77.4891 169.113 77.2721 168.896 77.2721L168.679 77.0552L168.245 76.8382L164.773 74.8852L119.421 48.6289L44.9922 91.5937L93.3819 120.454Z" fill="url(#paint2_linear_447_9684)"/>
<path d="M53.4532 108.737L45.6414 107.652H44.7734V108.954L95.9841 138.466C97.503 139.334 98.805 138.683 98.805 136.947V126.314C98.805 123.927 97.5031 121.974 94.0312 120.021L90.3422 117.851L53.4532 108.737Z" fill="#FFE998"/>
<path d="M44.7734 107.656L94.0312 136.082L94.4651 135.865V121.544L49.1133 99.4102L45.8584 107.005L44.7734 107.656Z" fill="url(#paint3_linear_447_9684)"/>
<path d="M92.0781 120.238L94.4651 121.54V135.862L92.0781 134.343V120.238Z" fill="#FFE998"/>
<path d="M92.0774 134.344V128.268V125.447V124.579V122.192V120.239L46.7256 94.2L45.6406 93.549V93.332V93.549V95.285V98.5399V101.361V107.437V107.654L53.4524 111.993L56.2733 113.729L91.6434 134.127L92.0774 134.344Z" fill="#FFE998"/>
<path opacity="0.1" d="M92.0774 134.339V128.263L45.6406 101.355V107.431L53.0184 111.771L55.8393 113.507L56.2733 113.724L92.0774 134.339Z" fill="#FFE998"/>
<path opacity="0.1" d="M45.6406 95.2852V98.5401V98.7571L92.0774 125.447V124.796V122.192L45.6406 95.5022V95.2852Z" fill="#FFE998"/>
<path d="M44.7734 91.5938L90.1252 117.85V119.152L44.7734 92.8957V91.5938Z" fill="#C17619"/>
<path d="M107.268 118.504C107.702 119.155 107.702 120.023 107.702 120.891V124.362V131.523C107.702 132.391 107.485 132.825 107.051 133.259L115.731 128.268L115.948 128.051C116.382 127.834 116.816 127.183 116.816 126.315V115.683C116.816 113.513 115.948 111.994 113.344 110.258L104.23 115.466C105.749 116.551 106.617 117.419 107.268 118.504Z" fill="#1F1E58"/>
<path d="M117.25 107.873L121.156 105.703C122.675 106.788 123.543 107.656 124.194 108.958C124.628 109.609 124.628 110.477 124.628 111.345V114.817V121.978C124.628 122.846 124.411 123.28 123.977 123.714L120.071 125.884C120.505 125.45 120.722 125.016 120.722 124.148V116.987V113.515C120.722 112.647 120.505 111.996 120.288 111.128C119.637 110.043 118.769 108.958 117.25 107.873Z" fill="#1F1E58"/>
<path d="M156.094 85.5176L160 83.3477C161.519 84.4326 162.387 85.3006 163.038 86.3856C163.472 87.0365 163.472 87.9045 163.472 88.7725V92.2444V99.4052C163.472 100.273 163.255 100.707 162.821 101.141L158.915 103.311C159.349 102.877 159.566 102.443 159.566 101.575V94.4144V90.9425C159.566 90.0745 159.349 89.4235 159.132 88.5555C158.481 87.4705 157.613 86.6026 156.094 85.5176Z" fill="#1F1E58"/>
<path opacity="0.5" d="M68.6428 105.266C58.227 99.4071 49.1133 94.1992 49.1133 94.1992L68.6428 105.266Z" fill="#FFE998"/>
<path opacity="0.5" d="M94.4669 119.802L68.6445 105.047C78.4093 110.689 89.042 116.765 94.0329 120.019L94.4669 119.802Z" fill="#FFE998"/>
<path d="M118.77 47.977C117.902 47.543 117.251 47.1091 116.383 47.5431L56.4922 83.5641V88.1209L102.061 112.424L165.857 74.0163L118.77 47.977Z" fill="#E3A74F"/>
<path d="M118.554 32.3521C117.686 31.9181 117.035 31.4841 116.167 31.918L52.3711 70.326L101.846 96.7993L165.642 58.3914L118.554 32.3521Z" fill="url(#paint4_linear_447_9684)"/>
<path d="M102.061 114.161L54.5396 87.9047C53.0207 87.0367 51.9357 85.0837 51.9357 83.3478L51.7188 71.847C51.7188 70.1111 52.8037 69.4601 54.3227 70.3281L101.844 96.5844L102.061 114.161Z" fill="#E4664D"/>
<path d="M163.687 61.4285L163.904 75.3162L165.857 74.2312V75.9672L102.061 114.158L101.844 96.7986L165.64 58.3906V60.3436L163.687 61.4285Z" fill="#FFB5A7"/>
<path d="M56.061 87.0333L53.674 85.7314L53.457 71.8438L55.844 73.1457L56.061 87.0333Z" fill="#FDAA3E"/>
<path d="M101.847 98.7499L55.8438 73.1445L56.0608 87.0322L102.064 112.421L101.847 98.7499Z" fill="#FFE998"/>
<path d="M164.555 60.9922L164.772 74.8799L102.061 112.42L101.844 98.7492L164.555 60.9922Z" fill="#FFE998"/>
<g opacity="0.1">
<path d="M101.843 98.7538V104.613L56.0569 79.2243L55.8398 73.1484L101.843 98.7538Z" fill="#FFE998"/>
</g>
<g opacity="0.1">
<path d="M164.555 60.9922V67.0681L101.844 104.608V98.7492L164.555 60.9922Z" fill="#FFE998"/>
</g>
<g opacity="0.1">
<path d="M101.843 98.7538V104.613L56.0569 79.2243L55.8398 73.1484L101.843 98.7538Z" fill="#FFE998"/>
</g>
<g opacity="0.1">
<path d="M164.555 60.9922V67.0681L101.844 104.608V98.7492L164.555 60.9922Z" fill="#FFE998"/>
</g>
<path d="M30.8906 62.9492V145.841L74.7235 171.229L77.9784 173.182L78.4123 173.399C78.4123 173.399 78.6294 173.399 78.6294 173.616C78.8464 173.616 78.8463 173.833 79.0633 173.833C79.2803 173.833 79.4973 174.05 79.4973 174.05C80.7993 174.701 82.1013 175.135 83.1862 175.135C84.0542 175.135 84.9222 174.918 85.7902 174.484L94.6869 169.276C95.3379 168.842 95.7719 168.408 95.7719 167.757V84.8656L83.1862 91.8094L82.3183 92.0264L79.4973 90.5075L78.6294 89.6395L30.8906 62.9492Z" fill="url(#paint5_linear_447_9684)"/>
<path d="M78.6289 82.6957V173.399C78.8459 173.399 78.8459 173.616 79.0629 173.616C79.2799 173.616 79.4969 173.833 79.4969 173.833V82.2617L78.6289 82.6957Z" fill="url(#paint6_linear_447_9684)"/>
<path d="M49.5516 62.0831L44.7777 56.0073L44.3438 55.1393L45.4287 54.4883L94.6864 82.9145C96.2054 83.7825 96.2054 85.0845 94.6864 85.9524L85.7897 91.1604C83.126 93.2207 81.6668 92.2453 78.4118 90.2923L74.7229 88.1224L49.5516 62.0831Z" fill="white"/>
<path d="M44.3459 55.1406L91.8677 82.6989V83.1329L80.15 90.0767L39.7891 62.7354L44.3459 56.4426V55.1406Z" fill="url(#paint7_linear_447_9684)"/>
<path d="M77.7617 88.555L80.1486 90.0739L91.8663 83.1301L89.4794 81.8281L77.7617 88.555Z" fill="#FFE998"/>
<path d="M89.4793 81.8301L84.4884 84.6511L82.1015 86.17L81.4505 86.387L79.2805 87.689L77.7616 88.5569L34.1457 63.3856L33.0608 62.9517V62.7346H32.8438H33.0608L34.5797 61.8667L37.1836 60.3477L39.5706 58.8287L44.7784 56.0078L52.3732 60.3477L54.9772 61.8667L89.0453 81.6131L89.4793 81.8301Z" fill="#FFE998"/>
<path d="M90.377 82.5957L84.0645 85.7207L39.5703 58.8287L44.7782 56.0078L51.939 60.1307L54.5429 61.6497L54.9769 61.8667L90.377 82.5957Z" fill="#FFE998"/>
<path d="M34.5781 61.8666L37.182 60.3477H37.3991L84.626 85.6602L82.0999 88.0352L79.2789 87.6889L34.7951 61.8666H34.5781Z" fill="#FFE998"/>
<path d="M30.8906 62.9479L75.0645 88.3125L76.0254 87.6852L32.1926 62.2969L30.8906 62.9479Z" fill="white"/>
<path opacity="0.5" d="M53.892 76.4027C43.9103 70.5438 35.2305 65.3359 35.2305 65.3359L53.892 76.4027Z" fill="#FFE998"/>
<path d="M17.2188 78.1328V156.251L58.6647 180.12L61.7026 181.856L61.9196 182.073C61.9196 182.073 62.1366 182.073 62.1366 182.29C62.3535 182.29 62.3536 182.507 62.5706 182.507C62.7876 182.507 62.7876 182.724 63.0045 182.724C64.3065 183.375 65.3915 183.592 66.4764 183.592C67.3444 183.592 68.2124 183.375 69.0804 182.941L77.5432 178.167C78.1941 177.733 78.6281 177.299 78.6281 176.648V98.5303L66.6934 105.04L65.8255 105.257L63.2215 103.738L62.3536 103.304L17.2188 78.1328Z" fill="url(#paint8_linear_447_9684)"/>
<path d="M62.1328 96.7933V182.289C62.3498 182.289 62.3498 182.506 62.5668 182.506C62.7838 182.506 62.7838 182.723 63.0008 182.723V96.3594L62.1328 96.7933Z" fill="url(#paint9_linear_447_9684)"/>
<path d="M34.5746 77.4811L30.2348 71.8392L29.8008 70.9713L30.8858 70.3203L77.3225 97.2276C78.6245 98.0956 78.6245 99.3975 77.3225 100.048L68.8597 104.822C66.9068 105.907 64.9539 105.907 61.9159 103.954L58.444 102.001L34.5746 77.4811Z" fill="#FDF7E1"/>
<path d="M29.8047 70.9727L74.5056 96.795V97.229L63.4388 103.739L25.4648 78.1335L29.8047 72.0576V70.9727Z" fill="#413C7C"/>
<path d="M61.2656 102.437L63.4356 103.739L74.5023 97.2295L72.3323 96.1445L61.2656 102.437Z" fill="#FFE998"/>
<path d="M72.3337 96.1414L68.499 99.4707L66.999 101.158L64.5615 101.566H62.786L61.267 102.434L20.0381 78.7819L19.1701 78.1309H18.9531L20.4721 77.2629L23.076 75.744L25.2459 74.442L30.0198 71.6211H30.2368L37.3976 75.744L39.7846 77.2629L71.8997 95.9244L72.3337 96.1414Z" fill="#FFE998"/>
<path opacity="0.1" d="M20.4727 77.265L23.0766 75.7461L65.3905 100.049L64.7395 100.483L62.7865 101.568L20.6897 77.265H20.4727Z" fill="#FFE998"/>
<path d="M17 78.3502L59.5308 102.533V101.569L18.3019 77.6992L17 78.3502Z" fill="white"/>
<path opacity="0.5" d="M38.6998 90.9353C29.3691 85.5104 20.9062 80.5195 20.9062 80.5195L38.6998 90.9353Z" fill="#FFE998"/>
<defs>
<linearGradient id="paint0_linear_447_9684" x1="132.993" y1="147.072" x2="95.1144" y2="81.4662" gradientUnits="userSpaceOnUse">
<stop offset="0.187131" stop-color="#F98973"/>
<stop offset="0.245515" stop-color="#E76951"/>
<stop offset="1" stop-color="#F98973"/>
</linearGradient>
<linearGradient id="paint1_linear_447_9684" x1="83.9147" y1="169.95" x2="53.5086" y2="117.286" gradientUnits="userSpaceOnUse">
<stop stop-color="#020705"/>
<stop offset="0.995" stop-color="#052217"/>
</linearGradient>
<linearGradient id="paint2_linear_447_9684" x1="128.605" y1="120.884" x2="94.9138" y2="62.5304" gradientUnits="userSpaceOnUse">
<stop offset="0.121941" stop-color="#413C7C"/>
<stop offset="0.18344" stop-color="#6D6BCE"/>
<stop offset="0.2397" stop-color="#806FEA"/>
<stop offset="1" stop-color="#B5640D"/>
</linearGradient>
<linearGradient id="paint3_linear_447_9684" x1="84.9359" y1="141.244" x2="57.8838" y2="94.3898" gradientUnits="userSpaceOnUse">
<stop stop-color="#664220"/>
<stop offset="0.995" stop-color="#814F1E"/>
</linearGradient>
<linearGradient id="paint4_linear_447_9684" x1="73.126" y1="63.0937" x2="161.876" y2="59.4688" gradientUnits="userSpaceOnUse">
<stop stop-color="#F98973"/>
<stop offset="1" stop-color="#FFBAAC"/>
</linearGradient>
<linearGradient id="paint5_linear_447_9684" x1="95.9231" y1="118.847" x2="30.9744" y2="118.847" gradientUnits="userSpaceOnUse">
<stop offset="0.212416" stop-color="#413C7C"/>
<stop offset="0.247059" stop-color="#1F1E58"/>
<stop offset="1" stop-color="#1F1E58"/>
</linearGradient>
<linearGradient id="paint6_linear_447_9684" x1="79.6301" y1="128.009" x2="78.6586" y2="128.009" gradientUnits="userSpaceOnUse">
<stop stop-color="#1D2F4D"/>
<stop offset="0.995" stop-color="#1F3868"/>
</linearGradient>
<linearGradient id="paint7_linear_447_9684" x1="91.8731" y1="72.5874" x2="39.7257" y2="72.5874" gradientUnits="userSpaceOnUse">
<stop stop-color="#1D2F4D"/>
<stop offset="0.995" stop-color="#1F3868"/>
</linearGradient>
<linearGradient id="paint8_linear_447_9684" x1="78.4098" y1="131.008" x2="17.1185" y2="131.008" gradientUnits="userSpaceOnUse">
<stop stop-color="#6D6BCE"/>
<stop offset="0.22693" stop-color="#6D6BCE"/>
<stop offset="0.255482" stop-color="#5E5CC2"/>
<stop offset="0.822447" stop-color="#5E5CC2"/>
</linearGradient>
<linearGradient id="paint9_linear_447_9684" x1="63.0301" y1="139.658" x2="62.1146" y2="139.658" gradientUnits="userSpaceOnUse">
<stop stop-color="#274C66"/>
<stop offset="0.995" stop-color="#275981"/>
</linearGradient>
</defs>
</svg>
