<svg width="389" height="264" viewBox="0 0 389 264" fill="none" xmlns="http://www.w3.org/2000/svg">
<path d="M326.457 4.64353L315.233 21.4384L310.351 40.5946L303.584 41.8416L309.873 19.2097L321.999 1.83112L322.556 1.03516L326.457 4.64353Z" fill="url(#paint0_linear_447_3183)"/>
<path d="M322.559 1.03653L322.001 1.83249L309.875 19.211L303.586 41.843L301.278 40.9939L307.567 18.362L320.25 0.1875L322.559 1.03653Z" fill="url(#paint1_linear_447_3183)"/>
<path d="M264.528 248.395C264.714 253.17 266.996 254.842 270.419 256.301C261.875 249.27 273.311 226.983 284.031 229.875C273.922 222.712 263.918 239.374 264.528 248.395Z" fill="#1F1E58"/>
<path d="M267.446 249.909C267.605 252.907 268.613 255.719 271.426 256.807C280.793 258.77 288.302 244.947 287.877 236.722C287.771 229.93 282.093 227.622 277.051 231.177C271.453 234.812 267.127 243.223 267.446 249.909Z" fill="#1F1E58"/>
<path d="M273.489 251.535C270.87 250.188 270.636 245.42 272.968 240.885C275.3 236.351 279.313 233.766 281.933 235.113C284.552 236.459 284.786 241.227 282.454 245.762C280.122 250.297 276.109 252.881 273.489 251.535Z" fill="#413C7C"/>
<path d="M274.982 251.921C275.937 251.921 276.972 251.576 278.034 250.886C281.536 248.631 284.216 243.404 284.004 239.265C283.898 237.249 283.155 235.79 281.881 235.126C280.607 234.463 278.962 234.702 277.264 235.816C273.762 238.071 271.082 243.298 271.294 247.437C271.4 249.454 272.143 250.913 273.417 251.576C273.921 251.788 274.425 251.921 274.982 251.921ZM278.034 250.833C276.362 251.921 274.717 252.16 273.47 251.497C272.196 250.86 271.453 249.401 271.373 247.384C271.161 243.245 273.841 238.045 277.344 235.79C279.015 234.702 280.66 234.463 281.908 235.126C283.181 235.763 283.924 237.222 284.004 239.239C284.19 243.404 281.51 248.578 278.034 250.833Z" fill="#1F1E58"/>
<path d="M274.41 249.745C272.364 248.693 272.183 244.966 274.005 241.422C275.828 237.877 278.964 235.856 281.01 236.908C283.056 237.96 283.237 241.686 281.415 245.231C279.592 248.776 276.456 250.796 274.41 249.745Z" fill="#1F1E58"/>
<path d="M275.593 250.04C276.336 250.04 277.159 249.775 277.982 249.217C280.715 247.466 282.811 243.38 282.652 240.143C282.572 238.578 281.988 237.437 280.98 236.907C279.998 236.402 278.725 236.588 277.398 237.437C274.665 239.188 272.569 243.274 272.728 246.511C272.807 248.077 273.391 249.217 274.399 249.748C274.744 249.934 275.142 250.04 275.593 250.04ZM279.786 236.641C280.21 236.641 280.609 236.721 280.98 236.933C281.962 237.437 282.546 238.578 282.625 240.143C282.784 243.38 280.688 247.44 277.982 249.191C276.655 250.04 275.408 250.226 274.399 249.722C273.418 249.217 272.834 248.077 272.754 246.511C272.595 243.274 274.691 239.215 277.398 237.464C278.22 236.933 279.043 236.641 279.786 236.641Z" fill="#1F1E58"/>
<path d="M275.463 247.694C274.068 246.978 273.943 244.442 275.182 242.031C276.422 239.62 278.557 238.247 279.952 238.964C281.346 239.681 281.472 242.216 280.232 244.627C278.992 247.038 276.857 248.411 275.463 247.694Z" fill="#1F1E58"/>
<path d="M277.874 247.833C278.404 247.727 278.961 246.294 278.059 246.665C277.582 246.771 277.051 248.098 277.874 247.833ZM276.096 248.364C276.388 248.231 276.706 247.355 276.281 247.302C275.459 246.957 275.008 248.841 276.096 248.364ZM279.837 245.79C280.156 245.551 280.66 244.728 280.315 244.436C279.758 244.092 278.855 246.161 279.837 245.79ZM274.663 247.355C275.273 247.063 275.114 245.604 274.371 246.241C273.973 246.559 274.053 247.621 274.663 247.355ZM280.952 243.004C281.323 242.844 281.721 241.518 281.058 241.624C280.58 241.677 280.182 243.375 280.952 243.004ZM274.398 244.994C274.742 244.808 275.141 243.561 274.53 243.587C274.026 243.614 273.575 245.339 274.398 244.994ZM280.845 240.536C281.456 240.244 281.27 238.732 280.527 239.448C280.156 239.793 280.262 240.801 280.845 240.536ZM275.379 242.181C275.698 241.942 276.175 241.173 275.883 240.854C275.326 240.43 274.371 242.579 275.379 242.181ZM279.519 239.315C279.811 239.183 280.102 238.36 279.731 238.254C278.882 237.909 278.404 239.766 279.519 239.315ZM277.237 240.005C277.741 239.899 278.325 238.546 277.449 238.838C276.971 238.944 276.388 240.271 277.237 240.005Z" fill="#1F1E58"/>
<path d="M277.795 245.792C279.759 244.969 281.006 239.211 277.556 240.857C275.593 241.679 274.345 247.437 277.795 245.792Z" fill="#1F1E58"/>
<path d="M276.256 236.454L275.699 224.859L266.81 230.59L267.314 241.071C267.394 242.901 268.588 244.52 270.312 245.13C277.344 247.253 275.434 249.03 280.634 243.565C281.988 242.132 275.938 239.77 276.256 236.454Z" fill="url(#paint2_linear_447_3183)"/>
<path d="M330.091 214.305C330.277 219.081 332.559 220.752 335.982 222.211C327.437 215.18 338.874 192.893 349.594 195.785C339.511 188.622 329.481 205.284 330.091 214.305Z" fill="#1F1E58"/>
<path d="M333.036 215.819C333.195 218.817 334.203 221.629 337.016 222.717C346.383 224.681 353.892 210.857 353.467 202.632C353.361 195.84 347.683 193.532 342.641 197.087C337.016 200.722 332.691 209.106 333.036 215.819Z" fill="#1F1E58"/>
<path d="M339.048 217.445C336.428 216.098 336.195 211.33 338.527 206.796C340.858 202.261 344.872 199.676 347.491 201.023C350.111 202.369 350.344 207.137 348.013 211.672C345.681 216.207 341.667 218.791 339.048 217.445Z" fill="#413C7C"/>
<path d="M340.572 217.838C341.527 217.838 342.562 217.493 343.623 216.803C347.126 214.548 349.806 209.321 349.594 205.182C349.488 203.165 348.745 201.706 347.471 201.043C346.197 200.38 344.552 200.618 342.854 201.733C339.351 203.988 336.671 209.215 336.884 213.354C336.99 215.37 337.733 216.83 339.006 217.493C339.484 217.705 340.015 217.838 340.572 217.838ZM345.932 200.698C346.489 200.698 346.993 200.804 347.444 201.043C348.718 201.68 349.461 203.139 349.541 205.155C349.753 209.294 347.073 214.495 343.57 216.75C341.899 217.838 340.254 218.077 339.006 217.413C337.733 216.776 336.99 215.317 336.91 213.301C336.698 209.162 339.378 203.961 342.88 201.706C343.968 201.043 345.003 200.698 345.932 200.698Z" fill="#1F1E58"/>
<path d="M339.969 215.647C337.922 214.595 337.741 210.869 339.564 207.324C341.386 203.779 344.523 201.758 346.569 202.81C348.615 203.862 348.796 207.588 346.973 211.133C345.151 214.678 342.015 216.699 339.969 215.647Z" fill="#1F1E58"/>
<path d="M341.156 215.946C341.899 215.946 342.722 215.681 343.544 215.124C346.277 213.373 348.373 209.287 348.214 206.05C348.135 204.484 347.551 203.343 346.542 202.813C345.561 202.309 344.287 202.494 342.96 203.343C340.227 205.095 338.131 209.18 338.29 212.417C338.37 213.983 338.954 215.124 339.962 215.654C340.307 215.84 340.731 215.946 341.156 215.946ZM345.348 202.547C345.773 202.547 346.171 202.627 346.542 202.839C347.524 203.343 348.108 204.484 348.188 206.05C348.347 209.287 346.251 213.346 343.544 215.097C342.217 215.946 340.97 216.132 339.962 215.628C338.98 215.124 338.396 213.983 338.317 212.417C338.158 209.18 340.254 205.121 342.96 203.37C343.809 202.839 344.605 202.547 345.348 202.547Z" fill="#1F1E58"/>
<path d="M343.438 213.242C345.296 212.048 346.702 209.288 346.596 207.086C346.49 204.884 344.898 204.061 343.04 205.255C341.183 206.449 339.777 209.209 339.883 211.411C339.989 213.613 341.581 214.436 343.438 213.242Z" fill="#1F1E58"/>
<path d="M343.463 213.747C343.994 213.641 344.551 212.208 343.649 212.579C343.172 212.686 342.614 214.012 343.463 213.747ZM341.659 214.278C341.951 214.145 342.269 213.269 341.845 213.216C341.022 212.871 340.598 214.755 341.659 214.278ZM345.4 211.704C345.719 211.465 346.223 210.642 345.878 210.351C345.347 210.006 344.419 212.075 345.4 211.704ZM340.226 213.243C340.836 212.951 340.677 211.492 339.934 212.128C339.536 212.473 339.616 213.535 340.226 213.243ZM346.541 208.918C346.913 208.758 347.311 207.432 346.648 207.538C346.17 207.591 345.745 209.263 346.541 208.918ZM339.961 210.908C340.306 210.722 340.704 209.475 340.094 209.501C339.589 209.528 339.138 211.253 339.961 210.908ZM346.409 206.45C347.019 206.158 346.833 204.646 346.09 205.362C345.719 205.707 345.825 206.715 346.409 206.45ZM340.943 208.095C341.261 207.856 341.739 207.087 341.447 206.768C340.89 206.344 339.961 208.493 340.943 208.095ZM345.082 205.229C345.374 205.097 345.666 204.274 345.294 204.168C344.472 203.823 343.968 205.68 345.082 205.229ZM342.827 205.919C343.331 205.813 343.915 204.46 343.039 204.752C342.535 204.831 341.951 206.185 342.827 205.919Z" fill="#1F1E58"/>
<path d="M343.358 211.705C344.499 210.962 345.375 209.264 345.322 207.884C345.242 206.531 344.261 206 343.12 206.743C341.156 207.593 339.935 213.351 343.358 211.705Z" fill="#1F1E58"/>
<path d="M341.819 202.364L341.261 190.77L332.372 196.5L332.877 206.981C332.956 208.811 334.15 210.43 335.875 211.04C342.907 213.163 340.996 214.94 346.197 209.475C347.55 208.042 341.5 205.681 341.819 202.364Z" fill="url(#paint3_linear_447_3183)"/>
<path d="M217.103 211.512C217.288 216.288 219.57 217.959 222.993 219.418C214.449 212.387 225.886 190.1 236.605 192.992C226.496 185.829 216.492 202.491 217.103 211.512Z" fill="#1F1E58"/>
<path d="M220.024 213.026C220.183 216.024 221.191 218.836 224.004 219.924C233.371 221.888 240.88 208.064 240.455 199.839C240.349 193.047 234.671 190.739 229.629 194.294C224.004 197.956 219.706 206.34 220.024 213.026Z" fill="#1F1E58"/>
<path d="M226.044 214.648C223.424 213.301 223.191 208.534 225.523 203.999C227.854 199.464 231.868 196.879 234.487 198.226C237.107 199.572 237.34 204.34 235.009 208.875C232.677 213.41 228.663 215.995 226.044 214.648Z" fill="#413C7C"/>
<path d="M227.56 215.046C228.515 215.046 229.55 214.701 230.612 214.011C234.114 211.756 236.794 206.529 236.582 202.39C236.476 200.374 235.733 198.915 234.459 198.251C233.186 197.588 231.54 197.827 229.842 198.941C226.34 201.196 223.66 206.423 223.872 210.562C223.978 212.579 224.721 214.038 225.995 214.701C226.499 214.913 227.003 215.046 227.56 215.046ZM230.612 213.958C228.94 215.046 227.295 215.285 226.048 214.622C224.774 213.985 224.031 212.526 223.952 210.509C223.739 206.37 226.419 201.17 229.922 198.915C231.593 197.827 233.239 197.588 234.486 198.251C235.759 198.888 236.502 200.347 236.582 202.364C236.768 206.529 234.088 211.73 230.612 213.958Z" fill="#1F1E58"/>
<path d="M230.532 212.334C233.265 210.582 235.362 206.497 235.202 203.26C235.043 200.023 232.708 198.802 229.975 200.58C227.242 202.331 225.146 206.417 225.305 209.654C225.464 212.891 227.799 214.085 230.532 212.334Z" fill="#1F1E58"/>
<path d="M228.144 213.157C228.887 213.157 229.71 212.892 230.532 212.335C233.265 210.583 235.362 206.498 235.202 203.261C235.123 201.695 234.539 200.554 233.531 200.024C232.549 199.52 231.275 199.705 229.949 200.554C227.216 202.305 225.119 206.391 225.279 209.628C225.358 211.194 225.942 212.335 226.95 212.865C227.322 213.051 227.72 213.157 228.144 213.157ZM230.532 212.308C229.206 213.157 227.959 213.343 226.95 212.839C225.968 212.335 225.385 211.194 225.305 209.628C225.146 206.391 227.242 202.332 229.949 200.581C231.275 199.732 232.522 199.546 233.531 200.05C234.513 200.554 235.096 201.695 235.176 203.261C235.335 206.498 233.265 210.557 230.532 212.308Z" fill="#1F1E58"/>
<path d="M230.45 210.449C232.307 209.255 233.714 206.495 233.608 204.293C233.502 202.091 231.909 201.268 230.052 202.462C228.195 203.656 226.788 206.416 226.894 208.618C227.001 210.82 228.593 211.643 230.45 210.449Z" fill="#1F1E58"/>
<path d="M230.451 210.954C230.981 210.848 231.539 209.415 230.637 209.786C230.159 209.893 229.628 211.219 230.451 210.954ZM228.673 211.485C228.965 211.352 229.283 210.476 228.859 210.423C228.036 210.078 227.585 211.962 228.673 211.485ZM232.414 208.911C232.733 208.672 233.237 207.849 232.892 207.558C232.335 207.213 231.433 209.309 232.414 208.911ZM227.24 210.476C227.85 210.184 227.691 208.725 226.948 209.362C226.55 209.68 226.63 210.742 227.24 210.476ZM233.529 206.125C233.847 205.939 233.927 205.488 233.98 205.143C234.006 204.294 233.157 204.931 233.157 205.435C233.051 205.78 233.078 206.417 233.529 206.125ZM226.948 208.115C227.293 207.929 227.691 206.682 227.081 206.708C226.603 206.735 226.152 208.46 226.948 208.115ZM233.423 203.657C234.033 203.365 233.847 201.853 233.104 202.569C232.733 202.914 232.839 203.922 233.423 203.657ZM227.957 205.302C228.275 205.063 228.753 204.294 228.461 203.975C227.903 203.551 226.948 205.7 227.957 205.302ZM232.096 202.436C232.388 202.304 232.68 201.481 232.308 201.375C231.459 201.03 230.981 202.887 232.096 202.436ZM229.814 203.126C230.318 203.02 230.902 201.667 230.026 201.959C229.549 202.065 228.965 203.418 229.814 203.126Z" fill="#1F1E58"/>
<path d="M230.374 208.912C231.515 208.169 232.391 206.471 232.338 205.091C232.258 203.738 231.276 203.208 230.135 203.95C228.145 204.826 226.925 210.558 230.374 208.912Z" fill="#1F1E58"/>
<path d="M228.834 199.575L228.277 187.98L219.388 193.711L219.892 204.192C219.972 206.022 221.166 207.641 222.891 208.251C229.922 210.374 228.012 212.151 233.212 206.686C234.566 205.253 228.516 202.892 228.834 199.575Z" fill="url(#paint4_linear_447_3183)"/>
<path d="M281.427 170.785C281.613 175.561 283.895 177.233 287.318 178.692C278.773 171.661 290.21 149.374 300.93 152.266C290.847 145.102 280.817 161.764 281.427 170.785Z" fill="#1F1E58"/>
<path d="M284.372 172.299C284.531 175.297 285.539 178.11 288.352 179.198C297.718 181.161 305.228 167.338 304.803 159.113C304.697 152.321 299.019 150.012 293.977 153.568C288.352 157.202 284.027 165.587 284.372 172.299Z" fill="#1F1E58"/>
<path d="M290.384 173.921C287.764 172.575 287.531 167.807 289.862 163.272C292.194 158.737 296.208 156.153 298.827 157.499C301.447 158.846 301.68 163.614 299.349 168.149C297.017 172.683 293.003 175.268 290.384 173.921Z" fill="#413C7C"/>
<path d="M291.908 174.31C292.863 174.31 293.898 173.965 294.959 173.276C298.462 171.02 301.142 165.794 300.93 161.655C300.823 159.638 300.081 158.179 298.807 157.516C297.533 156.852 295.888 157.091 294.19 158.205C290.687 160.461 288.007 165.687 288.22 169.826C288.326 171.843 289.069 173.302 290.342 173.965C290.82 174.178 291.351 174.31 291.908 174.31ZM297.268 157.171C297.825 157.171 298.329 157.277 298.78 157.516C300.054 158.152 300.797 159.612 300.877 161.628C301.089 165.767 298.409 170.967 294.906 173.223C293.235 174.31 291.589 174.549 290.342 173.886C289.069 173.249 288.326 171.79 288.246 169.773C288.034 165.634 290.714 160.434 294.216 158.179C295.304 157.516 296.339 157.171 297.268 157.171Z" fill="#1F1E58"/>
<path d="M291.305 172.131C289.258 171.079 289.077 167.353 290.9 163.808C292.722 160.264 295.858 158.243 297.905 159.295C299.951 160.347 300.132 164.073 298.309 167.618C296.487 171.162 293.351 173.183 291.305 172.131Z" fill="#1F1E58"/>
<path d="M292.488 172.427C293.231 172.427 294.054 172.161 294.876 171.604C297.609 169.853 299.705 165.767 299.546 162.53C299.467 160.965 298.883 159.824 297.875 159.293C296.893 158.789 295.619 158.975 294.292 159.824C291.559 161.575 289.463 165.661 289.622 168.898C289.702 170.463 290.286 171.604 291.294 172.135C291.639 172.32 292.063 172.427 292.488 172.427ZM296.68 159.028C297.105 159.028 297.503 159.107 297.875 159.32C298.856 159.824 299.44 160.965 299.52 162.53C299.679 165.767 297.583 169.826 294.876 171.578C293.549 172.427 292.302 172.612 291.294 172.108C290.312 171.604 289.728 170.463 289.649 168.898C289.49 165.661 291.586 161.602 294.292 159.85C295.141 159.32 295.938 159.028 296.68 159.028Z" fill="#1F1E58"/>
<path d="M294.774 169.722C296.632 168.528 298.038 165.769 297.932 163.566C297.826 161.364 296.234 160.542 294.376 161.736C292.519 162.93 291.112 165.689 291.219 167.892C291.325 170.094 292.917 170.916 294.774 169.722Z" fill="#1F1E58"/>
<path d="M294.799 170.227C295.33 170.121 295.887 168.688 294.985 169.06C294.507 169.166 293.95 170.493 294.799 170.227ZM292.995 170.758C293.287 170.625 293.605 169.75 293.181 169.697C292.358 169.352 291.934 171.236 292.995 170.758ZM296.736 168.184C297.055 167.945 297.559 167.123 297.214 166.831C296.683 166.486 295.755 168.556 296.736 168.184ZM291.562 169.723C292.172 169.431 292.013 167.972 291.27 168.609C290.872 168.954 290.952 170.015 291.562 169.723ZM297.877 165.398C298.249 165.239 298.647 163.912 297.983 164.018C297.506 164.071 297.081 165.743 297.877 165.398ZM291.297 167.388C291.642 167.202 292.04 165.955 291.429 165.982C290.925 166.008 290.474 167.733 291.297 167.388ZM297.745 162.93C298.355 162.639 298.169 161.126 297.426 161.843C297.055 162.187 297.161 163.196 297.745 162.93ZM292.279 164.576C292.597 164.337 293.075 163.567 292.783 163.249C292.226 162.824 291.297 164.974 292.279 164.576ZM296.418 161.71C296.71 161.577 297.002 160.755 296.63 160.648C295.808 160.304 295.304 162.161 296.418 161.71ZM294.163 162.4C294.667 162.294 295.25 160.94 294.375 161.232C293.871 161.312 293.287 162.665 294.163 162.4Z" fill="#1F1E58"/>
<path d="M294.693 168.186C296.657 167.364 297.904 161.606 294.455 163.251C292.491 164.074 291.27 169.832 294.693 168.186Z" fill="#1F1E58"/>
<path d="M293.155 158.848L292.597 147.254L283.708 152.985L284.212 163.465C284.292 165.296 285.486 166.914 287.211 167.524C294.243 169.647 292.332 171.425 297.533 165.959C298.886 164.526 292.836 162.165 293.155 158.848Z" fill="url(#paint5_linear_447_3183)"/>
<path d="M254.508 134.444L255.039 134.445L254.91 178.887L254.379 178.885L254.508 134.444Z" fill="white"/>
<path d="M349.021 58.5495L350.879 58.5547L350.755 102.996L348.898 102.991L349.021 58.5495Z" fill="#6D6BCE"/>
<path d="M338.088 52.0534L339.945 52.0586L339.822 96.4999L337.964 96.4947L338.088 52.0534Z" fill="#6D6BCE"/>
<path d="M327.529 45.7331L329.387 45.7383L329.262 90.1796L327.405 90.1744L327.529 45.7331Z" fill="#6D6BCE"/>
<path d="M318.799 40.5104L320.656 40.5156L320.532 84.957L318.674 84.9518L318.799 40.5104Z" fill="#6D6BCE"/>
<path d="M308.85 33.3971L310.707 33.4023L310.583 77.8437L308.725 77.8385L308.85 33.3971Z" fill="#6D6BCE"/>
<path d="M359.291 63.3815L361.148 63.3867L361.025 107.828L359.167 107.823L359.291 63.3815Z" fill="#6D6BCE"/>
<path d="M207.826 97.1826L209.684 97.1875L209.56 143.804L207.702 143.8L207.826 97.1826Z" fill="#6D6BCE"/>
<path d="M218.76 91.4521L220.617 91.457L220.494 138.074L218.637 138.069L218.76 91.4521Z" fill="#6D6BCE"/>
<path d="M231.045 83.1982L232.902 83.2031L232.778 129.82L230.921 129.815L231.045 83.1982Z" fill="#6D6BCE"/>
<path d="M243.303 75.7177L245.16 75.7227L245.037 122.34L243.18 122.335L243.303 75.7177Z" fill="#6D6BCE"/>
<path d="M255.326 67.8896L257.184 67.8945L257.06 114.511L255.203 114.507L255.326 67.8896Z" fill="#6D6BCE"/>
<path d="M266.893 60.6982L268.75 60.7031L268.626 107.32L266.769 107.315L266.893 60.6982Z" fill="#6D6BCE"/>
<path d="M277.986 53.8818L279.844 53.8867L279.72 100.504L277.862 100.499L277.986 53.8818Z" fill="#6D6BCE"/>
<path d="M289.502 46.956L291.359 46.9609L291.236 93.5779L289.378 93.573L289.502 46.956Z" fill="#6D6BCE"/>
<path d="M301.467 39.4755L303.324 39.4805L303.2 86.0974L301.343 86.0925L301.467 39.4755Z" fill="#6D6BCE"/>
<path d="M309.189 34.3232L311.047 34.3281L310.924 80.9451L309.066 80.9402L309.189 34.3232Z" fill="#6D6BCE"/>
<path d="M299.726 85.785L359.773 121.082L358.563 123.141L298.515 87.8436L299.726 85.785Z" fill="#413C7C"/>
<path d="M286.905 94.1483L346.953 129.445L345.743 131.504L285.695 96.2069L286.905 94.1483Z" fill="#413C7C"/>
<path d="M274.468 101.18L334.516 136.477L333.305 138.535L273.258 103.238L274.468 101.18Z" fill="#413C7C"/>
<path d="M260.886 109.252L319.129 143.953L317.906 146.005L259.663 111.303L260.886 109.252Z" fill="#413C7C"/>
<path d="M248.069 119.415L303.438 151.988L302.226 154.046L246.858 121.473L248.069 119.415Z" fill="#413C7C"/>
<path d="M235.069 128.005L290.438 160.578L289.226 162.636L233.858 130.063L235.069 128.005Z" fill="#413C7C"/>
<path d="M221.862 134.509L277.23 167.082L276.019 169.14L220.651 136.567L221.862 134.509Z" fill="#413C7C"/>
<path d="M210.983 139.954L266.352 172.527L265.141 174.585L209.772 142.012L210.983 139.954Z" fill="#413C7C"/>
<path d="M215.46 194.114L270.828 226.688L269.213 229.432L213.845 196.858L215.46 194.114Z" fill="#6D6BCE"/>
<path d="M233.142 183.893L289.578 217.316L287.955 220.056L231.519 186.632L233.142 183.893Z" fill="#6D6BCE"/>
<path d="M249.339 176.259L304.707 208.832L303.092 211.576L247.724 179.003L249.339 176.259Z" fill="#6D6BCE"/>
<path d="M261.091 166.967L318.891 201.215L317.267 203.954L259.468 169.706L261.091 166.967Z" fill="#6D6BCE"/>
<path d="M274.692 158.279L334.195 193.027L332.59 195.777L273.086 161.028L274.692 158.279Z" fill="#6D6BCE"/>
<path d="M256.885 180.818L369.922 119.582C372.814 118.123 372.92 113.612 370.028 112.074L312.952 79.1207C311.572 78.3247 309.874 78.3513 308.521 79.2003L203.179 144.867C201.879 145.663 201.136 147.069 201.162 148.582C201.189 150.094 201.985 151.474 203.312 152.243C205.859 152.509 254.788 184.719 256.885 180.818ZM310.829 82.8087C310.856 82.8352 367.958 115.735 367.931 115.815C367.985 115.894 254.815 177.13 254.789 177.104C254.762 177.051 205.355 148.608 205.381 148.555C205.328 148.476 310.829 82.7556 310.829 82.8087Z" fill="#6D6BCE"/>
<path d="M228.12 222.922L203.283 208.594C201.957 207.825 201.161 206.472 201.134 204.933C201.108 203.421 201.877 202.014 203.151 201.218L306.635 136.719L308.891 140.327C308.891 140.354 205.327 204.8 205.38 204.88C205.327 204.986 230.216 219.207 230.242 219.26L228.12 222.922Z" fill="#6D6BCE"/>
<path d="M254.841 237.677C253.938 238.685 229.341 223.243 228.12 222.925L230.243 219.237C230.509 219.157 254.788 233.883 255.079 233.325C261.368 231.574 347.711 186.151 346.915 183.737C358.166 165.27 343.041 146.406 324.918 144.363L325.422 140.145C346.358 142.4 363.871 165.032 350.232 186.417C339.406 196.021 267.444 233.458 254.841 237.677Z" fill="#6D6BCE"/>
<path opacity="0.3" d="M310.378 135.364L270.576 112.387L310.378 89.4102L350.18 112.387L310.378 135.364Z" fill="url(#paint6_linear_447_3183)"/>
<path d="M310.375 91.7743V132.607C300.212 126.744 285.167 118.041 275.005 112.178V71.3711C279.436 73.9182 291.668 80.9757 295.914 83.4432H295.94C295.94 83.4432 310.348 91.7743 310.375 91.7743Z" fill="#F98973"/>
<path d="M345.746 71.3711V112.204C335 118.413 321.149 126.425 310.376 132.634V91.7743L323.218 84.3453L324.121 83.8147L330.621 80.0736C332.877 78.8266 343.305 72.7773 345.746 71.3711Z" fill="#DB6F5A"/>
<path d="M345.746 71.3703C343.252 72.8031 332.93 78.7728 330.648 80.0729L324.147 83.8139L323.324 84.2915L310.402 91.747C300.239 85.8834 285.194 77.2074 275.032 71.3438C285.805 65.1353 299.656 57.1226 310.402 50.9141C320.512 56.8042 335.583 65.5067 345.746 71.3703Z" fill="#FFB6A8"/>
<path d="M283.633 105.54L277.477 101.984V109.839L283.633 113.394V105.54ZM277.795 102.568L283.288 105.726V112.784L277.795 109.626V102.568Z" fill="#413C7C"/>
<path d="M290.266 109.388L284.11 105.832V113.686L290.266 117.242V109.388ZM284.428 106.389L289.921 109.573V116.632L284.428 113.474V106.389Z" fill="#413C7C"/>
<path d="M296.875 113.208L290.719 109.652V117.507L296.875 121.062V113.208ZM291.064 110.236L296.557 113.394V120.452L291.064 117.294V110.236Z" fill="#413C7C"/>
<path d="M281.749 110.822V107.134L282.2 107.611L281.59 105.568L280.98 106.895L281.431 106.948V110.61L279.68 109.601V105.913L280.131 106.417L279.494 104.348L278.884 105.701L279.335 105.727V109.416L278.459 108.912V109.31L282.625 111.698V111.326L281.749 110.822Z" fill="#413C7C"/>
<path d="M288.438 112.07V109.656L285.97 108.223C285.996 109.549 285.651 111.778 287.031 112.601V113.848L286.076 113.291V113.689L288.305 114.962V114.564L287.35 114.007V112.76C287.96 113.078 288.438 112.76 288.438 112.07Z" fill="#413C7C"/>
<path d="M293.795 112.382C292.388 111.506 291.804 112.116 291.513 113.337C292.176 112.833 292.999 113.708 293.184 114.345C293.29 114.16 293.476 114.106 293.662 114.133V117.476C293.582 118.087 292.892 117.423 292.972 117.078L292.627 116.893C292.627 117.317 292.945 117.848 293.317 118.087C293.688 118.299 294.007 118.14 294.007 117.689V114.425C294.139 114.584 294.272 114.796 294.352 115.035C294.936 114.398 295.678 115.327 296.023 115.99C295.811 114.425 295.201 113.125 293.795 112.382Z" fill="#413C7C"/>
<path opacity="0.28" d="M334.02 78.1367V118.97C331.393 120.482 325.9 123.666 323.22 125.205V84.3718L324.122 83.8411L330.623 80.1001C330.65 80.1001 333.993 78.1367 334.02 78.1367Z" fill="#413C7C"/>
<path opacity="0.28" d="M334.02 78.1368L330.65 80.0736L324.149 83.8146L323.326 84.2922L287.956 63.889C290.583 62.3767 296.075 59.2194 298.676 57.707L334.02 78.1368Z" fill="#413C7C"/>
<g opacity="0.28">
<path d="M293.537 60.4503L328.902 80.8672L328.65 81.3038L293.285 60.8868L293.537 60.4503Z" fill="#413C7C"/>
</g>
<path opacity="0.3" d="M273.072 138.633L253.171 127.145L273.072 115.656L292.973 127.145L273.072 138.633Z" fill="url(#paint7_linear_447_3183)"/>
<path d="M273.07 116.852V137.282C268.002 134.364 260.466 130.012 255.398 127.067V106.664C257.627 107.938 263.73 111.466 265.853 112.713C265.826 112.687 273.044 116.852 273.07 116.852Z" fill="#F98973"/>
<path d="M290.742 106.637V127.04C285.356 130.144 278.457 134.151 273.07 137.255V116.825L279.492 113.111L279.943 112.845L283.18 110.961C284.321 110.351 289.522 107.353 290.742 106.637Z" fill="#DB6F5A"/>
<path d="M290.742 106.637C289.495 107.353 284.347 110.325 283.206 110.988L279.969 112.872L279.545 113.111L273.097 116.852C268.029 113.933 260.493 109.582 255.425 106.637C260.811 103.532 267.737 99.5261 273.097 96.4219C278.138 99.3669 285.674 103.718 290.742 106.637Z" fill="#FFB6A8"/>
<path d="M259.699 123.715L256.621 121.938V125.865L259.699 127.642V123.715ZM256.78 122.229L259.513 123.821V127.351L256.78 125.758V122.229Z" fill="#413C7C"/>
<path d="M262.988 125.629L259.91 123.852V127.779L262.988 129.556V125.629ZM260.096 124.143L262.829 125.736V129.265L260.096 127.673V124.143Z" fill="#413C7C"/>
<path d="M266.305 127.567L263.227 125.789V129.716L266.305 131.494V127.567ZM263.412 126.054L266.145 127.646V131.176L263.412 129.584V126.054Z" fill="#413C7C"/>
<path d="M258.74 126.347V124.517L258.979 124.755L258.661 123.747L258.369 124.41H258.581V126.268L257.705 125.764V123.906L257.918 124.145L257.626 123.137L257.307 123.8L257.546 123.827V125.657L257.095 125.419V125.604L259.191 126.798V126.613L258.74 126.347Z" fill="#413C7C"/>
<path d="M262.086 126.985V125.791L260.865 125.074C260.892 125.738 260.706 126.852 261.396 127.25V127.887L260.918 127.622V127.807L262.033 128.444V128.258L261.555 127.993V127.356C261.847 127.489 262.086 127.33 262.086 126.985Z" fill="#413C7C"/>
<path d="M264.766 127.146C264.05 126.695 263.758 127.013 263.625 127.624C263.97 127.385 264.368 127.809 264.474 128.128C264.527 128.022 264.607 127.995 264.713 128.022C264.66 128.154 264.899 130.755 264.368 129.481L264.209 129.375C264.209 129.587 264.368 129.852 264.554 129.959C265.164 130.33 264.793 128.313 264.899 128.128C264.978 128.207 265.031 128.313 265.084 128.446C265.376 128.128 265.748 128.579 265.934 128.924C265.774 128.181 265.483 127.517 264.766 127.146Z" fill="#413C7C"/>
<path opacity="0.28" d="M284.879 110.031V130.434C283.552 131.204 280.819 132.796 279.492 133.565V113.136L279.943 112.87L283.181 110.986C283.207 111.013 284.879 110.031 284.879 110.031Z" fill="#413C7C"/>
<path opacity="0.28" d="M284.879 110.032L283.207 111.014L279.97 112.898L279.545 113.136L261.874 102.921C263.2 102.152 265.933 100.587 267.233 99.8438L284.879 110.032Z" fill="#413C7C"/>
<g opacity="0.28">
<path d="M264.642 101.168L282.336 111.383L282.203 111.613L264.509 101.397L264.642 101.168Z" fill="#413C7C"/>
</g>
<path opacity="0.3" d="M261.291 156.707L241.39 145.219L261.291 133.73L281.191 145.219L261.291 156.707Z" fill="url(#paint8_linear_447_3183)"/>
<path d="M261.293 134.926V155.356C256.225 152.437 248.689 148.086 243.621 145.141V124.711C245.85 125.984 251.953 129.513 254.076 130.76C254.049 130.76 261.266 134.926 261.293 134.926Z" fill="#F98973"/>
<path d="M278.965 124.711V145.141C273.578 148.245 266.679 152.251 261.293 155.356V134.926L267.714 131.211L268.165 130.946L271.403 129.062C272.544 128.425 277.744 125.427 278.965 124.711Z" fill="#DB6F5A"/>
<path d="M278.965 124.711C277.718 125.427 272.57 128.399 271.429 129.062L268.192 130.946L267.767 131.185L261.319 134.926C256.251 132.007 248.716 127.656 243.647 124.711C249.034 121.607 255.959 117.6 261.319 114.496C266.361 117.441 273.897 121.792 278.965 124.711Z" fill="#FFB6A8"/>
<path d="M247.891 141.797L244.813 140.02V143.947L247.891 145.724V141.797ZM244.998 140.311L247.731 141.903V145.433L244.998 143.84V140.311Z" fill="#413C7C"/>
<path d="M251.207 143.707L248.129 141.93V145.857L251.207 147.635V143.707ZM248.315 142.222L251.048 143.814V147.343L248.315 145.751V142.222Z" fill="#413C7C"/>
<path d="M254.523 145.618L251.445 143.84V147.767L254.523 149.545V145.618ZM251.631 144.132L254.364 145.724V149.253L251.631 147.661V144.132Z" fill="#413C7C"/>
<path d="M246.959 144.422V142.591L247.198 142.83L246.879 141.795L246.588 142.485H246.8V144.342L245.924 143.838V141.98L246.136 142.219L245.845 141.211L245.526 141.874L245.765 141.901V143.732L245.314 143.493V143.679L247.41 144.873V144.687L246.959 144.422Z" fill="#413C7C"/>
<path d="M250.305 145.055V143.861L249.084 143.145C249.111 143.808 248.925 144.922 249.615 145.32V145.957L249.137 145.692V145.878L250.252 146.514V146.329L249.774 146.063V145.426C250.066 145.559 250.305 145.4 250.305 145.055Z" fill="#413C7C"/>
<path d="M252.985 145.22C252.268 144.769 251.976 145.088 251.844 145.698C252.189 145.459 252.587 145.884 252.693 146.202C252.746 146.096 252.826 146.069 252.932 146.096C252.879 146.228 253.117 148.829 252.587 147.555L252.428 147.449C252.428 147.661 252.587 147.927 252.773 148.033C253.383 148.404 253.011 146.388 253.117 146.202C253.197 146.282 253.25 146.388 253.303 146.52C253.595 146.202 253.967 146.653 254.152 146.998C253.993 146.255 253.701 145.592 252.985 145.22Z" fill="#413C7C"/>
<path opacity="0.28" d="M273.098 128.105V148.509C271.771 149.278 269.038 150.87 267.711 151.639V131.21L268.162 130.944L271.399 129.061C271.426 129.087 273.098 128.105 273.098 128.105Z" fill="#413C7C"/>
<path opacity="0.28" d="M273.098 128.102L271.426 129.084L268.189 130.968L267.764 131.207L250.092 120.992C251.419 120.222 254.152 118.657 255.452 117.914L273.098 128.102Z" fill="#413C7C"/>
<g opacity="0.28">
<path d="M252.861 119.242L270.555 129.457L270.422 129.687L252.728 119.472L252.861 119.242Z" fill="#413C7C"/>
</g>
<path opacity="0.3" d="M278.857 117.594L258.956 106.106L278.857 94.6172L298.758 106.106L278.857 117.594Z" fill="url(#paint9_linear_447_3183)"/>
<path d="M278.828 95.8133V116.243C273.76 113.325 266.224 108.973 261.156 106.028V85.625C263.385 86.8985 269.488 90.4273 271.611 91.6743C271.611 91.6478 278.828 95.8133 278.828 95.8133Z" fill="#F98973"/>
<path d="M296.527 85.5977V106.001C291.141 109.105 284.242 113.111 278.855 116.216V95.786L285.277 92.0715L285.728 91.8062L288.965 89.9224C290.079 89.3122 295.307 86.314 296.527 85.5977Z" fill="#DB6F5A"/>
<path d="M296.527 85.5977C295.28 86.3141 290.133 89.2856 288.992 89.949L285.754 91.8327L285.33 92.0715L278.882 95.8126C273.814 92.894 266.278 88.5428 261.21 85.5977C266.596 82.4934 273.522 78.4871 278.882 75.3828C283.923 78.3279 291.459 82.6791 296.527 85.5977Z" fill="#FFB6A8"/>
<path d="M265.457 102.684L262.379 100.906V104.833L265.457 106.611V102.684ZM262.565 101.198L265.298 102.79V106.319L262.565 104.727V101.198Z" fill="#413C7C"/>
<path d="M268.773 104.618L265.695 102.84V106.767L268.773 108.545V104.618ZM265.855 103.105L268.588 104.697V108.226L265.855 106.634V103.105Z" fill="#413C7C"/>
<path d="M272.09 106.532L269.012 104.754V108.681L272.09 110.459V106.532ZM269.171 105.046L271.904 106.638V110.167L269.171 108.575V105.046Z" fill="#413C7C"/>
<path d="M264.529 105.339V103.481L264.767 103.72L264.449 102.712L264.131 103.375L264.369 103.402V105.233L263.494 104.728V102.871L263.706 103.136L263.414 102.102L263.096 102.765L263.308 102.791V104.622L262.883 104.384V104.569L264.953 105.763V105.578L264.529 105.339Z" fill="#413C7C"/>
<path d="M267.871 105.946V104.752L266.651 104.035C266.677 104.699 266.491 105.813 267.181 106.211V106.848L266.704 106.582V106.768L267.818 107.405V107.219L267.34 106.954V106.317C267.632 106.45 267.871 106.291 267.871 105.946Z" fill="#413C7C"/>
<path d="M270.551 106.103C269.835 105.652 269.543 105.97 269.41 106.581C269.755 106.342 270.153 106.766 270.259 107.085C270.312 106.979 270.392 106.952 270.498 106.979C270.445 107.111 270.684 109.712 270.153 108.438L269.994 108.332C269.994 108.544 270.153 108.81 270.339 108.916C270.949 109.287 270.578 107.271 270.684 107.085C270.764 107.164 270.817 107.271 270.87 107.403C271.162 107.085 271.533 107.536 271.719 107.881C271.56 107.138 271.268 106.474 270.551 106.103Z" fill="#413C7C"/>
<path opacity="0.28" d="M290.664 88.9922V109.395C289.337 110.165 286.604 111.757 285.278 112.526V92.0965L285.729 91.8311L288.966 89.9473C288.966 89.9739 290.664 88.9922 290.664 88.9922Z" fill="#413C7C"/>
<path opacity="0.28" d="M290.664 88.993L288.992 89.9747L285.755 91.8585L285.331 92.0973L267.659 81.8824C268.985 81.113 271.718 79.5476 273.019 78.8047L290.664 88.993Z" fill="#413C7C"/>
<g opacity="0.28">
<path d="M270.407 80.1208L288.102 90.3359L287.969 90.5657L270.275 80.3506L270.407 80.1208Z" fill="#413C7C"/>
</g>
<path d="M68.9883 190.353V251.473C53.7764 242.696 31.2564 229.67 16.0445 220.893V159.812C22.6774 163.625 40.9873 174.189 47.3421 177.882H47.3818C47.3818 177.882 68.9486 190.353 68.9883 190.353Z" fill="#F98973"/>
<path d="M121.93 159.812V220.933C105.844 230.226 85.1113 242.22 68.9859 251.513V190.353L88.2093 179.233L89.5597 178.438L99.2906 172.839C102.667 170.972 118.276 161.917 121.93 159.812Z" fill="#DB6F5A"/>
<path d="M121.93 159.811C118.196 161.956 102.746 170.891 99.3303 172.837L89.5994 178.437L88.3682 179.152L69.0256 190.312C53.8137 181.535 31.2937 168.548 16.0818 159.771C32.2072 150.478 52.9399 138.485 69.0256 129.191C84.1581 138.008 106.718 151.034 121.93 159.811Z" fill="#FFB6A8"/>
<path d="M28.9531 210.959L19.7386 205.637V217.393L28.9531 222.715V210.959ZM20.2152 206.51L28.4368 211.237V221.802L20.2152 217.075V206.51Z" fill="#413C7C"/>
<path d="M38.8828 216.717L29.6683 211.395V223.151L38.8828 228.473V216.717ZM30.1449 212.229L38.3665 216.995V227.56L30.1449 222.833V212.229Z" fill="#413C7C"/>
<path d="M48.7734 222.439L39.5589 217.117V228.874L48.7734 234.196V222.439ZM40.0752 217.991L48.2968 222.717V233.282L40.0752 228.556V217.991Z" fill="#413C7C"/>
<path d="M26.1346 218.863V213.342L26.8098 214.057L25.8963 210.999L24.9828 212.985L25.658 213.064V218.545L23.0366 217.036V211.515L23.7118 212.27L22.7586 209.172L21.8451 211.197L22.5203 211.237V216.758L21.2096 216.003V216.599L27.4453 220.174V219.618L26.1346 218.863Z" fill="#413C7C"/>
<path d="M36.1406 220.732V217.117L32.4469 214.973C32.4866 216.959 31.9703 220.295 34.0356 221.526V223.393L32.6058 222.559V223.155L35.942 225.061V224.465L34.5122 223.631V221.764C35.4257 222.241 36.1406 221.764 36.1406 220.732Z" fill="#413C7C"/>
<path d="M44.1637 221.204C42.0587 219.893 41.1849 220.807 40.748 222.634C41.7409 221.879 42.9722 223.19 43.2502 224.143C43.4091 223.865 43.6871 223.786 43.9651 223.825V228.83C43.846 229.743 42.8133 228.75 42.9325 228.234L42.4161 227.956C42.4161 228.592 42.8927 229.386 43.4488 229.743C44.0048 230.061 44.4814 229.823 44.4814 229.148V224.262C44.68 224.501 44.8786 224.818 44.9978 225.176C45.8716 224.223 46.9837 225.613 47.5 226.606C47.1823 224.262 46.2687 222.316 44.1637 221.204Z" fill="#413C7C"/>
<path opacity="0.28" d="M104.375 169.941V231.062C100.443 233.325 92.2214 238.091 88.2099 240.395V179.274L89.5603 178.48L99.2911 172.88C99.3308 172.88 104.335 169.941 104.375 169.941Z" fill="#413C7C"/>
<path opacity="0.28" d="M104.375 169.939L99.3308 172.839L89.6 178.438L88.3687 179.153L35.4249 148.613C39.357 146.349 47.5786 141.623 51.4709 139.359L104.375 169.939Z" fill="#413C7C"/>
<g opacity="0.28">
<path d="M43.7789 143.467L96.7148 174.027L96.3375 174.681L43.4015 144.12L43.7789 143.467Z" fill="#413C7C"/>
</g>
<path d="M117.508 232.657V263.237C109.922 258.868 98.6419 252.355 91.0558 247.947V217.406C94.3921 219.313 103.527 224.595 106.705 226.461C106.705 226.421 117.508 232.657 117.508 232.657Z" fill="#F98973"/>
<path d="M144 217.363V247.904C135.937 252.55 125.611 258.547 117.548 263.194V232.614L127.16 227.054L127.835 226.656L132.68 223.837C134.349 222.923 142.173 218.436 144 217.363Z" fill="#DB6F5A"/>
<path d="M144 217.364C142.133 218.437 134.428 222.884 132.72 223.877L127.875 226.697L127.239 227.054L117.588 232.654C110.002 228.286 98.7217 221.773 91.1357 217.364C99.1984 212.718 109.565 206.721 117.588 202.074C125.134 206.483 136.414 212.996 144 217.364Z" fill="#FFB6A8"/>
<path d="M97.4883 242.942L92.881 240.281V246.159L97.4883 248.821V242.942ZM93.159 240.718L97.25 243.101V248.384L93.159 246.001V240.718Z" fill="#413C7C"/>
<path d="M102.453 245.837L97.8459 243.176V249.054L102.453 251.715V245.837ZM98.0842 243.573L102.175 245.956V251.239L98.0842 248.855V243.573Z" fill="#413C7C"/>
<path d="M107.414 248.7L102.807 246.039V251.917L107.414 254.578V248.7ZM103.045 246.476L107.136 248.859V254.141L103.045 251.758V246.476Z" fill="#413C7C"/>
<path d="M96.095 246.912V244.132L96.4525 244.489L95.9758 242.98L95.4992 243.973L95.8567 244.013V246.753L94.546 245.998V243.218L94.8638 243.615L94.4269 242.066L93.9502 243.059L94.268 243.099V245.84L93.6325 245.482V245.76L96.7305 247.547V247.269L96.095 246.912Z" fill="#413C7C"/>
<path d="M101.102 247.825V246.037L99.2746 244.965C99.3143 245.958 99.0362 247.626 100.069 248.222V249.175L99.354 248.778V249.056L101.022 250.009V249.731L100.307 249.334V248.381C100.744 248.579 101.102 248.341 101.102 247.825Z" fill="#413C7C"/>
<path d="M105.112 248.06C104.039 247.385 103.603 247.861 103.404 248.775C103.92 248.418 104.516 249.053 104.675 249.53C104.754 249.371 104.873 249.331 105.032 249.371C104.953 249.569 105.31 253.462 104.516 251.555L104.278 251.396C104.278 251.714 104.516 252.111 104.794 252.27C105.708 252.826 105.152 249.808 105.31 249.53C105.43 249.649 105.509 249.808 105.588 250.006C106.025 249.53 106.581 250.205 106.859 250.721C106.621 249.609 106.184 248.616 105.112 248.06Z" fill="#413C7C"/>
<path opacity="0.28" d="M135.223 222.445V252.986C133.237 254.137 129.146 256.52 127.16 257.672V227.092L127.835 226.695L132.681 223.875C132.681 223.915 135.223 222.445 135.223 222.445Z" fill="#413C7C"/>
<path opacity="0.28" d="M135.223 222.45L132.72 223.919L127.875 226.739L127.239 227.096L100.787 211.806C102.773 210.654 106.864 208.311 108.81 207.199L135.223 222.45Z" fill="#413C7C"/>
<g opacity="0.28">
<path d="M104.902 209.163L131.387 224.453L131.188 224.797L104.703 209.507L104.902 209.163Z" fill="#413C7C"/>
</g>
<path d="M267.186 125.577L269.043 125.582L268.919 172.199L267.062 172.194L267.186 125.577Z" fill="#6D6BCE"/>
<path d="M278.146 119.843L280.004 119.848L279.88 166.465L278.023 166.46L278.146 119.843Z" fill="#6D6BCE"/>
<path d="M290.432 113.796L292.289 113.801L292.165 160.418L290.308 160.413L290.432 113.796Z" fill="#6D6BCE"/>
<path d="M302.689 107.37L304.547 107.375L304.424 153.992L302.566 153.987L302.689 107.37Z" fill="#6D6BCE"/>
<path d="M314.713 100.632L316.57 100.637L316.447 147.254L314.59 147.249L314.713 100.632Z" fill="#6D6BCE"/>
<path d="M326.279 94.5615L328.137 94.5664L328.014 141.183L326.156 141.178L326.279 94.5615Z" fill="#6D6BCE"/>
<path d="M337.346 88.8271L339.203 88.832L339.08 135.449L337.222 135.444L337.346 88.8271Z" fill="#6D6BCE"/>
<path d="M348.889 82.9873L350.746 82.9922L350.623 129.609L348.765 129.604L348.889 82.9873Z" fill="#6D6BCE"/>
<path d="M360.854 76.5967L362.711 76.6016L362.588 123.219L360.73 123.214L360.854 76.5967Z" fill="#6D6BCE"/>
<path d="M368.576 71.4482L370.434 71.4531L370.31 118.07L368.453 118.065L368.576 71.4482Z" fill="#6D6BCE"/>
<path d="M256.885 134.838L369.922 73.6017C372.814 72.1425 372.92 67.632 370.028 66.0931L312.952 33.1402C311.572 32.3442 309.874 32.3708 308.521 33.2198L203.152 98.8868C201.852 99.6828 201.109 101.089 201.136 102.601C201.162 104.114 201.958 105.493 203.285 106.263C205.859 106.528 254.788 138.765 256.885 134.838ZM310.829 36.8282C310.856 36.8547 367.958 69.7546 367.931 69.8342C367.985 69.9138 254.815 131.15 254.789 131.123C254.762 131.07 205.355 102.628 205.381 102.575C205.328 102.495 310.829 36.8016 310.829 36.8282Z" fill="#6D6BCE"/>
<path d="M389 41.6552L377.802 58.4501L370.904 77.5798L364.111 78.8533L364.615 77.4736L372.443 56.2214L384.569 38.8428L385.126 38.0469L389 41.6552Z" fill="url(#paint10_linear_447_3183)"/>
<path d="M385.125 38.0482L384.568 38.8442L372.442 56.2228L364.614 77.475L364.11 78.8547L361.801 78.0056L370.106 55.3737L382.79 37.1992L385.125 38.0482Z" fill="url(#paint11_linear_447_3183)"/>
<path d="M243.6 129.6L245.457 129.605L245.333 174.047L243.476 174.042L243.6 129.6Z" fill="#6D6BCE"/>
<path d="M232.666 123.073L234.523 123.078L234.399 167.519L232.542 167.514L232.666 123.073Z" fill="#6D6BCE"/>
<path d="M222.08 116.76L223.938 116.766L223.814 161.207L221.956 161.202L222.08 116.76Z" fill="#6D6BCE"/>
<path d="M213.35 111.561L215.207 111.566L215.083 156.008L213.226 156.003L213.35 111.561Z" fill="#6D6BCE"/>
<path d="M203.424 104.448L205.281 104.453L205.157 148.894L203.3 148.889L203.424 104.448Z" fill="#6D6BCE"/>
<path d="M253.842 134.432L255.699 134.438L255.575 178.879L253.717 178.874L253.842 134.432Z" fill="#6D6BCE"/>
<path d="M206.495 107.031L206.389 140.488L247.863 164.42L247.969 130.963L206.495 107.031Z" fill="url(#paint12_linear_447_3183)"/>
<defs>
<linearGradient id="paint0_linear_447_3183" x1="326.457" y1="23.0351" x2="304.955" y2="22.7913" gradientUnits="userSpaceOnUse">
<stop stop-color="#413C7C"/>
<stop offset="1" stop-color="#6E6CCF"/>
</linearGradient>
<linearGradient id="paint1_linear_447_3183" x1="322.559" y1="22.6452" x2="302.553" y2="22.4384" gradientUnits="userSpaceOnUse">
<stop stop-color="#413C7C"/>
<stop offset="1" stop-color="#6E6CCF"/>
</linearGradient>
<linearGradient id="paint2_linear_447_3183" x1="267.071" y1="236.476" x2="280.471" y2="235.822" gradientUnits="userSpaceOnUse">
<stop stop-color="#413C7C"/>
<stop offset="0.5225" stop-color="#6D6BCE"/>
<stop offset="1" stop-color="#413C7C"/>
</linearGradient>
<linearGradient id="paint3_linear_447_3183" x1="332.642" y1="202.384" x2="346.043" y2="201.731" gradientUnits="userSpaceOnUse">
<stop stop-color="#413C7C"/>
<stop offset="0.5225" stop-color="#6D6BCE"/>
<stop offset="1" stop-color="#A7A9AC"/>
</linearGradient>
<linearGradient id="paint4_linear_447_3183" x1="219.647" y1="199.6" x2="233.047" y2="198.946" gradientUnits="userSpaceOnUse">
<stop stop-color="#413C7C"/>
<stop offset="0.5225" stop-color="#6D6BCE"/>
<stop offset="1" stop-color="#413C7C"/>
</linearGradient>
<linearGradient id="paint5_linear_447_3183" x1="283.978" y1="158.869" x2="297.378" y2="158.215" gradientUnits="userSpaceOnUse">
<stop stop-color="#413C7C"/>
<stop offset="0.5225" stop-color="#6D6BCE"/>
<stop offset="1" stop-color="#413C7C"/>
</linearGradient>
<linearGradient id="paint6_linear_447_3183" x1="350.18" y1="114.185" x2="275.43" y2="111.565" gradientUnits="userSpaceOnUse">
<stop stop-color="#FB8873"/>
<stop offset="1" stop-color="#FDF071"/>
</linearGradient>
<linearGradient id="paint7_linear_447_3183" x1="292.973" y1="128.044" x2="255.598" y2="126.734" gradientUnits="userSpaceOnUse">
<stop stop-color="#FB8873"/>
<stop offset="1" stop-color="#FDF071"/>
</linearGradient>
<linearGradient id="paint8_linear_447_3183" x1="281.191" y1="146.118" x2="243.816" y2="144.808" gradientUnits="userSpaceOnUse">
<stop stop-color="#FB8873"/>
<stop offset="1" stop-color="#FDF071"/>
</linearGradient>
<linearGradient id="paint9_linear_447_3183" x1="298.758" y1="107.005" x2="261.383" y2="105.695" gradientUnits="userSpaceOnUse">
<stop stop-color="#FB8873"/>
<stop offset="1" stop-color="#FDF071"/>
</linearGradient>
<linearGradient id="paint10_linear_447_3183" x1="389" y1="60.0469" x2="365.603" y2="59.7581" gradientUnits="userSpaceOnUse">
<stop stop-color="#413C7C"/>
<stop offset="1" stop-color="#6E6CCF"/>
</linearGradient>
<linearGradient id="paint11_linear_447_3183" x1="385.125" y1="59.6569" x2="363.199" y2="59.4085" gradientUnits="userSpaceOnUse">
<stop stop-color="#413C7C"/>
<stop offset="1" stop-color="#6E6CCF"/>
</linearGradient>
<linearGradient id="paint12_linear_447_3183" x1="227.179" y1="107.031" x2="227.179" y2="164.42" gradientUnits="userSpaceOnUse">
<stop stop-color="#F98973"/>
<stop offset="1" stop-color="#806FEA"/>
</linearGradient>
</defs>
</svg>
