<svg width="183" height="184" viewBox="0 0 183 184" fill="none" xmlns="http://www.w3.org/2000/svg">
<g clip-path="url(#clip0_1850_18719)">
<path d="M161.084 135.356C180.093 116.347 180.093 85.5278 161.084 66.5189C142.075 47.51 111.256 47.51 92.2468 66.5189C73.2379 85.5278 73.2379 116.347 92.2468 135.356C111.256 154.365 142.075 154.365 161.084 135.356Z" fill="#6D6BCE"/>
<path opacity="0.3" d="M165.624 71.6367C172.338 86.9108 166.967 108.563 151.105 124.928C135.663 140.79 114.934 146.832 99.6602 141.461C107.381 146.665 116.697 149.686 126.768 149.686C153.707 149.686 175.443 127.866 175.443 101.01C175.443 89.9321 171.751 79.7773 165.624 71.6367Z" fill="#413C7C"/>
<path d="M111.578 144.063C106.626 144.063 101.927 143.14 97.6465 141.294C97.3948 141.21 97.3108 140.958 97.3948 140.707C97.4787 140.455 97.7305 140.371 97.9822 140.455C113.592 147.253 135.412 140.79 151.022 124.761C166.884 108.48 172.59 86.24 164.953 70.7141C164.869 70.5463 164.953 70.2945 165.121 70.1267C165.289 70.0427 165.541 70.1267 165.709 70.2945C173.514 86.0722 167.807 108.732 151.693 125.265C140.028 137.434 125.006 144.063 111.578 144.063Z" fill="#413C7C"/>
<path d="M98.9066 119.89C91.9409 119.89 85.6466 117.708 80.863 113.093C79.8559 112.169 79.0167 111.078 78.1774 109.987C78.0096 109.82 78.0935 109.568 78.2614 109.4C78.4292 109.232 78.681 109.316 78.8488 109.484C79.6041 110.575 80.4434 111.582 81.3665 112.421C92.948 123.667 114.768 120.142 129.958 104.532C145.149 88.9225 148.086 67.0184 136.504 55.7727C135.497 54.7656 134.406 53.9263 133.147 53.0871C132.98 52.9193 132.896 52.6675 133.064 52.4996C133.231 52.3318 133.483 52.2479 133.651 52.4157C134.91 53.2549 136.085 54.1781 137.092 55.1852C149.009 66.7667 146.072 89.1743 130.546 105.12C121.314 114.771 109.481 119.89 98.9066 119.89Z" fill="#413C7C"/>
<path d="M98.9042 93.5384C95.7991 93.5384 93.1135 92.5313 91.0993 90.6011C85.98 85.6496 87.2388 75.9984 93.8688 69.2005C97.7293 65.2561 102.765 62.9062 107.381 62.9062C110.486 62.9062 113.171 63.9133 115.185 65.8436C117.703 68.2774 118.794 71.8861 118.207 75.9144C117.703 79.9428 115.605 83.9711 112.416 87.2441C108.555 91.1886 103.52 93.5384 98.9042 93.5384ZM107.381 63.7455C102.933 63.7455 98.1489 66.0114 94.4563 69.788C88.162 76.2501 86.9031 85.3139 91.6868 90.0136C93.5331 91.776 95.9669 92.6992 98.9042 92.6992C103.352 92.6992 108.136 90.4332 111.828 86.6567C114.934 83.4676 116.864 79.6071 117.367 75.8305C117.871 72.0539 116.864 68.697 114.598 66.515C112.752 64.6687 110.234 63.7455 107.381 63.7455Z" fill="#413C7C"/>
<path opacity="0.3" d="M112.072 86.9217C118.568 80.2438 119.821 70.9264 114.871 66.1108C109.921 61.2951 100.642 62.8048 94.1453 69.4828C87.6491 76.1607 86.3958 85.4781 91.3461 90.2937C96.2964 95.1093 105.576 93.5996 112.072 86.9217Z" fill="#A293FC"/>
<path d="M111.328 143.806C106.376 143.806 101.677 142.883 97.3965 141.036C97.1447 140.952 97.0608 140.7 97.1448 140.449C97.2287 140.197 97.4804 140.113 97.7322 140.197C113.342 146.995 135.162 140.533 150.772 124.503C166.634 108.222 172.34 85.9822 164.703 70.4563C164.619 70.2885 164.703 70.0367 164.871 69.8689C165.039 69.7849 165.291 69.8689 165.459 70.0367C173.264 85.8144 167.557 108.474 151.443 125.007C139.778 137.092 124.84 143.806 111.328 143.806Z" fill="#A293FC"/>
<path d="M121.143 149.604C116.527 149.604 112.079 148.765 108.135 147.002C107.883 146.918 107.799 146.667 107.883 146.415C107.967 146.163 108.219 146.079 108.471 146.163C123.073 152.541 143.551 146.499 158.153 131.476C173.008 116.202 178.379 95.3892 171.162 80.8704C171.078 80.7025 171.162 80.4508 171.329 80.2829C171.497 80.199 171.749 80.2829 171.917 80.4508C179.302 95.3053 173.847 116.454 158.741 131.98C147.831 143.31 133.732 149.604 121.143 149.604Z" fill="#413C7C"/>
<path d="M106.207 133.319C98.2344 133.319 90.9331 130.801 85.562 125.514C84.4709 124.423 83.4639 123.248 82.5407 121.989C82.3729 121.821 82.4568 121.57 82.6246 121.402C82.7925 121.234 83.0442 121.318 83.2121 121.486C84.0513 122.744 85.0584 123.835 86.1494 124.926C99.4933 137.851 124.503 133.822 142.043 115.863C150.519 107.135 155.974 96.4763 157.401 85.9019C158.827 75.3275 156.058 66.0959 149.596 59.8017C148.421 58.6267 147.162 57.6196 145.735 56.6965C145.567 56.5286 145.484 56.2769 145.651 56.109C145.819 55.9412 146.071 55.8572 146.239 56.0251C147.666 56.9482 149.008 58.0393 150.183 59.2142C156.813 65.6763 159.667 75.1597 158.24 86.0698C156.813 96.8959 151.274 107.722 142.63 116.534C131.888 127.444 118.292 133.319 106.207 133.319Z" fill="#413C7C"/>
<path d="M99.9096 83.9653C98.5668 83.9653 97.4758 83.5457 96.6366 82.7065C94.4546 80.6084 94.9581 76.58 97.7276 73.7266C99.3221 72.1321 101.42 71.125 103.35 71.125C104.693 71.125 105.784 71.5446 106.623 72.3839C107.715 73.3909 108.134 74.9016 107.882 76.664C107.631 78.3424 106.791 80.0209 105.449 81.3637C104.022 83.0422 101.924 83.9653 99.9096 83.9653ZM103.35 71.9642C101.672 71.9642 99.7418 72.8035 98.3151 74.3141C95.8813 76.8318 95.3777 80.3566 97.2241 82.119C97.8954 82.7904 98.8186 83.1261 99.9096 83.1261C101.588 83.1261 103.518 82.2869 104.945 80.7762C106.12 79.5174 106.875 78.0067 107.127 76.58C107.295 75.1533 106.959 73.8945 106.12 73.0552C105.449 72.3839 104.441 71.9642 103.35 71.9642Z" fill="#413C7C"/>
<path d="M95.9693 108.06C90.4303 108.06 85.311 106.297 81.5344 102.605C80.1916 101.346 79.1006 99.8352 78.1775 98.2407C78.0935 98.0728 78.1775 97.8211 78.3453 97.6532C78.5132 97.5693 78.7649 97.6532 78.9328 97.8211C79.772 99.4156 80.863 100.758 82.1219 102.017C91.2696 110.913 108.558 108.144 120.643 95.723C126.518 89.6805 130.294 82.3791 131.217 74.9938C132.224 67.6924 130.294 61.3142 125.846 57.0341C124.335 55.5235 122.489 54.3486 120.475 53.4254C120.223 53.3415 120.139 53.0897 120.223 52.8379C120.307 52.5862 120.559 52.5022 120.811 52.5862C122.909 53.5093 124.839 54.7682 126.434 56.3627C131.049 60.8946 133.064 67.5246 132.057 75.0777C131.049 82.5469 127.189 90.1001 121.23 96.2265C113.845 104.031 104.362 108.06 95.9693 108.06Z" fill="#413C7C"/>
<path d="M120.557 149.092C115.941 149.092 111.493 148.253 107.549 146.491C107.297 146.407 107.213 146.155 107.297 145.903C107.381 145.651 107.633 145.567 107.885 145.651C111.829 147.33 116.109 148.169 120.641 148.169C133.062 148.169 146.825 141.959 157.567 130.965C172.422 115.691 177.793 94.8775 170.576 80.3587C170.492 80.1908 170.576 79.9391 170.743 79.7712C170.911 79.6873 171.163 79.7712 171.331 79.9391C178.716 94.7936 173.261 115.942 158.155 131.468C147.245 142.882 133.146 149.092 120.557 149.092Z" fill="#6D6BCE"/>
<path d="M98.6547 119.644C91.5212 119.644 85.3108 117.294 80.695 112.846C79.6879 111.923 78.8487 110.832 78.0095 109.741C77.8416 109.573 77.9255 109.322 78.0934 109.154C78.2612 108.986 78.513 109.07 78.6809 109.238C79.4362 110.329 80.2754 111.336 81.1986 112.175C86.8215 117.63 94.8781 119.812 104.026 118.302C113.257 116.791 122.321 111.839 129.707 104.286C144.897 88.6764 147.834 66.7723 136.253 55.5266C135.245 54.5195 134.154 53.6802 132.896 52.841C132.728 52.6732 132.644 52.4214 132.812 52.2535C132.979 52.0857 133.231 52.0018 133.399 52.1696C134.658 53.0089 135.833 53.932 136.84 54.9391C148.757 66.5206 145.82 88.9282 130.294 104.874C122.825 112.595 113.509 117.63 104.11 119.141C102.347 119.476 100.501 119.644 98.6547 119.644Z" fill="#A293FC"/>
<path d="M105.621 132.897C97.6485 132.897 90.3471 130.379 84.976 125.092C83.885 124.001 82.8779 122.826 81.9548 121.567C81.7869 121.399 81.8709 121.148 82.0387 120.98C82.2065 120.812 82.4583 120.896 82.6262 121.064C83.4654 122.323 84.4725 123.414 85.5635 124.505C98.9074 137.429 123.917 133.401 141.457 115.441C158.913 97.4811 162.354 72.304 149.01 59.3798C147.835 58.2048 146.576 57.1978 145.149 56.2746C144.981 56.1068 144.898 55.855 145.065 55.6871C145.233 55.5193 145.485 55.4354 145.653 55.6032C147.08 56.5264 148.422 57.6174 149.597 58.7923C163.277 72.0523 159.92 97.8168 142.044 116.112C131.302 127.022 117.706 132.897 105.621 132.897Z" fill="#A293FC"/>
<path d="M98.6536 93.2103C95.5484 93.2103 92.8629 92.2032 90.8487 90.273C88.331 87.8392 87.24 84.2305 87.8275 80.2021C88.331 76.1738 90.4291 72.1454 93.6182 68.8724C97.4787 64.928 102.514 62.5781 107.13 62.5781C110.235 62.5781 112.921 63.5852 114.935 65.5155C117.453 67.9492 118.544 71.558 117.956 75.5863C117.453 79.6146 115.354 83.643 112.165 86.916C108.389 90.8604 103.269 93.2103 98.6536 93.2103ZM107.13 63.4174C102.682 63.4174 97.8983 65.6833 94.2057 69.4599C91.1005 72.649 89.1702 76.5095 88.6667 80.286C88.1632 84.0626 89.1702 87.4196 91.4362 89.6016C93.2825 91.364 95.7163 92.2871 98.6536 92.2871C103.102 92.2871 107.885 90.0212 111.578 86.2446C114.683 83.0555 116.613 79.195 117.117 75.4185C117.62 71.6419 116.613 68.2849 114.347 66.1029C112.501 64.4245 110.067 63.4174 107.13 63.4174Z" fill="#A293FC"/>
<path d="M99.3254 83.5513C97.9826 83.5513 96.8916 83.1316 96.0523 82.2924C94.9613 81.2853 94.5417 79.7747 94.7935 78.0123C95.0452 76.3338 95.8845 74.6554 97.2273 73.3126C98.8218 71.718 100.92 70.7109 102.85 70.7109C104.193 70.7109 105.284 71.1306 106.123 71.9698C108.305 74.0679 107.802 78.0962 105.032 80.9496C103.354 82.5442 101.256 83.5513 99.3254 83.5513ZM102.766 71.5502C101.088 71.5502 99.1575 72.3894 97.7308 73.9C96.5559 75.1589 95.8006 76.6695 95.5488 78.0962C95.381 79.5229 95.7166 80.7818 96.5559 81.621C97.2273 82.2924 98.1504 82.6281 99.2414 82.6281C100.92 82.6281 102.85 81.7889 104.277 80.2782C106.711 77.7605 107.214 74.2357 105.368 72.4733C104.78 71.8859 103.857 71.5502 102.766 71.5502Z" fill="#A293FC"/>
<path d="M95.3815 107.634C89.6746 107.634 84.7231 105.788 81.0305 102.179C79.6877 100.92 78.5967 99.4094 77.6735 97.8149C77.5896 97.647 77.6736 97.3953 77.8414 97.2274C78.0093 97.1435 78.261 97.2274 78.4289 97.3953C79.2681 98.9898 80.3591 100.333 81.618 101.591C86.0659 105.872 92.4441 107.634 99.7455 106.459C107.047 105.284 114.264 101.34 120.139 95.2972C132.224 82.8765 134.574 65.5882 125.342 56.6083C123.832 55.0977 121.985 53.9228 119.971 52.9996C119.719 52.9157 119.635 52.6639 119.719 52.4121C119.803 52.1604 120.055 52.0765 120.307 52.1604C122.405 53.0835 124.335 54.3424 125.93 55.9369C135.413 65.1686 133.147 83.0443 120.726 95.8007C114.768 101.927 107.299 105.955 99.8294 107.214C98.3188 107.466 96.8082 107.634 95.3815 107.634Z" fill="#A293FC"/>
<path d="M32.2031 123.835C32.2031 127.187 33.3691 129.519 35.4095 130.685C35.4824 130.758 42.4781 134.693 42.5509 134.62C44.9557 133.382 46.486 134.693 50.5668 132.289C58.0726 127.989 64.121 118.37 64.121 110.937C64.121 107.294 63.9024 107.731 62.5907 105.034C62.5178 104.889 55.1577 100.735 55.012 100.662C52.6072 99.8606 49.4009 100.371 45.8302 102.411C38.2515 106.783 32.2031 116.33 32.2031 123.835Z" fill="#413C7C"/>
<path d="M60.0209 125.665C65.9963 117.72 67.1898 108.534 62.6868 105.147C58.1838 101.761 49.6893 105.455 43.7139 113.4C37.7385 121.345 36.545 130.531 41.048 133.918C45.5511 137.304 54.0455 133.61 60.0209 125.665Z" fill="#1F1E58"/>
<path d="M58.8174 124.836C63.8977 118.081 64.9132 110.272 61.0856 107.393C57.258 104.514 50.0368 107.656 44.9565 114.41C39.8762 121.165 38.8607 128.974 42.6883 131.853C46.5158 134.732 53.7371 131.59 58.8174 124.836Z" fill="#6D6BCE"/>
<path d="M58.801 106.414C61.2787 107.143 62.809 109.329 62.809 112.827C62.809 119.167 57.6351 127.328 51.2953 130.972C48.7447 132.429 46.34 133.012 44.4453 132.648C46.4857 133.231 49.1091 132.794 51.9511 131.118C58.2909 127.474 63.4648 119.312 63.4648 112.973C63.392 109.183 61.5702 106.924 58.801 106.414Z" fill="#1F1E58"/>
<path d="M39.4883 127.835C39.4883 131.187 40.6542 133.519 42.6946 134.685C42.7675 134.758 49.7632 138.693 49.8361 138.62C52.2408 137.382 53.7712 138.693 57.852 136.289C65.3578 131.989 71.4061 122.37 71.4061 114.937C71.4061 111.294 71.1875 111.731 69.8758 109.034C69.8029 108.889 62.4429 104.735 62.2972 104.662C59.8924 103.861 56.686 104.371 53.1153 106.411C45.5366 110.783 39.4883 120.33 39.4883 127.835Z" fill="#413C7C"/>
<path d="M67.3178 129.677C73.2931 121.732 74.4867 112.546 69.9837 109.159C65.4806 105.772 56.9862 109.467 51.0108 117.412C45.0354 125.356 43.8418 134.542 48.3449 137.929C52.8479 141.316 61.3424 137.621 67.3178 129.677Z" fill="#1F1E58"/>
<path d="M66.1612 128.793C71.2414 122.038 72.257 114.229 68.4294 111.35C64.6018 108.471 57.3805 111.613 52.3002 118.367C47.22 125.122 46.2044 132.931 50.032 135.81C53.8596 138.689 61.0809 135.547 66.1612 128.793Z" fill="#6D6BCE"/>
<path d="M66.0862 110.418C68.5638 111.147 70.0941 113.333 70.0941 116.831C70.0941 123.171 64.9203 131.332 58.5804 134.976C56.0299 136.433 53.6251 137.016 51.7305 136.652C53.7709 137.235 56.3943 136.798 59.2363 135.122C65.5761 131.478 70.75 123.316 70.75 116.976C70.6771 113.187 68.8553 110.928 66.0862 110.418Z" fill="#1F1E58"/>
<path d="M55.4453 125.651C55.4453 126.525 55.7368 127.181 56.2469 127.472C56.2469 127.472 85.9057 143.941 85.9786 143.941C86.6344 144.306 86.9988 143.941 88.0919 143.286C90.0594 142.12 91.6626 139.642 91.6626 137.674C91.6626 136.727 91.9541 136.363 91.2982 136.144C91.2254 136.144 61.4937 119.602 61.4208 119.602C60.765 119.384 59.9634 119.529 59.016 120.04C57.0485 121.205 55.4453 123.683 55.4453 125.651Z" fill="url(#paint0_linear_1850_18719)"/>
<path d="M85.1055 142.118C85.1055 144.086 86.7086 144.742 88.6762 143.648C90.6437 142.483 92.2469 140.005 92.2469 138.037C92.2469 136.07 90.6437 135.414 88.6762 136.507C86.7086 137.6 85.1055 140.151 85.1055 142.118Z" fill="#6D6BCE"/>
<path d="M77.6758 149.988C77.6758 153.34 78.8417 155.672 80.8822 156.838C80.955 156.911 87.9507 160.846 88.0236 160.773C90.4283 159.534 91.9587 160.846 96.0395 158.441C103.545 154.141 109.594 144.522 109.594 137.089C109.594 133.446 109.375 133.883 108.063 131.187C107.99 131.041 100.63 126.887 100.485 126.815C98.0799 126.013 94.8735 126.523 91.3028 128.563C83.7241 132.936 77.6758 142.555 77.6758 149.988Z" fill="#413C7C"/>
<path d="M105.533 151.899C111.508 143.955 112.702 134.769 108.199 131.382C103.695 127.995 95.201 131.69 89.2256 139.634C83.2503 147.579 82.0567 156.765 86.5597 160.152C91.0628 163.539 99.5572 159.844 105.533 151.899Z" fill="#1F1E58"/>
<path d="M104.376 151.015C109.456 144.261 110.472 136.451 106.644 133.572C102.817 130.694 95.5954 133.836 90.5151 140.59C85.4348 147.345 84.4193 155.154 88.2469 158.033C92.0744 160.912 99.2957 157.77 104.376 151.015Z" fill="#6D6BCE"/>
<path d="M104.274 132.645C106.751 133.373 108.282 135.559 108.282 139.057C108.282 145.397 103.108 153.559 96.7679 157.202C94.2174 158.66 91.8126 159.243 89.918 158.878C91.9584 159.461 94.5818 159.024 97.4238 157.348C103.764 153.704 108.938 145.543 108.938 139.203C108.938 135.414 107.116 133.082 104.274 132.645Z" fill="#1F1E58"/>
<path d="M93.6367 147.881C93.6367 148.756 93.9282 149.411 94.4383 149.703C94.4383 149.703 97.7175 151.525 97.7175 151.598C98.3734 151.962 98.7377 151.598 99.8308 150.942C101.798 149.776 103.402 147.298 103.402 145.331C103.402 144.383 103.693 144.019 103.037 143.8C102.964 143.8 99.6122 141.906 99.5393 141.833C98.8835 141.614 98.0819 141.76 97.1346 142.27C95.2399 143.363 93.6367 145.914 93.6367 147.881Z" fill="url(#paint1_linear_1850_18719)"/>
<path d="M96.9141 149.704C96.9141 151.672 98.5172 152.327 100.485 151.234C102.452 150.068 104.055 147.591 104.055 145.623C104.055 143.656 102.452 143 100.485 144.093C98.5172 145.186 96.9141 147.737 96.9141 149.704Z" fill="#6D6BCE"/>
<path d="M85.1797 154.437C85.1797 157.789 86.3456 160.121 88.386 161.287C88.4589 161.36 95.4546 165.295 95.5275 165.222C97.9322 163.983 99.4625 165.295 103.543 162.89C111.049 158.591 117.098 148.972 117.098 141.539C117.098 137.895 116.879 138.332 115.567 135.636C115.494 135.49 108.134 131.337 107.989 131.264C105.584 130.462 102.377 130.972 98.8067 133.013C91.228 137.385 85.1797 146.931 85.1797 154.437Z" fill="#413C7C"/>
<path d="M113.013 156.282C118.988 148.338 120.182 139.152 115.679 135.765C111.176 132.378 102.682 136.073 96.7061 144.017C90.7307 151.962 89.5372 161.148 94.0402 164.535C98.5432 167.922 107.038 164.227 113.013 156.282Z" fill="#1F1E58"/>
<path d="M111.856 155.398C116.937 148.644 117.952 140.834 114.125 137.955C110.297 135.076 103.076 138.218 97.9956 144.973C92.9153 151.727 91.8997 159.537 95.7273 162.416C99.5549 165.295 106.776 162.153 111.856 155.398Z" fill="#6D6BCE"/>
<path d="M111.778 137.023C114.255 137.752 115.786 139.938 115.786 143.436C115.786 149.776 110.612 157.938 104.272 161.581C101.721 163.039 99.3165 163.622 97.4219 163.257C99.4623 163.84 102.086 163.403 104.928 161.727C111.268 158.083 116.441 149.922 116.441 143.582C116.369 139.793 114.547 137.534 111.778 137.023Z" fill="#1F1E58"/>
<path d="M101.141 152.26C101.141 153.134 101.432 153.79 101.942 154.082C101.942 154.082 105.221 155.904 105.221 155.976C105.877 156.341 106.242 155.976 107.335 155.321C109.302 154.155 110.905 151.677 110.905 149.71C110.905 148.762 111.197 148.398 110.541 148.179C110.468 148.179 107.116 146.285 107.043 146.212C106.387 145.993 105.586 146.139 104.638 146.649C102.744 147.815 101.141 150.292 101.141 152.26Z" fill="url(#paint2_linear_1850_18719)"/>
<path d="M104.418 154.083C104.418 156.051 106.021 156.706 107.989 155.613C109.956 154.447 111.559 151.97 111.559 150.002C111.559 148.035 109.956 147.379 107.989 148.472C105.948 149.638 104.418 152.115 104.418 154.083Z" fill="#413C7C"/>
<path d="M27.175 150.36L34.8265 143.656L36.7941 133.745L31.2558 130.539L23.6771 137.316L21.6367 147.227L27.175 150.36Z" fill="#3ECFCD"/>
<path d="M27.175 150.36L34.8265 143.656L23.6771 137.316L21.6367 147.227L27.175 150.36Z" fill="#0BA19F"/>
<path d="M32.714 153.563L40.3656 146.859L42.406 136.876L36.7949 133.742L29.2162 140.446L27.1758 150.357L32.714 153.563Z" fill="#0FBAB8"/>
<path d="M32.4922 144.964C32.4922 145.547 32.7108 145.984 33.0752 146.202L53.6979 157.643C54.1351 157.862 54.4266 157.643 55.1553 157.206C56.5399 156.404 57.6329 154.655 57.6329 153.271C57.6329 152.615 57.8516 152.396 57.4143 152.178C57.4143 152.178 36.7188 140.737 36.6459 140.664C36.2087 140.518 35.6257 140.591 34.9698 140.956C33.5853 141.903 32.4922 143.652 32.4922 144.964Z" fill="url(#paint3_linear_1850_18719)"/>
<path d="M53.1133 156.405C53.1133 157.789 54.2064 158.227 55.5909 157.425C56.9755 156.623 58.0686 154.875 58.0686 153.49C58.0686 152.105 56.9755 151.668 55.5909 152.47C54.2064 153.271 53.1133 155.02 53.1133 156.405Z" fill="#6D6BCE"/>
<path d="M53.6984 165.876L61.35 159.172L63.3904 149.261L57.7792 146.055L50.2006 152.832L48.1602 162.742L53.6984 165.876Z" fill="#3ECFCD"/>
<path d="M53.6984 165.876L61.35 159.172L50.2006 152.832L48.1602 162.743L53.6984 165.876Z" fill="#0BA19F"/>
<path d="M59.3104 169.079L66.889 162.302L68.9294 152.391L63.3912 149.258L55.7396 155.962L53.6992 165.873L59.3104 169.079Z" fill="#0FBAB8"/>
<path d="M59.0195 160.414C59.0195 160.997 59.2381 161.434 59.6025 161.653L61.8615 162.965C62.2988 163.183 62.5902 162.965 63.319 162.527C64.7035 161.726 65.7966 159.977 65.7966 158.592C65.7966 157.936 66.0152 157.718 65.578 157.499L63.1732 156.188C62.736 156.042 62.153 156.115 61.4972 156.479C60.1126 157.281 59.0195 159.03 59.0195 160.414Z" fill="url(#paint4_linear_1850_18719)"/>
<path d="M61.2773 161.655C61.2773 163.039 62.3704 163.477 63.755 162.675C65.1396 161.873 66.2326 160.125 66.2326 158.74C66.2326 157.355 65.1396 156.918 63.755 157.72C62.3704 158.594 61.2773 160.343 61.2773 161.655Z" fill="#6D6BCE"/>
<path d="M9.61111 160.704L17.1898 154L19.2302 144.089L13.6919 140.883L6.0404 147.66L4 157.57L9.61111 160.704Z" fill="#3ECFCD"/>
<path d="M9.61111 160.704L17.1898 154L6.0404 147.66L4 157.571L9.61111 160.704Z" fill="#0BA19F"/>
<path d="M15.1502 163.907L22.7289 157.13L24.7693 147.219L19.231 144.086L11.5795 150.79L9.53906 160.701L15.1502 163.907Z" fill="#0FBAB8"/>
<path d="M14.9297 155.311C14.9297 155.894 15.1483 156.331 15.5127 156.55L36.1354 167.991C36.5726 168.21 36.8641 167.991 37.5928 167.554C38.9774 166.752 40.0704 165.003 40.0704 163.619C40.0704 162.963 40.2891 162.744 39.8518 162.526C39.8518 162.526 19.1562 151.085 19.0834 151.012C18.6461 150.866 18.0632 150.939 17.4073 151.303C16.0228 152.251 14.9297 154 14.9297 155.311Z" fill="url(#paint5_linear_1850_18719)"/>
<path d="M35.4805 166.753C35.4805 168.137 36.5735 168.574 37.9581 167.773C39.3427 166.971 40.4358 165.222 40.4358 163.838C40.4358 162.453 39.3427 162.016 37.9581 162.817C36.5735 163.619 35.4805 165.368 35.4805 166.753Z" fill="#6D6BCE"/>
<path d="M36.1359 176.223L43.7874 169.519L45.755 159.609L40.2167 156.402L32.6381 163.179L30.5977 173.09L36.1359 176.223Z" fill="#3ECFCD"/>
<path d="M36.1359 176.224L43.7874 169.52L32.6381 163.18L30.5977 173.09L36.1359 176.224Z" fill="#0BA19F"/>
<path d="M41.675 179.427L49.3265 172.65L51.3669 162.739L45.7558 159.605L38.1771 166.31L36.1367 176.22L41.675 179.427Z" fill="#0FBAB8"/>
<path d="M41.457 170.762C41.457 171.345 41.6756 171.782 42.04 172.001L44.299 173.312C44.7363 173.531 45.0277 173.312 45.7565 172.875C47.141 172.073 48.2341 170.325 48.2341 168.94C48.2341 168.284 48.4527 168.066 48.0155 167.847L45.6107 166.535C45.1735 166.389 44.5905 166.462 43.9347 166.827C42.5501 167.628 41.457 169.377 41.457 170.762Z" fill="url(#paint6_linear_1850_18719)"/>
<path d="M43.7148 172.003C43.7148 173.387 44.8079 173.824 46.1925 173.023C47.577 172.221 48.6701 170.472 48.6701 169.088C48.6701 167.703 47.577 167.266 46.1925 168.067C44.8079 168.942 43.7148 170.691 43.7148 172.003Z" fill="#6D6BCE"/>
<path d="M172.225 153.21C177.717 147.718 177.717 138.813 172.225 133.321C166.733 127.828 157.828 127.828 152.335 133.321C146.843 138.813 146.843 147.718 152.335 153.21C157.828 158.703 166.733 158.703 172.225 153.21Z" fill="#F98973"/>
<path d="M173.538 134.898C175.505 139.271 173.902 145.538 169.311 150.274C164.866 154.865 158.89 156.614 154.445 155.011C156.704 156.541 159.328 157.343 162.243 157.343C169.967 157.343 176.307 151.076 176.307 143.279C176.307 140.145 175.287 137.23 173.538 134.898Z" fill="#EE6E55"/>
<path d="M158.088 139.274C156.194 141.169 153.57 141.606 152.113 140.222C150.655 138.837 151.02 136.141 152.914 134.246C154.809 132.351 157.432 131.914 158.89 133.299C160.274 134.683 159.91 137.38 158.088 139.274Z" fill="#FDA492"/>
</g>
<defs>
<linearGradient id="paint0_linear_1850_18719" x1="89.748" y1="138.938" x2="59.0983" y2="123.863" gradientUnits="userSpaceOnUse">
<stop stop-color="#6E6CCF"/>
<stop offset="1" stop-color="#FB8873"/>
</linearGradient>
<linearGradient id="paint1_linear_1850_18719" x1="93.6367" y1="147.13" x2="102.874" y2="146.946" gradientUnits="userSpaceOnUse">
<stop stop-color="#6E6CCF"/>
<stop offset="1" stop-color="#FB8873"/>
</linearGradient>
<linearGradient id="paint2_linear_1850_18719" x1="109.753" y1="151.812" x2="103.096" y2="147.663" gradientUnits="userSpaceOnUse">
<stop stop-color="#6E6CCF"/>
<stop offset="1" stop-color="#FB8873"/>
</linearGradient>
<linearGradient id="paint3_linear_1850_18719" x1="54.249" y1="152.563" x2="36.1107" y2="143.213" gradientUnits="userSpaceOnUse">
<stop stop-color="#6E6CCF"/>
<stop offset="0.755208" stop-color="#FB8873"/>
</linearGradient>
<linearGradient id="paint4_linear_1850_18719" x1="65.126" y1="160.562" x2="59.1062" y2="156.678" gradientUnits="userSpaceOnUse">
<stop stop-color="#6E6CCF"/>
<stop offset="1" stop-color="#FB8873"/>
</linearGradient>
<linearGradient id="paint5_linear_1850_18719" x1="39.499" y1="164.188" x2="16.7343" y2="153.845" gradientUnits="userSpaceOnUse">
<stop stop-color="#6E6CCF"/>
<stop offset="1" stop-color="#FB8873"/>
</linearGradient>
<linearGradient id="paint6_linear_1850_18719" x1="48.2891" y1="170.812" x2="42.581" y2="167.185" gradientUnits="userSpaceOnUse">
<stop stop-color="#6E6CCF"/>
<stop offset="1" stop-color="#FB8873"/>
</linearGradient>
<clipPath id="clip0_1850_18719">
<rect width="183" height="183" fill="white" transform="translate(0 0.1875)"/>
</clipPath>
</defs>
</svg>
