<svg width="389" height="258" viewBox="0 0 389 258" fill="none" xmlns="http://www.w3.org/2000/svg">
<path d="M292.848 104.341L299.448 110.441C301.648 108.041 303.448 104.741 304.148 101.441L299.448 97.1406L292.848 104.341Z" fill="#BA5D5D"/>
<path d="M154.449 56.2391L222.149 16.5391L323.249 76.3391L255.549 116.039L154.449 56.2391Z" fill="url(#paint0_linear_465_3047)"/>
<path d="M255.248 116.038L254.548 190.438L154.148 130.638V56.2383L255.248 116.038Z" fill="url(#paint1_linear_465_3047)"/>
<path d="M255.248 116.038L254.548 190.438L154.148 130.638V56.2383L255.248 116.038Z" fill="black" fill-opacity="0.2"/>
<path d="M255.547 116.04L323.247 76.3398L322.247 150.74L254.547 190.44L255.547 116.04Z" fill="url(#paint2_linear_465_3047)"/>
<path d="M255.547 116.04L323.247 76.3398L322.247 150.74L254.547 190.44L255.547 116.04Z" fill="white" fill-opacity="0.2"/>
<path d="M199.948 110.241L199.848 121.341L209.548 126.841L209.448 135.041L199.848 129.441V140.541L192.748 136.441L192.848 125.341L183.148 119.841V111.641L192.848 117.241V106.141L199.948 110.241Z" fill="#FDF7E1"/>
<path d="M166.25 49.4406L169.25 47.6406L270.75 107.141L267.75 108.941L166.25 49.4406Z" fill="#D6D4E6"/>
<path d="M267.747 108.941L270.747 107.141L269.547 181.341L266.547 183.141L267.747 108.941Z" fill="#D6D4E6"/>
<path d="M321.948 131.041L292.848 104.341L299.448 97.1406L326.348 121.741L321.948 131.041Z" fill="#F98973"/>
<path d="M322.75 111.84L326.35 121.74L322.75 118.44V111.84Z" fill="#BA5D5D"/>
<path d="M300.148 91.1375L300.848 89.5375L297.648 88.6375C297.248 88.4375 296.048 88.4375 296.048 88.4375C294.848 88.4375 293.448 88.9375 291.948 89.9375C287.548 93.0375 284.348 99.9375 284.848 105.338C285.148 108.038 286.248 109.838 287.948 110.538L291.548 111.637L292.048 110.338C292.648 110.138 293.248 109.738 293.848 109.338C298.248 106.238 301.448 99.2375 300.948 93.9375C300.748 92.8375 300.448 91.9375 300.148 91.1375Z" fill="#BA5D5D"/>
<path d="M295.05 90.7376C290.65 93.8376 287.45 100.738 287.95 106.138C288.45 111.538 292.45 113.338 296.95 110.238C301.35 107.138 304.55 100.138 304.05 94.8376C303.45 89.4376 299.45 87.6376 295.05 90.7376Z" fill="#F98973"/>
<path d="M295.549 95.7365C293.349 97.2365 291.849 100.636 292.049 103.336C292.349 105.936 294.249 106.836 296.449 105.336C298.649 103.836 300.149 100.436 299.949 97.7365C299.649 95.0365 297.749 94.2365 295.549 95.7365Z" fill="#FDF7E1"/>
<path d="M179.85 70.9398L200.45 58.8398V62.9398L179.75 75.0398L179.85 70.9398Z" fill="#FDF7E1"/>
<path d="M161.25 60.2406L181.95 48.1406L200.45 58.8406L179.85 70.9406L161.25 60.2406Z" fill="#F98973"/>
<path d="M161.25 60.2383L179.85 70.9383L179.75 86.5383L161.25 75.8383" fill="#BA5D5D"/>
<path d="M183.348 84.2375L179.848 86.5375V70.9375L183.248 73.0375" fill="#FDF7E1"/>
<path d="M242.748 108.44L263.348 96.3398V100.44L242.648 112.54L242.748 108.44Z" fill="#FDF7E1"/>
<path d="M224.148 97.7406L244.848 85.6406L263.348 96.3406L242.748 108.441L224.148 97.7406Z" fill="#F98973"/>
<path d="M224.148 97.7422L242.748 108.442L242.648 124.142L224.148 113.442" fill="#BA5D5D"/>
<path d="M246.25 121.741L242.75 124.141V108.441L246.15 110.541" fill="#FDF7E1"/>
<path d="M91.3242 93.3625L112.524 81.0625L159.724 108.963L138.524 121.263L91.3242 93.3625Z" fill="#F98973"/>
<path d="M138.524 121.263L138.224 155.963L91.3242 128.063L91.6242 93.3633L138.524 121.263Z" fill="#D6D4E6"/>
<path d="M138.523 121.261L159.723 108.961L159.223 143.661L138.023 155.961L138.523 121.261Z" fill="#FFAA99"/>
<path d="M138.524 121.263L138.224 155.963L91.3242 128.063L91.6242 93.3633L138.524 121.263Z" fill="#C5523C"/>
<path d="M116.724 116.162L116.524 119.962L96.8242 108.062L96.9242 104.262L116.724 116.162Z" fill="#24859E"/>
<path d="M109.024 117.663L108.924 119.863L96.8242 112.763L96.9242 110.562L109.024 117.663Z" fill="#24859E"/>
<path d="M138.424 132.563C133.124 134.963 128.124 140.363 121.324 138.463C117.224 137.363 115.724 134.363 112.124 130.763C108.024 126.663 101.724 122.163 91.4242 119.363L91.3242 127.963L138.124 155.863L138.424 132.563Z" fill="#24859E"/>
<path d="M32.65 161.165V133.465H4.25V161.165C4.25 163.265 5.65 165.365 8.45 166.965C13.95 170.165 22.95 170.165 28.45 166.965C31.25 165.365 32.65 163.265 32.65 161.165Z" fill="#FDF071"/>
<g opacity="0.08">
<path d="M26.9504 155.463C31.6504 158.163 31.6504 162.562 26.9504 165.362C22.2504 168.062 14.6504 168.062 9.9504 165.362C5.2504 162.662 5.1504 158.262 9.8504 155.463C14.5504 152.763 22.2504 152.763 26.9504 155.463Z" fill="black"/>
</g>
<path d="M33.7492 136.566V132.666H31.3492C30.7492 132.166 30.1492 131.666 29.3492 131.266C23.2492 127.766 13.4492 127.766 7.44922 131.266C6.64922 131.666 6.04922 132.166 5.44922 132.666H2.94922V137.566C2.94922 139.866 4.44922 142.166 7.54922 143.866C13.5492 147.366 23.3492 147.366 29.3492 143.866C32.7492 141.766 34.2492 139.066 33.7492 136.566Z" fill="#BA5D5D"/>
<path d="M29.3485 126.164C35.3485 129.664 35.3485 135.364 29.3485 138.764C23.3485 142.264 13.6485 142.264 7.54852 138.764C1.44852 135.264 1.44851 129.564 7.44851 126.164C13.4485 122.664 23.2485 122.664 29.3485 126.164Z" fill="#F98973"/>
<path opacity="0.85" d="M12.6502 163.867L8.25022 160.067C7.55022 159.467 7.45022 158.267 8.05022 157.567L9.05022 156.367C9.65022 155.667 10.8502 155.567 11.5502 156.167L15.9502 159.967C16.6502 160.567 16.7502 161.767 16.1502 162.467L15.1502 163.667C14.5502 164.467 13.4502 164.467 12.6502 163.867Z" fill="#FDF7E1"/>
<path opacity="0.5" d="M27.4516 155.467H21.6516C20.6516 155.467 19.8516 154.667 19.8516 153.667V152.167C19.8516 151.167 20.6516 150.367 21.6516 150.367H27.4516C28.4516 150.367 29.2516 151.167 29.2516 152.167V153.667C29.2516 154.667 28.4516 155.467 27.4516 155.467Z" fill="#FDF7E1"/>
<path opacity="0.5" d="M13.8507 150.966L10.6507 155.766C10.0507 156.566 8.95072 156.766 8.15072 156.266L6.85072 155.366C6.05072 154.766 5.85072 153.666 6.35072 152.866L9.55073 148.066C10.1507 147.266 11.2507 147.066 12.0507 147.566L13.3507 148.466C14.2507 149.066 14.4507 150.166 13.8507 150.966Z" fill="#FDF7E1"/>
<path opacity="0.5" d="M21.8507 159.065L27.5507 158.265C28.5507 158.165 29.4507 158.765 29.5507 159.765L29.7507 161.265C29.8507 162.265 29.2507 163.165 28.2507 163.265L22.5507 164.065C21.5507 164.165 20.6507 163.565 20.5507 162.565L20.3507 161.065C20.2507 160.065 20.8507 159.165 21.8507 159.065Z" fill="#FDF7E1"/>
<path opacity="0.85" d="M15.5526 157.867L11.1526 154.067C10.4526 153.467 10.3526 152.267 10.9526 151.567L11.9526 150.367C12.5526 149.667 13.7526 149.567 14.4526 150.167L18.8526 153.967C19.5526 154.567 19.6526 155.767 19.0526 156.467L18.0526 157.667C17.3526 158.367 16.2526 158.467 15.5526 157.867Z" fill="#FDF7E1"/>
<path opacity="0.85" d="M29.5513 157.565L24.1513 159.565C23.2513 159.865 22.2513 159.465 21.8513 158.465L21.3513 157.065C21.0513 156.165 21.4513 155.165 22.4513 154.765L27.8513 152.765C28.7513 152.465 29.7513 152.865 30.1513 153.865L30.6513 155.265C30.9513 156.165 30.4513 157.165 29.5513 157.565Z" fill="#FDF7E1"/>
<path opacity="0.5" d="M16.1517 160.865L19.9517 156.465C20.5517 155.765 21.7517 155.665 22.4517 156.265L23.6517 157.265C24.3517 157.865 24.4517 159.065 23.8517 159.765L20.0517 164.165C19.4517 164.865 18.2517 164.965 17.5517 164.365L16.3517 163.365C15.5517 162.765 15.4517 161.565 16.1517 160.865Z" fill="#FDF7E1"/>
<path d="M50.0609 205.638L68.0609 195.138C70.0609 193.938 72.5609 193.938 74.5609 195.138L130.261 228.038C134.461 230.538 134.461 236.638 130.261 239.038L112.261 249.538C110.261 250.738 107.761 250.738 105.761 249.538L50.0609 216.638C45.7609 214.138 45.7609 208.038 50.0609 205.638Z" fill="#413C7C"/>
<path d="M119.435 194.642L137.435 184.142C139.435 182.942 141.935 182.942 143.935 184.142L199.635 217.042C203.835 219.542 203.835 225.642 199.635 228.042L181.635 238.542C179.635 239.742 177.135 239.742 175.135 238.542L119.335 205.642C115.135 203.142 115.235 197.042 119.435 194.642Z" fill="#413C7C"/>
<path d="M52.4586 205.138L70.4586 194.638C72.4586 193.438 74.9586 193.438 76.9586 194.638L132.659 227.538C136.859 230.038 136.859 236.138 132.659 238.538L114.659 249.038C112.659 250.238 110.159 250.238 108.159 249.038L52.4586 216.138C48.2586 213.638 48.2586 207.538 52.4586 205.138Z" fill="#FDF7E1"/>
<path d="M51.5602 205.24L69.5602 194.74C71.5602 193.54 74.0602 193.54 76.0602 194.74L131.76 227.64C135.96 230.14 135.96 236.24 131.76 238.64L113.76 249.14C111.76 250.34 109.26 250.34 107.26 249.14L51.5602 216.24C47.3602 213.74 47.3602 207.64 51.5602 205.24Z" fill="#6D6BCE"/>
<path d="M57.7602 208.838L62.6602 206.038C63.2602 205.638 63.9602 205.638 64.5602 206.038H64.6602C65.9602 206.738 65.9602 208.638 64.6602 209.338L59.7602 212.138C59.1602 212.538 58.4602 212.538 57.8602 212.138H57.7602C56.4602 211.438 56.4602 209.538 57.7602 208.838Z" fill="#28B6BE"/>
<path d="M61.2586 207.937C60.6586 207.637 60.0586 207.537 59.4586 207.837L57.6586 208.837C56.3586 209.537 56.3586 211.437 57.6586 212.137H57.7586C58.2586 212.437 58.9586 212.437 59.4586 212.237L61.2586 211.237C62.5586 210.537 62.5586 208.637 61.2586 207.937Z" fill="#FDF7E1"/>
<path d="M69.5609 201.44L74.4609 198.64C75.0609 198.24 75.7609 198.24 76.3609 198.64H76.4609C77.7609 199.34 77.7609 201.24 76.4609 201.94L71.5609 204.74C70.9609 205.14 70.2609 205.14 69.6609 204.74H69.5609C68.2609 204.04 68.2609 202.14 69.5609 201.44Z" fill="#28B6BE"/>
<path d="M73.1609 200.539C72.5609 200.239 71.9609 200.139 71.3609 200.439L69.5609 201.439C68.2609 202.139 68.2609 204.039 69.5609 204.739H69.6609C70.1609 205.039 70.8609 205.039 71.3609 204.839L73.1609 203.839C74.3609 203.039 74.3609 201.239 73.1609 200.539Z" fill="#FDF7E1"/>
<path d="M67.9594 214.838L72.8594 212.038C73.4594 211.638 74.1594 211.638 74.7594 212.038H74.8594C76.1594 212.738 76.1594 214.638 74.8594 215.338L69.9594 218.138C69.3594 218.538 68.6594 218.538 68.0594 218.138H67.9594C66.6594 217.438 66.6594 215.538 67.9594 214.838Z" fill="#28B6BE"/>
<path d="M71.4578 213.937C70.8578 213.637 70.2578 213.537 69.6578 213.837L67.8578 214.837C66.5578 215.537 66.5578 217.437 67.8578 218.137H67.9578C68.4578 218.437 69.1578 218.437 69.6578 218.237L71.4578 217.237C72.7578 216.537 72.7578 214.637 71.4578 213.937Z" fill="#FDF7E1"/>
<path d="M79.7602 207.44L84.6602 204.64C85.2602 204.24 85.9602 204.24 86.5602 204.64H86.6602C87.9602 205.34 87.9602 207.24 86.6602 207.94L81.7602 210.74C81.1602 211.14 80.4602 211.14 79.8602 210.74H79.7602C78.4602 210.04 78.4602 208.14 79.7602 207.44Z" fill="#28B6BE"/>
<path d="M83.2586 206.539C82.6586 206.239 82.0586 206.139 81.4586 206.439L79.6586 207.439C78.3586 208.139 78.3586 210.039 79.6586 210.739H79.7586C80.2586 211.039 80.9586 211.039 81.4586 210.839L83.2586 209.839C84.5586 209.139 84.5586 207.239 83.2586 206.539Z" fill="#FDF7E1"/>
<path d="M78.0602 220.838L82.9602 218.038C83.5602 217.638 84.2602 217.638 84.8602 218.038H84.9602C86.2601 218.738 86.2601 220.638 84.9602 221.338L80.0602 224.138C79.4602 224.538 78.7602 224.538 78.1602 224.138H78.0602C76.8602 223.438 76.8602 221.638 78.0602 220.838Z" fill="#28B6BE"/>
<path d="M81.6609 219.937C81.0609 219.637 80.4609 219.537 79.8609 219.837L78.0609 220.837C76.7609 221.537 76.7609 223.437 78.0609 224.137H78.1609C78.6609 224.437 79.3609 224.437 79.8609 224.237L81.6609 223.237C82.9609 222.537 82.9609 220.637 81.6609 219.937Z" fill="#FDF7E1"/>
<path d="M89.9594 213.44L94.8594 210.64C95.4594 210.24 96.1594 210.24 96.7594 210.64H96.8594C98.1594 211.34 98.1594 213.24 96.8594 213.94L91.9594 216.74C91.3594 217.14 90.6594 217.14 90.0594 216.74H89.9594C88.6594 216.04 88.6594 214.14 89.9594 213.44Z" fill="#28B6BE"/>
<path d="M93.4578 212.539C92.8578 212.239 92.2578 212.139 91.6578 212.439L89.8578 213.439C88.5578 214.139 88.5578 216.039 89.8578 216.739H89.9578C90.4578 217.039 91.1578 217.039 91.6578 216.839L93.4578 215.839C94.7578 215.139 94.7578 213.239 93.4578 212.539Z" fill="#FDF7E1"/>
<path d="M88.2621 226.838L93.1621 224.038C93.7621 223.638 94.4621 223.638 95.0621 224.038H95.1621C96.4621 224.738 96.4621 226.638 95.1621 227.338L90.2621 230.138C89.6621 230.538 88.9621 230.538 88.3621 230.138H88.2621C87.0621 229.438 86.9621 227.638 88.2621 226.838Z" fill="#28B6BE"/>
<path d="M91.8602 225.937C91.2602 225.637 90.6602 225.537 90.0602 225.837L88.2602 226.837C86.9602 227.537 86.9602 229.437 88.2602 230.137H88.3602C88.8602 230.437 89.5602 230.437 90.0602 230.237L91.8602 229.237C93.1602 228.537 93.1602 226.737 91.8602 225.937Z" fill="#FDF7E1"/>
<path d="M100.06 219.44L104.96 216.64C105.56 216.24 106.26 216.24 106.86 216.64H106.96C108.26 217.34 108.26 219.24 106.96 219.94L102.06 222.74C101.46 223.14 100.76 223.14 100.16 222.74H100.06C98.8602 222.04 98.8602 220.24 100.06 219.44Z" fill="#28B6BE"/>
<path d="M103.661 218.539C103.061 218.239 102.461 218.139 101.861 218.439L100.061 219.439C98.7609 220.139 98.7609 222.039 100.061 222.739H100.161C100.661 223.039 101.361 223.039 101.861 222.839L103.661 221.839C104.961 221.139 104.961 219.239 103.661 218.539Z" fill="#FDF7E1"/>
<path d="M98.4594 232.838L103.359 230.038C103.959 229.638 104.659 229.638 105.259 230.038H105.359C106.659 230.738 106.659 232.638 105.359 233.338L100.459 236.138C99.8594 236.538 99.1594 236.538 98.5594 236.138H98.4594C97.1594 235.438 97.1594 233.638 98.4594 232.838Z" fill="#28B6BE"/>
<path d="M102.059 231.937C101.459 231.637 100.859 231.537 100.259 231.837L98.4594 232.837C97.1594 233.537 97.1594 235.437 98.4594 236.137H98.5594C99.0594 236.437 99.7594 236.437 100.259 236.237L102.059 235.237C103.259 234.537 103.259 232.737 102.059 231.937Z" fill="#FDF7E1"/>
<path d="M110.262 225.44L115.162 222.64C115.762 222.24 116.462 222.24 117.062 222.64H117.162C118.462 223.34 118.462 225.24 117.162 225.94L112.262 228.74C111.662 229.14 110.962 229.14 110.362 228.74H110.262C109.062 228.04 108.962 226.24 110.262 225.44Z" fill="#28B6BE"/>
<path d="M113.86 224.539C113.26 224.239 112.66 224.139 112.06 224.439L110.26 225.439C108.96 226.139 108.96 228.039 110.26 228.739H110.36C110.86 229.039 111.56 229.039 112.06 228.839L113.86 227.839C115.16 227.139 115.16 225.339 113.86 224.539Z" fill="#FDF7E1"/>
<path d="M108.662 238.94L113.562 236.14C114.162 235.74 114.862 235.74 115.462 236.14H115.562C116.862 236.84 116.862 238.74 115.562 239.44L110.662 242.24C110.062 242.64 109.362 242.64 108.762 242.24H108.662C107.363 241.44 107.363 239.64 108.662 238.94Z" fill="#28B6BE"/>
<path d="M112.161 238.039C111.561 237.739 110.961 237.639 110.361 237.939L108.561 238.939C107.261 239.639 107.261 241.539 108.561 242.239H108.661C109.161 242.539 109.861 242.539 110.361 242.339L112.161 241.339C113.461 240.539 113.461 238.739 112.161 238.039Z" fill="#FDF7E1"/>
<path d="M120.459 231.44L125.359 228.64C125.959 228.24 126.659 228.24 127.259 228.64H127.359C128.659 229.34 128.659 231.24 127.359 231.94L122.459 234.74C121.859 235.14 121.159 235.14 120.559 234.74H120.459C119.159 234.04 119.159 232.24 120.459 231.44Z" fill="#28B6BE"/>
<path d="M124.059 230.539C123.459 230.239 122.859 230.139 122.259 230.439L120.459 231.439C119.159 232.139 119.159 234.039 120.459 234.739H120.559C121.059 235.039 121.759 235.039 122.259 234.839L124.059 233.839C125.259 233.139 125.259 231.339 124.059 230.539Z" fill="#FDF7E1"/>
<path d="M121.638 194.541L139.638 184.041C141.638 182.841 144.138 182.841 146.138 184.041L201.838 216.941C206.038 219.441 206.038 225.541 201.838 227.941L183.838 238.441C181.838 239.641 179.338 239.641 177.338 238.441L121.638 205.541C117.438 203.041 117.438 196.941 121.638 194.541Z" fill="#FDF7E1"/>
<path d="M120.738 194.642L138.738 184.142C140.738 182.942 143.238 182.942 145.238 184.142L200.938 217.042C205.138 219.542 205.138 225.642 200.938 228.042L182.938 238.542C180.938 239.742 178.438 239.742 176.438 238.542L120.638 205.642C116.438 203.142 116.438 197.042 120.738 194.642Z" fill="#6D6BCE"/>
<path d="M134.939 198.741C134.939 200.541 133.039 202.041 130.739 202.041C128.439 202.041 126.539 200.541 126.539 198.741C126.539 196.941 128.439 195.441 130.739 195.441C133.039 195.441 134.939 196.941 134.939 198.741Z" fill="#FDF071"/>
<path d="M146.537 191.741C146.537 193.541 144.637 195.041 142.337 195.041C140.037 195.041 138.137 193.541 138.137 191.741C138.137 189.941 140.037 188.441 142.337 188.441C144.637 188.441 146.537 189.941 146.537 191.741Z" fill="#FDF071"/>
<path d="M146.537 205.339C146.537 207.139 144.637 208.639 142.337 208.639C140.037 208.639 138.137 207.139 138.137 205.339C138.137 203.539 140.037 202.039 142.337 202.039C144.637 202.039 146.537 203.539 146.537 205.339Z" fill="#FDF071"/>
<path d="M158.236 198.241C158.236 200.041 156.336 201.541 154.036 201.541C151.736 201.541 149.836 200.041 149.836 198.241C149.836 196.441 151.736 194.941 154.036 194.941C156.336 195.041 158.236 196.441 158.236 198.241Z" fill="#FDF071"/>
<path d="M158.236 211.839C158.236 213.639 156.336 215.139 154.036 215.139C151.736 215.139 149.836 213.639 149.836 211.839C149.836 210.039 151.736 208.539 154.036 208.539C156.336 208.639 158.236 210.039 158.236 211.839Z" fill="#FDF071"/>
<path d="M169.939 204.839C169.939 206.639 168.039 208.139 165.739 208.139C163.439 208.139 161.539 206.639 161.539 204.839C161.539 203.039 163.439 201.539 165.739 201.539C168.039 201.539 169.939 203.039 169.939 204.839Z" fill="#FDF071"/>
<path d="M169.939 218.441C169.939 220.241 168.039 221.741 165.739 221.741C163.439 221.741 161.539 220.241 161.539 218.441C161.539 216.641 163.439 215.141 165.739 215.141C168.039 215.141 169.939 216.641 169.939 218.441Z" fill="#FDF071"/>
<path d="M181.537 211.441C181.537 213.241 179.637 214.741 177.337 214.741C175.037 214.741 173.137 213.241 173.137 211.441C173.137 209.641 175.037 208.141 177.337 208.141C179.737 208.141 181.537 209.541 181.537 211.441Z" fill="#FDF071"/>
<path d="M181.537 224.941C181.537 226.741 179.637 228.241 177.337 228.241C175.037 228.241 173.137 226.741 173.137 224.941C173.137 223.141 175.037 221.641 177.337 221.641C179.737 221.741 181.537 223.141 181.537 224.941Z" fill="#FDF071"/>
<path d="M193.236 217.941C193.236 219.741 191.336 221.241 189.036 221.241C186.736 221.241 184.836 219.741 184.836 217.941C184.836 216.141 186.736 214.641 189.036 214.641C191.336 214.641 193.236 216.141 193.236 217.941Z" fill="#FDF071"/>
<path d="M144.336 190.341C144.336 190.941 143.636 191.541 142.836 191.541C142.036 191.541 141.336 191.041 141.336 190.341C141.336 189.741 142.036 189.141 142.836 189.141C143.636 189.141 144.336 189.741 144.336 190.341Z" fill="#FDF7E1"/>
<path d="M156.234 196.942C156.234 197.542 155.534 198.142 154.734 198.142C153.934 198.142 153.234 197.642 153.234 196.942C153.234 196.342 153.934 195.742 154.734 195.742C155.534 195.842 156.234 196.342 156.234 196.942Z" fill="#FDF7E1"/>
<path d="M167.836 203.341C167.836 203.941 167.136 204.541 166.336 204.541C165.536 204.541 164.836 204.041 164.836 203.341C164.836 202.641 165.536 202.141 166.336 202.141C167.136 202.141 167.836 202.741 167.836 203.341Z" fill="#FDF7E1"/>
<path d="M179.535 209.942C179.535 210.542 178.835 211.142 178.035 211.142C177.235 211.142 176.535 210.642 176.535 209.942C176.535 209.242 177.235 208.742 178.035 208.742C178.935 208.842 179.535 209.342 179.535 209.942Z" fill="#FDF7E1"/>
<path d="M191.336 216.641C191.336 217.241 190.636 217.841 189.836 217.841C189.036 217.841 188.336 217.341 188.336 216.641C188.336 216.041 189.036 215.441 189.836 215.441C190.636 215.441 191.336 215.941 191.336 216.641Z" fill="#FDF7E1"/>
<path d="M132.738 197.54C132.738 198.14 132.038 198.74 131.238 198.74C130.438 198.74 129.738 198.24 129.738 197.54C129.738 196.94 130.438 196.34 131.238 196.34C132.138 196.34 132.738 196.84 132.738 197.54Z" fill="#FDF7E1"/>
<path d="M144.637 204.141C144.637 204.741 143.937 205.341 143.137 205.341C142.337 205.341 141.637 204.841 141.637 204.141C141.637 203.541 142.337 202.941 143.137 202.941C144.037 202.941 144.637 203.441 144.637 204.141Z" fill="#FDF7E1"/>
<path d="M156.238 210.54C156.238 211.14 155.538 211.74 154.738 211.74C153.938 211.74 153.238 211.24 153.238 210.54C153.238 209.84 153.938 209.34 154.738 209.34C155.538 209.34 156.238 209.84 156.238 210.54Z" fill="#FDF7E1"/>
<path d="M167.938 217.141C167.938 217.741 167.237 218.341 166.438 218.341C165.637 218.341 164.938 217.841 164.938 217.141C164.938 216.441 165.637 215.941 166.438 215.941C167.338 215.941 167.938 216.441 167.938 217.141Z" fill="#FDF7E1"/>
<path d="M179.738 223.739C179.738 224.339 179.038 224.939 178.238 224.939C177.438 224.939 176.738 224.439 176.738 223.739C176.738 223.039 177.438 222.539 178.238 222.539C179.038 222.539 179.738 223.139 179.738 223.739Z" fill="#FDF7E1"/>
<path d="M327.751 153.738L313.151 145.238L280.551 164.538L295.151 173.038L327.751 153.738Z" fill="#24859E"/>
<path d="M295.151 173.039L280.551 164.539L280.851 188.439L295.451 196.939L295.151 173.039Z" fill="#156D85"/>
<path d="M295.152 173.038L295.452 196.938L327.752 177.738L327.552 153.738L295.152 173.038Z" fill="#28B6BE"/>
<path d="M310.254 169.438L310.354 172.138L324.054 163.938L323.954 161.238L310.254 169.438Z" fill="#FDF7E1"/>
<path d="M315.551 170.537L315.651 172.037L324.051 167.137L323.951 165.637L315.551 170.537Z" fill="#FDF7E1"/>
<path d="M302.05 181.339C300.35 182.539 299.15 185.139 299.35 187.139C299.55 189.139 301.05 189.839 302.75 188.639C304.45 187.439 305.65 184.839 305.45 182.839C305.25 180.839 303.75 180.139 302.05 181.339Z" fill="#FDF7E1"/>
<path d="M352.212 164.699V140.199H336.312V164.699C336.312 165.899 337.112 167.099 338.712 167.999C341.812 169.799 346.813 169.799 349.913 167.999C351.413 167.099 352.212 165.899 352.212 164.699Z" fill="#28B6BE"/>
<g opacity="0.08">
<path d="M349.01 161.5C351.61 163 351.61 165.5 349.01 167C346.41 168.5 342.11 168.5 339.51 167C336.81 165.5 336.81 163 339.41 161.5C342.01 160 346.31 160 349.01 161.5Z" fill="black"/>
</g>
<path opacity="0.5" d="M342.512 144V151.8C342.512 152.7 343.312 153.5 344.212 153.5C345.112 153.5 345.912 152.7 345.912 151.8V144H342.512Z" fill="#FDF7E1"/>
<path d="M352.812 139V136.8H351.412C351.112 136.5 350.712 136.2 350.312 136C346.912 134 341.412 134 338.012 136C337.612 136.2 337.212 136.5 336.912 136.8H335.512V139.5C335.512 140.8 336.412 142.1 338.112 143C341.512 145 347.012 145 350.312 143C352.212 142 353.112 140.5 352.812 139Z" fill="#BA5D5D"/>
<path d="M350.313 133.201C353.713 135.201 353.713 138.301 350.313 140.301C346.913 142.301 341.513 142.301 338.113 140.301C334.713 138.301 334.713 135.201 338.013 133.201C341.413 131.301 346.913 131.201 350.313 133.201Z" fill="#F98973"/>
<path d="M342.512 127.801C342.512 127.801 341.012 131.201 337.512 133.601H343.112L342.512 127.801Z" fill="#F98973"/>
<path d="M345.913 127.801C345.913 127.801 347.413 131.201 350.913 133.601H345.312L345.913 127.801Z" fill="#F98973"/>
<g opacity="0.1">
<path d="M349.312 144.8C346.512 146.4 341.912 146.4 339.112 144.8C338.412 144.4 337.912 143.9 337.512 143.5V164.6C337.512 165.6 338.212 166.6 339.512 167.3C342.112 168.8 346.312 168.8 348.912 167.3C350.212 166.5 350.812 165.6 350.812 164.6V143.5C350.512 144 350.012 144.4 349.312 144.8Z" fill="black"/>
</g>
<path d="M345.912 131.899V124.199C345.912 123.399 345.312 122.599 344.512 122.499C343.412 122.299 342.512 123.099 342.512 124.199V131.999C343.612 132.399 344.812 132.399 345.912 131.899Z" fill="#F98973"/>
<path d="M310.13 232.801L307.63 234.301C306.53 234.901 305.93 236.001 305.93 237.101C305.73 239.401 304.73 241.601 302.73 242.801L288.03 251.701C287.93 251.801 287.83 251.801 287.73 251.901C287.13 252.401 286.83 253.101 287.03 254.001C287.23 254.801 287.83 255.401 288.63 255.601C289.33 255.801 289.93 255.601 290.43 255.201L307.53 244.801C309.83 243.401 312.83 243.401 315.13 244.701C316.23 245.401 317.63 245.301 318.73 244.701L329.73 238.201C328.03 238.601 326.13 238.901 324.23 238.801C318.33 238.901 313.13 236.501 310.13 232.801Z" fill="#6D6BCE"/>
<path d="M357.429 214.302L351.829 211.002C350.429 210.202 348.629 210.202 347.229 211.002L337.029 217.002L310.129 232.802C313.129 236.502 318.329 238.902 324.229 239.002C326.129 239.002 328.029 238.802 329.729 238.402L338.529 233.202L357.429 222.102C360.429 220.302 360.429 216.002 357.429 214.302Z" fill="#413C7C"/>
<path d="M324.032 239.003L320.232 241.203C319.132 241.903 317.732 241.903 316.632 241.203C314.232 239.803 311.332 239.903 309.032 241.303L291.932 251.703C291.432 252.103 290.832 252.203 290.132 252.103C289.632 252.003 289.232 251.703 288.932 251.203L288.132 251.703C288.032 251.803 287.932 251.803 287.832 251.903C287.232 252.403 286.932 253.103 287.132 254.003C287.332 254.803 287.932 255.403 288.732 255.603C289.432 255.803 290.032 255.603 290.532 255.203L307.632 244.803C309.932 243.403 312.932 243.403 315.232 244.703C316.332 245.403 317.732 245.303 318.832 244.703L329.832 238.203C328.132 238.603 326.232 238.903 324.332 238.803C324.132 239.003 324.132 239.003 324.032 239.003Z" fill="#413C7C"/>
<path d="M358.931 218.502L340.931 229.102L324.031 239.002C324.131 239.002 324.131 239.002 324.231 239.002C326.131 239.002 328.031 238.802 329.731 238.402L338.531 233.202L357.431 222.102C359.031 221.202 359.731 219.502 359.631 217.902C359.431 218.102 359.231 218.302 358.931 218.502Z" fill="#413C7C"/>
<path d="M359.23 216.102C358.83 215.402 358.33 214.802 357.53 214.302L351.93 211.002C350.53 210.202 348.73 210.202 347.33 211.002L341.43 214.502C342.83 213.702 344.63 213.702 346.13 214.502L351.73 217.802C352.53 218.202 353.03 218.902 353.43 219.602C354.43 221.402 354.03 223.902 352.33 225.302L357.63 222.202C359.73 220.802 360.23 218.102 359.23 216.102Z" fill="#6D6BCE"/>
<path d="M294.931 252.603C294.431 253.003 293.731 253.103 293.031 252.903C292.231 252.703 291.631 252.103 291.431 251.303C291.231 250.503 291.531 249.703 292.131 249.203L287.831 251.803C287.731 251.903 287.631 251.903 287.531 252.003C286.931 252.503 286.631 253.203 286.831 254.103C287.031 254.903 287.631 255.503 288.431 255.703C289.131 255.903 289.731 255.703 290.231 255.303" fill="#82818C"/>
<path d="M293.03 252.905C292.43 252.805 291.93 252.305 291.63 251.805C291.63 251.805 291.63 251.805 291.53 251.805L290.03 252.705C289.53 253.105 288.93 253.205 288.23 253.105C287.83 253.005 287.43 252.805 287.13 252.405C286.83 252.905 286.73 253.405 286.83 254.005C287.03 254.805 287.63 255.405 288.43 255.605C289.13 255.805 289.73 255.605 290.23 255.205L294.73 252.505C294.43 252.905 293.73 253.105 293.03 252.905Z" fill="#9A99A6"/>
<path d="M291.133 253.001C290.933 252.901 290.733 252.901 290.633 253.001L289.433 253.701C289.033 253.901 289.033 254.501 289.433 254.701C289.633 254.801 289.733 254.801 289.933 254.701L291.133 254.001C291.533 253.701 291.533 253.201 291.133 253.001Z" fill="#FDF7E1"/>
<path d="M346.033 218.001L343.533 216.601C342.833 216.201 342.033 216.201 341.333 216.601L330.433 223.101C329.033 224.001 329.033 226.001 330.433 226.901L332.933 228.301C333.633 228.701 334.433 228.701 335.133 228.301L346.033 221.801C347.433 221.001 347.433 218.901 346.033 218.001Z" fill="#FDF071"/>
<path d="M358.33 221.402C358.43 221.302 358.63 221.102 358.73 221.002C358.73 220.902 358.83 220.902 358.83 220.802C358.93 220.602 359.13 220.402 359.23 220.202C359.23 220.102 359.33 220.002 359.33 220.002C359.43 219.802 359.43 219.702 359.53 219.502C359.53 219.402 359.63 219.302 359.63 219.202C359.63 219.002 359.73 218.902 359.73 218.702C359.73 218.602 359.73 218.502 359.73 218.302C359.73 218.202 359.73 218.002 359.73 217.902C359.53 218.102 359.23 218.302 359.03 218.502L353.93 221.502C354.03 222.902 353.43 224.302 352.23 225.202L357.53 222.102C357.73 222.002 358.03 221.802 358.23 221.602C358.23 221.502 358.33 221.502 358.33 221.402Z" fill="#413C7C"/>
<path d="M344.533 218.301L342.933 217.401C342.533 217.101 341.933 217.101 341.533 217.401L334.433 221.601C333.533 222.201 333.533 223.501 334.433 224.101L336.033 225.001C336.433 225.301 337.033 225.301 337.433 225.001L344.533 220.801C345.533 220.201 345.533 218.901 344.533 218.301Z" fill="#857EFD"/>
<defs>
<linearGradient id="paint0_linear_465_3047" x1="154.449" y1="70.1825" x2="312.966" y2="64.741" gradientUnits="userSpaceOnUse">
<stop stop-color="#6E6CCF"/>
<stop offset="1" stop-color="#FB8873"/>
</linearGradient>
<linearGradient id="paint1_linear_465_3047" x1="154.148" y1="128.59" x2="249.179" y2="127.141" gradientUnits="userSpaceOnUse">
<stop stop-color="#6E6CCF"/>
<stop offset="1" stop-color="#FB8873"/>
</linearGradient>
<linearGradient id="paint2_linear_465_3047" x1="258.497" y1="171.189" x2="320.267" y2="96.2074" gradientUnits="userSpaceOnUse">
<stop stop-color="#6E6CCF"/>
<stop offset="1" stop-color="#FB8873"/>
</linearGradient>
</defs>
</svg>
