<svg width="183" height="184" viewBox="0 0 183 184" fill="none" xmlns="http://www.w3.org/2000/svg">
<path d="M146.051 157.074C146.051 159.856 141.141 165.912 139.996 167.221C139.832 167.385 139.668 167.385 139.505 167.385L136.886 166.076C135.413 165.257 134.922 164.439 134.922 162.802C134.922 159.693 137.377 155.928 140.487 154.455C143.596 152.818 146.051 154.128 146.051 157.074Z" fill="#8C8C8C"/>
<path d="M148.997 158.712C148.997 161.822 146.542 165.586 143.432 167.059C140.322 168.532 137.867 167.387 137.867 164.277C137.867 161.167 140.322 157.403 143.432 155.93C146.542 154.457 148.997 155.602 148.997 158.712Z" fill="#565656"/>
<path opacity="0.5" d="M146.38 160.021C146.38 161.657 145.071 163.621 143.434 164.44C141.798 165.258 140.488 164.603 140.488 162.967C140.488 161.33 141.798 159.366 143.434 158.548C145.071 157.729 146.38 158.384 146.38 160.021Z" fill="#1C1B19"/>
<path d="M145.072 161.982L142.78 163.128C142.126 163.455 141.144 163.128 140.816 162.473L139.18 158.873L147.691 154.617L145.726 161.164C145.563 161.491 145.399 161.819 145.072 161.982Z" fill="#8C9096"/>
<path d="M104.149 132.846C104.149 135.628 99.239 141.684 98.0933 142.993C97.9296 143.157 97.766 143.157 97.6023 143.157L94.9836 141.848C93.5106 141.029 93.0195 140.211 93.0195 138.574C93.0195 135.464 95.4746 131.7 98.5843 130.227C101.694 128.427 104.149 129.736 104.149 132.846Z" fill="#8C8C8C"/>
<path d="M104.961 139.786C107.408 136.651 107.833 132.892 105.909 131.391C103.986 129.889 100.442 131.212 97.9943 134.347C95.5467 137.482 95.1219 141.241 97.0456 142.743C98.9693 144.245 102.513 142.921 104.961 139.786Z" fill="#565656"/>
<path opacity="0.4" d="M104.478 135.634C104.478 137.271 103.169 139.235 101.532 140.053C99.8953 140.871 98.5859 140.217 98.5859 138.58C98.5859 136.943 99.8953 134.979 101.532 134.161C103.169 133.343 104.478 133.997 104.478 135.634Z" fill="#1C1B19"/>
<path d="M103.166 137.596L100.874 138.741C100.22 139.069 99.2375 138.741 98.9101 138.087L97.2734 134.486L105.784 130.23L103.82 136.777C103.657 137.268 103.493 137.432 103.166 137.596Z" fill="#8C9096"/>
<path d="M138.686 42.1825L136.23 40.7094V9.12109L138.686 10.5941V42.1825ZM153.252 19.105L150.797 17.6319V49.2203L153.252 50.6933V19.105Z" fill="#6D6BCE"/>
<path d="M137.377 40.7098L134.922 39.2368V7.64844L137.377 9.12147V30.3986V40.7098ZM151.944 17.6323L149.489 16.1593V47.7476L151.944 49.2206V23.5244V17.6323Z" fill="#806FEA"/>
<path opacity="0.6" d="M136.723 9.28516H138.032V40.8735H136.723V9.28516ZM151.289 17.796V49.3843H152.599V17.796H151.289Z" fill="#DFE8E8"/>
<path d="M153.253 23.0307L152.598 23.1944L151.289 22.7034L149.489 21.7214V17.9569L153.253 20.0847V23.0307ZM138.686 11.9012L134.922 9.77344V13.5379L136.722 14.5199L138.032 15.0109L138.686 14.8472V11.9012Z" fill="#413C7C"/>
<path d="M154.398 16.3171L135.412 5.35118C135.085 5.18751 134.921 5.1875 134.757 5.1875C134.43 5.35117 133.284 6.00586 133.121 6.16953C132.957 6.3332 132.957 6.33319 132.957 6.66053V8.62458C132.957 9.11559 133.448 9.77026 133.939 10.0976L152.925 21.0635C153.252 21.2272 153.416 21.2272 153.579 21.2272C153.743 21.2272 154.725 20.5725 155.052 20.2452C155.216 20.0815 155.38 20.0815 155.38 19.7541V17.7901C155.216 17.2991 154.889 16.6444 154.398 16.3171Z" fill="#FFF7A7"/>
<path d="M152.761 21.0647L133.775 10.0988C133.284 9.77143 132.793 9.11676 132.793 8.62575V6.6617C132.793 6.17069 133.284 6.00703 133.775 6.33437L152.761 17.3003C153.252 17.6276 153.743 18.2823 153.743 18.7733V20.7373C153.743 21.2283 153.252 21.392 152.761 21.0647Z" fill="#F29E19"/>
<path d="M162.908 51.3416L124.773 29.4098C120.845 27.1184 117.244 26.7911 114.952 28.2641C112.334 29.7371 94.4937 39.8847 91.5476 41.685C89.7472 42.8307 88.6016 45.1221 88.6016 48.2318V117.628C88.6016 124.829 94.4937 134.159 101.695 138.25L139.83 160.182C143.431 162.31 146.704 162.637 148.996 161.655C151.287 160.673 169.455 150.035 172.401 148.234C174.528 147.089 176.001 144.797 176.001 141.36V71.964C176.001 64.7625 170.109 55.597 162.908 51.3416Z" fill="#FFF7A7"/>
<path opacity="0.3" d="M159.965 154.618V155.6C161.11 154.946 162.42 154.291 163.565 153.472V80.4756C163.565 72.2921 157.019 61.8172 148.835 57.0708L108.409 33.666C107.918 33.3387 107.427 33.0113 106.772 32.8477C105.462 33.5023 104.153 34.3207 102.844 34.9753L103.662 35.3027C104.644 35.63 105.626 36.121 106.608 36.612L147.035 60.0169C154.236 64.1086 160.128 73.2742 160.128 80.4756V154.291C159.965 154.455 159.965 154.455 159.965 154.618Z" fill="#CE8F20"/>
<path d="M160.945 154.947C161.436 154.62 161.927 154.456 162.254 154.129V80.4772C162.254 72.621 155.871 62.4735 148.015 58.0544L107.589 34.6496C106.77 34.1586 106.116 33.8312 105.297 33.5039C104.806 33.8312 104.315 33.9949 103.824 34.3223C104.806 34.6496 105.788 35.1406 106.934 35.7953L147.36 59.2001C154.889 63.4555 160.945 73.1121 160.945 80.4772V154.292C161.109 154.456 160.945 154.783 160.945 154.947Z" fill="#413C7C"/>
<path opacity="0.3" d="M166.345 53.8008L125.918 77.2056L88.6016 55.6012V117.468C88.6016 124.67 94.4937 133.999 101.695 138.091L139.83 160.023C143.431 162.15 146.704 162.478 148.996 161.496C151.287 160.514 169.455 149.875 172.401 148.075C174.528 146.929 176.001 144.638 176.001 141.201V71.8045C176.001 65.9124 171.91 58.5472 166.345 53.8008Z" fill="#F98973"/>
<path opacity="0.4" d="M131.483 85.0587L88.6016 57.3984V117.465C88.6016 124.667 94.4937 133.996 101.695 138.088L139.83 160.02C143.431 162.147 146.704 162.475 148.996 161.493C151.287 160.511 169.455 149.872 172.401 148.072C174.528 146.926 176.001 144.635 176.001 141.198V71.8014C176.001 68.3643 174.692 64.5999 172.564 61.1628L131.483 85.0587Z" fill="#F98973"/>
<path opacity="0.4" d="M136.23 93.7313L88.6016 63.125V117.463C88.6016 124.665 94.4937 133.994 101.695 138.086L139.83 160.018C143.431 162.145 146.704 162.473 148.996 161.491C151.287 160.509 169.455 149.87 172.401 148.07C174.528 146.924 176.001 144.633 176.001 141.196V71.7995C176.001 71.4722 176.001 70.9811 176.001 70.6538L136.23 93.7313Z" fill="#F98973"/>
<path d="M139.83 160.183L101.695 138.252C94.4937 134.16 88.6016 124.831 88.6016 117.629V48.233C88.6016 41.0315 94.4937 38.5765 101.695 42.6682L139.83 64.6C147.032 68.6918 152.924 78.021 152.924 85.2225V154.619C152.924 161.82 147.032 164.275 139.83 160.183Z" fill="url(#paint0_radial_447_10981)"/>
<path opacity="0.2" d="M139.831 64.6L135.903 62.3086C142.45 66.7277 147.523 75.2385 147.523 81.949V151.345C147.523 158.547 141.631 161.002 134.43 156.91L139.831 160.02C147.032 164.111 152.924 161.656 152.924 154.455V85.0587C152.924 78.0209 147.032 68.6917 139.831 64.6Z" fill="#CE8F20"/>
<path opacity="0.3" d="M91.8758 51.3413V128.103C91.3848 127.284 90.8937 126.466 90.5664 125.484V51.3413C90.5664 45.7765 92.6941 42.5031 94.6582 40.5391C95.3128 40.5391 95.9675 40.5391 96.6222 40.5391C94.6582 42.0121 91.8758 44.9581 91.8758 51.3413ZM144.905 68.5266C144.578 68.1993 144.25 67.872 143.923 67.5446C141.959 69.345 139.831 72.6184 139.831 78.3468V158.218C139.831 158.218 139.831 159.2 140.322 160.346C140.977 160.673 141.631 161 142.286 161.328C141.14 159.855 141.14 158.382 141.14 158.218V78.3468C141.14 73.1094 143.105 70.1633 144.905 68.5266ZM140.322 64.9259C140.158 64.7622 139.995 64.7622 139.831 64.5986L139.013 64.1075C136.885 65.7442 134.266 69.1813 134.266 75.4008V155.272C134.266 155.272 134.266 156.09 134.594 157.236L136.885 158.545C135.576 157.072 135.576 155.272 135.576 155.272V75.4008C135.739 69.1813 138.358 66.2353 140.322 64.9259ZM97.4406 134.977C97.2769 134.486 97.2769 134.158 97.2769 134.158V54.2873C97.2769 47.0859 101.041 44.1398 102.678 43.1578L101.532 42.5031C101.532 42.5031 101.369 42.5031 101.369 42.3394C99.2409 43.8124 95.9675 47.0859 95.9675 54.1237V133.34C96.4586 133.995 96.9496 134.486 97.4406 134.977ZM102.842 137.104V57.2334C102.842 50.1956 106.442 47.2495 108.079 46.2675L106.77 45.4492C104.642 46.9222 101.369 50.1956 101.369 57.2334V137.104C101.369 137.104 101.369 137.432 101.532 138.086L103.169 139.068C102.842 138.086 102.842 137.268 102.842 137.104ZM124.773 149.216V69.345C124.773 62.9618 127.72 59.8521 129.52 58.7064L128.211 58.0518C126.083 59.6885 123.3 62.9619 123.3 69.5087V149.38C123.3 149.38 123.3 150.034 123.628 151.016L125.592 152.162C124.773 150.689 124.773 149.216 124.773 149.216ZM130.175 152.162V72.291C130.175 65.9079 132.957 62.9619 134.921 61.6525L133.612 60.9978C131.484 62.6345 128.865 65.9079 128.865 72.291V152.162C128.865 152.162 128.865 152.98 129.193 153.962L131.32 155.108C130.338 153.799 130.175 152.326 130.175 152.162ZM119.209 146.106V66.2353C119.209 59.6885 122.318 56.5787 124.119 55.433L122.809 54.6147C120.682 56.2514 117.736 59.5248 117.736 66.0716V145.943C117.736 145.943 117.736 146.597 117.899 147.416L119.7 148.561C119.372 147.416 119.209 146.27 119.209 146.106ZM113.808 143.16V63.2892C113.808 56.5787 117.081 53.6327 118.881 52.487L117.572 51.6686C115.444 53.1417 112.498 56.5787 112.498 63.2892V143.16C112.498 143.16 112.498 143.651 112.662 144.47L114.462 145.452C113.808 144.306 113.808 143.324 113.808 143.16ZM108.243 140.214V60.3431C108.243 53.469 111.68 50.5229 113.48 49.3772L112.171 48.5589C110.043 50.0319 106.933 53.469 106.933 60.1795V140.05C106.933 140.05 106.933 140.541 107.097 141.196L108.897 142.178C108.406 141.196 108.243 140.214 108.243 140.214Z" fill="#FFD685"/>
<path opacity="0.7" d="M173.548 119.266L165.528 123.849C164.873 124.176 164.055 123.685 164.055 123.03V97.6616C164.055 97.3342 164.218 97.0069 164.546 96.8432L172.566 92.2604C173.22 91.9331 174.039 92.4241 174.039 93.0788V118.448C174.039 118.775 173.875 119.102 173.548 119.266Z" fill="#413C7C"/>
<path d="M165.035 98.8059V101.588C165.035 101.916 165.362 102.079 165.69 101.916L169.291 99.788C169.618 99.6243 169.945 99.788 169.945 100.115V115.337C169.945 115.5 169.945 115.664 169.782 115.664L165.363 118.283C165.199 118.283 165.199 118.446 165.199 118.61V121.392C165.199 121.72 165.526 121.883 165.854 121.72L173.382 117.301C173.546 117.301 173.546 117.137 173.546 116.973V94.0595C173.546 93.7322 173.219 93.5685 172.891 93.7322L165.363 98.1513C165.199 98.4786 165.035 98.6423 165.035 98.8059Z" fill="#F98973"/>
<path d="M119.371 38.4117L123.79 35.793L149.486 50.687L145.067 53.142L119.371 38.4117Z" fill="#D88812"/>
<path opacity="0.7" d="M144.739 52.3273L121.661 39.07C121.17 38.7427 121.17 38.088 121.661 37.7607L123.625 36.6149C123.789 36.4513 124.116 36.4513 124.444 36.6149L147.521 49.8722C148.012 50.1996 148.012 50.8542 147.521 51.1816L145.557 52.3273C145.23 52.3273 144.902 52.3273 144.739 52.3273Z" fill="#413C7C"/>
<path d="M144.902 52.4893L143.429 51.6709C135.901 43.6511 129.681 38.5773 121.989 39.232H121.825L120.516 38.5773L123.789 36.6133H123.953L124.935 37.268H125.098C133.282 36.777 139.338 42.0144 146.212 49.5432L148.012 50.5252C148.176 50.6889 148.176 50.8526 148.012 51.0163L145.066 52.653C145.066 52.4893 145.066 52.4893 144.902 52.4893Z" fill="#413C7C"/>
<path opacity="0.6" d="M123.625 39.0656C129.353 39.2293 134.264 42.5027 139.665 47.7401L142.938 45.7761C137.864 40.7023 133.118 37.2652 127.062 37.1016L123.625 39.0656Z" fill="#6D6BCE"/>
<path opacity="0.6" d="M127.062 39.5578C130.827 40.5398 134.264 42.8312 137.865 46.1046L141.138 44.1406C137.701 41.0308 134.264 38.5758 130.5 37.5938L127.062 39.5578Z" fill="#6D6BCE"/>
<path d="M143.265 51.5049C143.265 51.5049 142.937 51.1776 142.446 50.6866C141.955 50.1956 141.137 49.5409 140.319 48.7225C139.5 47.9042 138.355 46.9222 137.209 45.9402C136.718 45.4492 136.063 44.9581 135.408 44.4671C134.754 43.9761 134.099 43.4851 133.444 42.9941C132.79 42.5031 132.135 42.0121 131.48 41.6847C130.826 41.3574 130.171 40.8664 129.516 40.7027C129.189 40.539 128.862 40.3754 128.534 40.2117C128.207 40.048 127.88 40.048 127.552 39.8843C126.898 39.7207 126.243 39.557 125.752 39.3934C125.097 39.2297 124.606 39.2297 124.115 39.066C123.624 39.066 123.133 38.9023 122.806 38.9023C122.151 38.9023 121.66 38.9023 121.66 38.9023C121.66 38.9023 121.988 38.9023 122.806 38.9023C123.133 38.9023 123.624 38.9023 124.115 38.9023C124.606 38.9023 125.097 39.066 125.752 39.066C126.407 39.2297 127.061 39.3933 127.716 39.557C128.043 39.7207 128.371 39.7207 128.698 39.8843C129.025 40.048 129.353 40.2117 129.68 40.3754C130.335 40.7027 131.153 41.0301 131.808 41.3574C132.462 41.6847 133.117 42.1758 133.772 42.6668C136.39 44.4671 138.682 46.7585 140.482 48.5589C142.283 50.3592 143.428 51.5049 143.265 51.5049Z" fill="#859392"/>
<path opacity="0.5" d="M15.3359 134.489L90.9515 178.189L113.211 165.587L37.4314 121.887L15.3359 134.489Z" fill="#1B6596"/>
<path d="M37.7599 74.4219L111.575 117.14V164.768L91.4437 176.388L17.4648 133.834V86.2061L37.7599 74.4219Z" fill="url(#paint1_linear_447_10981)"/>
<path d="M91.4453 128.921L111.577 117.137V164.765L91.4453 176.385V128.921Z" fill="#6D6BCE"/>
<path opacity="0.4" d="M28.432 79.8242L102.247 122.378L102.411 122.542V170.006L101.593 170.497V122.869L27.7773 80.3152L28.432 79.8242Z" fill="#1F1E58"/>
<path d="M17.4648 133.835L91.4437 176.389V128.925L17.4648 86.207V133.835Z" fill="url(#paint2_linear_447_10981)"/>
<path fill-rule="evenodd" clip-rule="evenodd" d="M67.3863 123.848C67.55 123.848 67.55 124.011 67.7137 124.011C67.8773 124.011 67.8773 124.175 68.041 124.175C68.041 124.339 68.2047 124.339 68.2047 124.339C68.3683 124.339 68.3684 124.502 68.532 124.502C68.6957 124.502 68.6957 124.666 68.8593 124.666C68.8593 124.83 69.023 124.83 69.023 124.83C69.1867 124.83 69.1867 124.993 69.3504 124.993C69.514 124.993 69.514 125.157 69.6777 125.157C69.6777 125.321 69.8414 125.321 69.8414 125.321C70.005 125.321 70.0051 125.484 70.1687 125.484C70.3324 125.484 70.3324 125.648 70.496 125.648C70.496 125.812 70.6597 125.812 70.6597 125.812C70.8234 125.812 70.8234 125.975 70.9871 125.975C71.1508 125.975 71.1507 126.139 71.3144 126.139C71.3144 126.303 71.4781 126.303 71.4781 126.303C71.6417 126.303 71.6418 126.466 71.8054 126.466C71.9691 126.466 71.9691 126.63 72.1327 126.63C72.1327 126.794 72.2964 126.794 72.2964 126.794C72.4601 126.794 72.4601 126.957 72.6238 126.957C72.7875 126.957 72.7874 127.121 72.9511 127.121C72.9511 127.285 73.1148 127.285 73.1148 127.285C73.2784 127.285 73.2785 127.448 73.4421 127.448C73.6058 127.448 73.6058 127.612 73.7694 127.612C73.7694 127.776 73.9331 127.776 73.9331 127.776C74.0968 127.776 74.0968 127.939 74.2605 127.939C74.4242 127.939 74.4241 128.103 74.5878 128.103C74.5878 128.267 74.7515 128.267 74.7515 128.267C74.9151 128.267 74.9152 128.43 75.0788 128.43C75.2425 128.43 75.2425 128.594 75.4061 128.594C75.4061 128.758 75.5698 128.758 75.5698 128.758C75.7335 128.758 75.7335 128.921 75.8972 128.921C76.0609 128.921 76.0608 129.085 76.2245 129.085C76.2245 129.249 76.3882 129.249 76.3882 129.249C76.5518 129.249 76.5519 129.412 76.7155 129.412C76.8792 129.412 76.8792 129.576 77.0428 129.576C77.0428 129.74 77.2065 129.74 77.2065 129.74C77.3702 129.74 77.3702 129.903 77.5339 129.903C77.6976 129.903 77.6975 130.067 77.8612 130.067C77.8612 130.231 78.0249 130.231 78.0249 130.231C78.1885 130.231 78.1886 130.394 78.3522 130.394C78.5159 130.394 78.5159 130.558 78.6795 130.558C78.6795 130.722 78.8432 130.722 78.8432 130.722C79.0069 130.722 79.0069 130.885 79.1706 130.885C79.3343 130.885 79.3342 131.049 79.4979 131.049C79.4979 131.213 79.6616 131.213 79.6616 131.213C79.8252 131.213 79.8253 131.376 79.9889 131.376C80.1526 131.376 80.1526 131.54 80.3162 131.54C80.3162 131.704 80.4799 131.704 80.4799 131.704C80.6436 131.704 80.6436 131.868 80.8073 131.868C80.971 131.868 80.9709 132.031 81.1346 132.031C81.1346 132.195 81.2983 132.195 81.2983 132.195C81.2983 132.195 81.462 132.358 81.6256 132.358C81.7893 132.358 81.7893 132.522 81.9529 132.522C81.9529 132.686 82.1166 132.686 82.1166 132.686C82.2803 132.85 82.444 133.013 82.444 133.177V133.341L80.971 140.378V140.542C80.971 140.706 80.8073 140.706 80.6436 140.542C80.4799 140.542 80.4799 140.378 80.3162 140.378C80.1526 140.378 80.1526 140.215 79.9889 140.215C79.9889 140.051 79.8253 140.051 79.8253 140.051C79.6616 140.051 79.6616 139.887 79.4979 139.887C79.3342 139.887 79.3343 139.724 79.1706 139.724C79.1706 139.56 79.0069 139.56 79.0069 139.56C78.8432 139.56 78.8432 139.396 78.6795 139.396C78.5159 139.396 78.5159 139.233 78.3522 139.233C78.3522 139.069 78.1886 139.069 78.1886 139.069C78.0249 139.069 78.0249 138.905 77.8612 138.905C77.6975 138.905 77.6976 138.742 77.5339 138.742C77.5339 138.578 77.3702 138.578 77.3702 138.578C77.2065 138.578 77.2065 138.414 77.0428 138.414C76.8792 138.414 76.8792 138.251 76.7155 138.251C76.7155 138.087 76.5519 138.087 76.5519 138.087C76.3882 138.087 76.3882 137.923 76.2245 137.923C76.0608 137.923 76.0609 137.76 75.8972 137.76C75.8972 137.596 75.7335 137.596 75.7335 137.596C75.5698 137.596 75.5698 137.432 75.4061 137.432C75.2425 137.432 75.2425 137.269 75.0788 137.269C75.0788 137.105 74.9152 137.105 74.9152 137.105C74.7515 137.105 74.7515 136.941 74.5878 136.941C74.4241 136.941 74.4242 136.778 74.2605 136.778C74.2605 136.614 74.0968 136.614 74.0968 136.614C73.9331 136.614 73.9331 136.45 73.7694 136.45C73.6058 136.45 73.6058 136.287 73.4421 136.287C73.4421 136.123 73.2785 136.123 73.2785 136.123C73.1148 136.123 73.1148 135.959 72.9511 135.959C72.7874 135.959 72.7875 135.796 72.6238 135.796C72.6238 135.632 72.4601 135.632 72.4601 135.632C72.2964 135.632 72.2964 135.468 72.1327 135.468C71.9691 135.468 71.9691 135.305 71.8054 135.305C71.8054 135.141 71.6418 135.141 71.6418 135.141C71.4781 135.141 71.4781 134.977 71.3144 134.977C71.1507 134.977 71.1508 134.814 70.9871 134.814C70.9871 134.65 70.8234 134.65 70.8234 134.65C70.6597 134.65 70.6597 134.486 70.496 134.486C70.3324 134.486 70.3324 134.323 70.1687 134.323C70.1687 134.159 70.005 134.159 70.005 134.159C69.8414 134.159 69.8414 133.995 69.6777 133.995C69.514 133.995 69.514 133.832 69.3504 133.832C69.3504 133.668 69.1867 133.668 69.1867 133.668C69.023 133.668 69.023 133.504 68.8593 133.504C68.6957 133.504 68.6957 133.341 68.532 133.341C68.532 133.177 68.3683 133.177 68.3683 133.177C68.2047 133.177 68.2047 133.013 68.041 133.013C67.8773 133.013 67.8773 132.85 67.7137 132.85C67.7137 132.686 67.55 132.686 67.55 132.686C67.3863 132.686 67.3863 132.522 67.2226 132.522C67.059 132.522 67.059 132.358 66.8953 132.358C66.8953 132.195 66.7316 132.195 66.7316 132.195C66.568 132.195 66.568 132.031 66.4043 132.031C66.2406 132.031 66.2406 131.868 66.077 131.868C66.077 131.704 65.9133 131.704 65.9133 131.704C65.7496 131.54 65.5859 131.376 65.5859 131.213V131.049L67.059 124.011V123.848C66.8953 123.848 67.059 123.848 67.3863 123.848Z" fill="#F8FDFF"/>
<path fill-rule="evenodd" clip-rule="evenodd" d="M67.3848 132.199L78.3507 140.546C78.8417 141.037 79.4963 140.874 79.4963 140.383L80.4784 135.8C80.642 135.309 80.151 134.654 79.66 134.163L68.6941 125.816C68.2031 125.325 67.5484 125.489 67.5484 125.98L66.5664 130.562C66.5664 131.053 66.8937 131.708 67.3848 132.199Z" fill="#28B6BE"/>
<path fill-rule="evenodd" clip-rule="evenodd" d="M57.0742 150.361C57.0742 150.197 56.9105 150.197 56.9105 150.197C56.7469 150.197 56.7468 150.033 56.7468 149.87C56.7468 149.706 56.7468 149.706 56.5832 149.542C56.5832 149.379 56.4195 149.379 56.4195 149.379C56.2559 149.379 56.2559 149.215 56.2559 149.051C56.2559 148.888 56.2558 148.888 56.0922 148.724C56.0922 148.56 55.9285 148.56 55.9285 148.56C55.7648 148.56 55.7648 148.397 55.7648 148.233C55.7648 148.069 55.7649 148.069 55.6012 147.906C55.6012 147.742 55.4375 147.742 55.4375 147.742C55.2738 147.742 55.2738 147.578 55.2738 147.415C55.2738 147.251 55.2738 147.251 55.1101 147.087C55.1101 146.924 54.9465 146.924 54.9465 146.924C54.7828 146.924 54.7828 146.76 54.7828 146.596C54.7828 146.433 54.7828 146.433 54.6192 146.269C54.6192 146.105 54.4555 146.105 54.4555 146.105C54.2918 146.105 54.2918 145.942 54.2918 145.778C54.2918 145.614 54.2918 145.614 54.1281 145.451C54.1281 145.287 53.9645 145.287 53.9645 145.287C53.8008 145.287 53.8008 145.123 53.8008 144.96C53.8008 144.796 53.8008 144.796 53.6371 144.632C53.6371 144.469 53.4734 144.469 53.4734 144.469C53.3098 144.469 53.3098 144.305 53.3098 144.141C53.3098 143.978 53.3098 143.978 53.1461 143.814C53.1461 143.65 52.9825 143.65 52.9825 143.65C52.8188 143.65 52.8188 143.487 52.8188 143.323C52.8188 143.159 52.8188 143.159 52.6551 142.996C52.6551 142.832 52.4914 142.832 52.4914 142.832C52.3277 142.832 52.3278 142.668 52.3278 142.505C52.3278 142.341 52.3278 142.341 52.1641 142.177C52.1641 142.014 52.0004 142.014 52.0004 142.014C51.8368 142.014 51.8367 141.85 51.8367 141.686C51.8367 141.523 51.8367 141.523 51.6731 141.359C51.6731 141.195 51.5094 141.195 51.5094 141.195C51.3458 141.195 51.3458 141.032 51.3458 140.868C51.3458 140.704 51.3457 140.704 51.1821 140.541C51.1821 140.377 51.0184 140.377 51.0184 140.377C50.8547 140.377 50.8547 140.213 50.8547 140.05C50.8547 139.886 50.8548 139.886 50.6911 139.722C50.6911 139.559 50.5274 139.559 50.5274 139.559C50.3637 139.559 50.3637 139.395 50.3637 139.231C50.3637 139.068 50.3637 139.067 50.2 138.904C50.2 138.74 50.0364 138.74 50.0364 138.74C49.8727 138.74 49.8727 138.577 49.8727 138.413C49.8727 138.249 49.8727 138.249 49.7091 138.085C49.7091 137.922 49.5454 137.922 49.5454 137.922C49.3817 137.922 49.3817 137.758 49.3817 137.594C49.3817 137.431 49.3817 137.431 49.218 137.267C49.218 137.103 49.0544 137.103 49.0544 137.103C48.8907 137.103 48.8907 136.94 48.8907 136.776C48.8907 136.612 48.8907 136.612 48.727 136.449C48.727 136.285 48.5633 136.285 48.5633 136.285C48.3997 136.285 48.3997 136.121 48.3997 135.958C48.3997 135.794 48.3997 135.794 48.236 135.63C48.0724 135.467 48.0724 135.303 48.236 135.139L53.4734 133.012C53.6371 133.012 53.8008 133.012 53.9645 133.339C53.9645 133.503 54.1281 133.503 54.1281 133.503C54.2918 133.503 54.2918 133.666 54.2918 133.83C54.2918 133.994 54.2918 133.994 54.4555 134.157C54.4555 134.321 54.6192 134.321 54.6192 134.321C54.7828 134.321 54.7828 134.485 54.7828 134.648C54.7828 134.812 54.7828 134.812 54.9465 134.976C54.9465 135.139 55.1101 135.139 55.1101 135.139C55.2738 135.139 55.2738 135.303 55.2738 135.467C55.2738 135.63 55.2738 135.63 55.4375 135.794C55.4375 135.958 55.6012 135.958 55.6012 135.958C55.7649 135.958 55.7648 136.121 55.7648 136.285C55.7648 136.449 55.7648 136.449 55.9285 136.612C55.9285 136.776 56.0922 136.776 56.0922 136.776C56.2558 136.776 56.2559 136.94 56.2559 137.103C56.2559 137.267 56.2559 137.267 56.4195 137.431C56.4195 137.594 56.5832 137.594 56.5832 137.594C56.7468 137.594 56.7468 137.758 56.7468 137.922C56.7468 138.085 56.7469 138.085 56.9105 138.249C56.9105 138.413 57.0742 138.413 57.0742 138.413C57.2379 138.413 57.2379 138.577 57.2379 138.74C57.2379 138.904 57.2378 138.904 57.4015 139.068C57.4015 139.231 57.5652 139.231 57.5652 139.231C57.7289 139.231 57.7289 139.395 57.7289 139.559C57.7289 139.722 57.7289 139.722 57.8926 139.886C57.8926 140.05 58.0562 140.05 58.0562 140.05C58.2199 140.05 58.2199 140.213 58.2199 140.377C58.2199 140.541 58.2199 140.541 58.3835 140.704C58.3835 140.868 58.5472 140.868 58.5472 140.868C58.7109 140.868 58.7109 141.032 58.7109 141.195C58.7109 141.359 58.7109 141.359 58.8746 141.523C58.8746 141.686 59.0382 141.686 59.0382 141.686C59.2019 141.686 59.2019 141.85 59.2019 142.014C59.2019 142.177 59.2019 142.177 59.3656 142.341C59.3656 142.505 59.5293 142.505 59.5293 142.505C59.6929 142.505 59.6929 142.668 59.6929 142.832C59.6929 142.996 59.6929 142.996 59.8566 143.159C59.8566 143.323 60.0202 143.323 60.0202 143.323C60.1839 143.323 60.1839 143.487 60.1839 143.65C60.1839 143.814 60.1839 143.814 60.3476 143.978C60.3476 144.141 60.5113 144.141 60.5113 144.141C60.675 144.141 60.6749 144.305 60.6749 144.469C60.6749 144.632 60.6749 144.632 60.8386 144.796C60.8386 144.96 61.0023 144.96 61.0023 144.96C61.1659 144.96 61.166 145.123 61.166 145.287C61.166 145.451 61.166 145.451 61.3296 145.614C61.3296 145.778 61.4933 145.778 61.4933 145.778C61.6569 145.778 61.6569 145.942 61.6569 146.105C61.6569 146.269 61.657 146.269 61.8206 146.433C61.8206 146.596 61.9843 146.596 61.9843 146.596C62.148 146.596 62.148 146.76 62.148 146.924C62.148 147.087 62.1479 147.087 62.3116 147.251C62.3116 147.415 62.4753 147.415 62.4753 147.415C62.639 147.415 62.639 147.578 62.639 147.742C62.639 147.906 62.639 147.906 62.8027 148.069C62.9663 148.233 62.9663 148.397 62.8027 148.56L57.5652 150.688C57.4015 150.688 57.2379 150.524 57.0742 150.361Z" fill="#F8FDFF"/>
<path fill-rule="evenodd" clip-rule="evenodd" d="M61.3302 146.596L54.1286 135.139C53.8013 134.648 53.1466 134.32 52.8193 134.484L49.3822 135.957C49.0549 136.121 49.0549 136.612 49.3822 137.266L56.5837 148.723C56.911 149.214 57.5657 149.542 57.8931 149.378L61.3302 147.905C61.6575 147.741 61.6575 147.087 61.3302 146.596Z" fill="#FDF071"/>
<path fill-rule="evenodd" clip-rule="evenodd" d="M40.0518 118.283C39.8882 118.446 39.7245 118.446 39.7245 118.283H39.5608H39.3971H39.2335H39.0698H38.9061H38.7424H38.5788H38.4151H38.2515H38.0878H37.9241H37.7604H37.5968H37.4331H37.2694H37.1057H36.9421H36.7784H36.6148H36.4511H36.2874H36.1237H35.9601H35.7964H35.6327H35.469H35.3054H35.1417H34.9781H34.8144H34.6507H34.487H34.3234H34.1597H33.996H33.8323H33.6687H33.505H33.3414H33.1777H33.014H32.8503H32.6867H32.523H32.3593H32.1956H32.032H31.8683H31.7047H31.541H31.3773H31.2136C31.0499 118.283 30.8863 118.119 30.8863 117.955V117.792L27.4492 109.608V109.445C27.4492 109.281 27.4492 109.117 27.6129 109.117H27.7766H27.9402H28.1039H28.2676H28.4312H28.5949H28.7586H28.9222H29.0859H29.2496H29.4133H29.5769H29.7406H29.9043H30.0679H30.2316H30.3953H30.5589H30.7226H30.8863H31.05H31.2136H31.3773H31.541H31.7047H31.8683H32.032H32.1956H32.3593H32.523H32.6867H32.8503H33.014H33.1777H33.3414H33.505H33.6687H33.8323H33.996H34.1597H34.3234H34.487H34.6507H34.8144H34.9781H35.1417H35.3054H35.469H35.6327H35.7964H35.9601H36.1237H36.2874H36.4511C36.6147 109.117 36.7784 109.281 36.7784 109.445V109.608L40.2155 117.792V117.955C40.3791 118.283 40.2155 118.283 40.0518 118.283Z" fill="#F8FDFF"/>
<path fill-rule="evenodd" clip-rule="evenodd" d="M35.469 110.101L26.7945 109.773C26.3035 109.773 26.1398 110.264 26.4672 110.755L28.7585 116.157C28.9222 116.648 29.5769 117.139 29.9043 117.139L38.5787 117.466C39.0698 117.466 39.2334 116.975 38.9061 116.484L36.6147 111.083C36.4511 110.592 35.96 110.101 35.469 110.101Z" fill="#28B6BE"/>
<path fill-rule="evenodd" clip-rule="evenodd" d="M99.4626 108.629V110.266L98.9716 109.775L78.8402 121.559V169.187L78.3492 169.351L77.3672 167.223L75.7305 156.421L76.8762 121.395L78.0218 118.94L93.7342 108.629H99.4626Z" fill="#824014"/>
<path fill-rule="evenodd" clip-rule="evenodd" d="M59.365 85.3867V87.0234L58.7103 86.6961L38.5789 98.4803V145.945L38.0879 146.272L37.2695 143.981L35.6328 133.178L36.6148 98.153L37.7605 95.6979L53.6365 85.5504L59.365 85.3867Z" fill="#824014"/>
<path fill-rule="evenodd" clip-rule="evenodd" d="M30.5586 93.2383L38.0874 97.6574V146.267L30.5586 141.848V93.2383Z" fill="#DE5F46"/>
<path fill-rule="evenodd" clip-rule="evenodd" d="M33.668 105.349C33.668 105.84 33.9953 106.331 34.4863 106.495C34.9773 106.822 35.3047 106.659 35.3047 106.168C35.3047 105.677 34.9773 105.186 34.4863 105.022C33.9953 104.695 33.668 104.858 33.668 105.349Z" fill="#87491F"/>
<path fill-rule="evenodd" clip-rule="evenodd" d="M33.668 111.407C33.668 111.898 33.9953 112.389 34.4863 112.553C34.9773 112.88 35.3047 112.717 35.3047 112.226C35.3047 111.735 34.9773 111.244 34.4863 111.08C33.9953 110.916 33.668 111.08 33.668 111.407Z" fill="#87491F"/>
<path fill-rule="evenodd" clip-rule="evenodd" d="M33.668 117.623C33.668 118.114 33.9953 118.605 34.4863 118.768C34.9773 119.096 35.3047 118.932 35.3047 118.441C35.3047 117.95 34.9773 117.459 34.4863 117.295C33.9953 116.968 33.668 117.132 33.668 117.623Z" fill="#87491F"/>
<path fill-rule="evenodd" clip-rule="evenodd" d="M33.668 123.681C33.668 124.172 33.9953 124.663 34.4863 124.826C34.9773 125.154 35.3047 124.99 35.3047 124.499C35.3047 124.008 34.9773 123.517 34.4863 123.353C33.9953 123.19 33.668 123.353 33.668 123.681Z" fill="#87491F"/>
<path fill-rule="evenodd" clip-rule="evenodd" d="M33.668 129.9C33.668 130.391 33.9953 130.882 34.4863 131.046C34.9773 131.373 35.3047 131.209 35.3047 130.718C35.3047 130.227 34.9773 129.736 34.4863 129.573C33.9953 129.245 33.668 129.409 33.668 129.9Z" fill="#87491F"/>
<path fill-rule="evenodd" clip-rule="evenodd" d="M70.8203 116.484L78.3491 120.903V169.35L70.8203 164.931V116.484Z" fill="#DE5F46"/>
<path fill-rule="evenodd" clip-rule="evenodd" d="M73.7656 128.595C73.7656 129.086 74.093 129.577 74.584 129.741C75.075 130.068 75.4023 129.905 75.4023 129.414C75.4023 128.923 75.075 128.432 74.584 128.268C74.093 127.941 73.7656 128.104 73.7656 128.595Z" fill="#87491F"/>
<path fill-rule="evenodd" clip-rule="evenodd" d="M73.7656 134.653C73.7656 135.144 74.093 135.635 74.584 135.799C75.075 136.126 75.4023 135.963 75.4023 135.472C75.4023 134.981 75.075 134.49 74.584 134.326C74.093 134.162 73.7656 134.326 73.7656 134.653Z" fill="#87491F"/>
<path fill-rule="evenodd" clip-rule="evenodd" d="M73.7656 140.869C73.7656 141.36 74.093 141.851 74.584 142.014C75.075 142.342 75.4023 142.178 75.4023 141.687C75.4023 141.196 75.075 140.705 74.584 140.541C74.093 140.214 73.7656 140.378 73.7656 140.869Z" fill="#87491F"/>
<path fill-rule="evenodd" clip-rule="evenodd" d="M73.7656 146.927C73.7656 147.418 74.093 147.909 74.584 148.072C75.075 148.4 75.4023 148.236 75.4023 147.745C75.4023 147.254 75.075 146.763 74.584 146.599C74.093 146.436 73.7656 146.599 73.7656 146.927Z" fill="#87491F"/>
<path fill-rule="evenodd" clip-rule="evenodd" d="M73.7656 153.146C73.7656 153.637 74.093 154.128 74.584 154.292C75.075 154.619 75.4023 154.455 75.4023 153.964C75.4023 153.473 75.075 152.982 74.584 152.819C74.093 152.491 73.7656 152.655 73.7656 153.146Z" fill="#87491F"/>
<path fill-rule="evenodd" clip-rule="evenodd" d="M91.9337 104.375L99.4626 108.794L78.3491 121.069L70.8203 116.65L91.9337 104.375Z" fill="#F98973"/>
<path fill-rule="evenodd" clip-rule="evenodd" d="M51.8361 81.1328L59.3649 85.5519L38.2515 97.8272L30.7227 93.4081L51.8361 81.1328Z" fill="#F98973"/>
<path d="M29.5781 98.643V104.208C29.5781 104.862 30.0692 105.681 30.7238 106.008L37.9253 110.264C38.58 110.591 39.071 110.427 39.071 109.773V104.208C39.071 103.553 38.58 102.735 37.9253 102.407L30.7238 98.152C30.0692 97.8246 29.5781 97.9883 29.5781 98.643ZM30.7238 99.2976C30.7238 99.134 30.7238 99.134 30.7238 99.2976L38.089 103.389L38.2527 103.553V109.118C38.2527 109.118 38.2527 109.118 38.089 109.118L30.8875 104.862L30.7238 104.699V99.2976Z" fill="#C7CFE0"/>
<path opacity="0.6" d="M38.4171 106.664V103.718C38.4171 103.39 38.2534 103.063 37.9261 102.899L30.7246 98.644C30.3973 98.4803 30.2336 98.644 30.2336 98.8076V101.754L29.9062 101.59V98.644C29.9062 98.153 30.2336 98.153 30.7246 98.3166L37.9261 102.572C38.4171 102.736 38.7444 103.39 38.7444 103.718V106.664H38.4171Z" fill="#C7CFE0"/>
<path fill-rule="evenodd" clip-rule="evenodd" d="M33.832 105.191V101.263C33.832 100.935 34.1594 100.772 34.4867 100.935C34.814 101.099 35.1414 101.59 35.1414 101.917V105.845C35.1414 106.173 34.814 106.336 34.4867 106.173C33.9957 106.009 33.832 105.518 33.832 105.191Z" fill="#C7CFE0"/>
<path opacity="0.6" fill-rule="evenodd" clip-rule="evenodd" d="M33.832 103.39V101.263C33.832 100.935 34.1594 100.772 34.4867 100.935C34.814 101.099 35.1414 101.59 35.1414 101.917V104.045L33.832 103.39Z" fill="#C7CFE0"/>
<path d="M69.8398 121.885V127.45C69.8398 128.105 70.3309 128.923 70.9856 129.25L78.187 133.506C78.8417 133.833 79.3327 133.669 79.3327 133.015V127.45C79.3327 126.795 78.8417 125.977 78.187 125.65L70.9856 121.394C70.3309 121.067 69.8398 121.23 69.8398 121.885ZM70.8219 122.376L78.187 126.468L78.3507 126.632V132.196C78.3507 132.196 78.3507 132.196 78.187 132.196L70.9856 127.941L70.8219 127.777V122.376Z" fill="#C7CFE0"/>
<path opacity="0.6" d="M78.6788 129.906V126.96C78.6788 126.633 78.5151 126.305 78.1878 126.142L70.9863 121.886C70.659 121.722 70.4953 121.886 70.4953 122.05V124.996L70.168 124.832V121.886C70.168 121.395 70.4953 121.395 70.9863 121.559L78.1878 125.814C78.6788 125.978 79.0061 126.633 79.0061 126.96V129.906H78.6788Z" fill="#C7CFE0"/>
<path fill-rule="evenodd" clip-rule="evenodd" d="M73.9336 128.433V124.505C73.9336 124.178 74.2609 124.014 74.5883 124.177C74.9156 124.341 75.243 124.832 75.243 125.16V129.088C75.243 129.415 74.9156 129.579 74.5883 129.415C74.2609 129.251 73.9336 128.76 73.9336 128.433Z" fill="#C7CFE0"/>
<path opacity="0.6" fill-rule="evenodd" clip-rule="evenodd" d="M73.9336 126.633V124.505C73.9336 124.178 74.2609 124.014 74.5883 124.177C74.9156 124.341 75.243 124.832 75.243 125.16V127.287L73.9336 126.633Z" fill="#C7CFE0"/>
<path d="M74.418 101.106L76.2183 110.435L80.8011 107.816L76.873 99.6328L74.418 101.106Z" fill="#1F1E58"/>
<path d="M50.3594 95.5413L54.7785 92.9226L57.2335 88.3398L53.6328 91.2859L50.3594 95.5413Z" fill="#1F1E58"/>
<path d="M54.7773 89.8129L74.4178 101.106L76.8728 99.6331L57.2324 88.3398L54.7773 89.8129Z" fill="#6D6BCE"/>
<path d="M54.7792 89.8125L74.4196 101.106L76.22 110.435L74.5833 109.453L73.1103 102.088L54.9429 91.6129L50.3601 95.541L49.0508 94.7226L54.7792 89.8125Z" fill="#413C7C"/>
<defs>
<radialGradient id="paint0_radial_447_10981" cx="0" cy="0" r="1" gradientUnits="userSpaceOnUse" gradientTransform="translate(153.752 57.4395) rotate(123.922) scale(102.586 175.834)">
<stop offset="0.130423" stop-color="#FFF7A7"/>
<stop offset="0.650711" stop-color="#FB8873"/>
<stop offset="1" stop-color="#FB8873"/>
</radialGradient>
<linearGradient id="paint1_linear_447_10981" x1="42.7534" y1="74.4219" x2="92.2534" y2="131.939" gradientUnits="userSpaceOnUse">
<stop stop-color="#5D55B5"/>
<stop offset="1" stop-color="#F98973"/>
</linearGradient>
<linearGradient id="paint2_linear_447_10981" x1="17.4648" y1="134.827" x2="86.9996" y2="133.673" gradientUnits="userSpaceOnUse">
<stop stop-color="#5D55B5"/>
<stop offset="1" stop-color="#6E6CCF"/>
</linearGradient>
</defs>
</svg>
