<svg width="184" height="184" viewBox="0 0 184 184" fill="none" xmlns="http://www.w3.org/2000/svg">
<path d="M60.1345 141.375C71.2481 147.803 71.3311 158.253 60.259 164.681C49.1868 171.108 31.148 171.108 20.0344 164.681C8.92079 158.253 8.83783 147.803 19.91 141.375C30.9821 134.948 49.0209 134.948 60.1345 141.375ZM32.0188 160.202C36.2072 161.571 40.3125 162.276 43.9618 160.119C47.4451 158.129 47.3207 155.558 44.957 153.36C35.7095 145.522 49.8503 148.135 51.2188 154.562L56.0291 151.743L53.0849 147.969L55.4901 146.559L51.1773 144.071L48.7721 145.481C41.3492 141.583 29.116 145.854 37.9903 153.899C44.5423 159.456 32.1018 159.87 29.3234 150.291L24.513 153.111C24.513 154.645 25.6326 156.221 27.7061 157.756L24.6788 159.497L28.9916 161.985L32.0188 160.202Z" fill="url(#paint0_radial_447_7821)"/>
<path d="M79.8305 153.483C76.0569 184.128 2.86475 183.174 0.376631 152.902C-4.06051 179.276 31.7684 186.16 52.0465 182.221C62.5381 180.189 74.5226 175.627 78.9182 165.219C80.3282 162.191 79.6646 156.386 79.8305 153.151C79.8305 153.234 79.8305 153.359 79.8305 153.483Z" fill="url(#paint1_linear_447_7821)"/>
<mask id="mask0_447_7821" style="mask-type:luminance" maskUnits="userSpaceOnUse" x="0" y="152" width="80" height="32">
<path d="M79.8305 153.483C76.0569 184.128 2.86475 183.174 0.376631 152.902C-4.06051 179.276 31.7684 186.16 52.0465 182.221C62.5381 180.189 74.5226 175.627 78.9182 165.219C80.3282 162.191 79.6646 156.386 79.8305 153.151C79.8305 153.234 79.8305 153.359 79.8305 153.483Z" fill="white"/>
</mask>
<g mask="url(#mask0_447_7821)">
<path d="M82.8178 189.724H-1.69531V150.785H82.8178V189.724ZM-1.36354 189.434H82.486V151.117H-1.40505V189.434H-1.36354Z" fill="#C22000"/>
<path d="M76.3473 150.953H76.0156V189.56H76.3473V150.953Z" fill="#C22000"/>
<path d="M69.8786 150.953H69.5469V189.56H69.8786V150.953Z" fill="#C22000"/>
<path d="M63.4099 150.953H63.0781V189.56H63.4099V150.953Z" fill="#C22000"/>
<path d="M56.9411 150.953H56.6094V189.56H56.9411V150.953Z" fill="#C22000"/>
<path d="M50.4294 150.953H50.0977V189.56H50.4294V150.953Z" fill="#C22000"/>
<path d="M43.9606 150.953H43.6289V189.56H43.9606V150.953Z" fill="#C22000"/>
<path d="M37.4919 150.953H37.1602V189.56H37.4919V150.953Z" fill="#C22000"/>
<path d="M31.0232 150.953H30.6914V189.56H31.0232V150.953Z" fill="#C22000"/>
<path d="M24.5544 150.953H24.2227V189.56H24.5544V150.953Z" fill="#C22000"/>
<path d="M18.0427 150.953H17.7109V189.56H18.0427V150.953Z" fill="#C22000"/>
<path d="M11.574 150.953H11.2422V189.56H11.574V150.953Z" fill="#C22000"/>
<path d="M5.10521 150.953H4.77344V189.56H5.10521V150.953Z" fill="#C22000"/>
</g>
<path d="M68.0947 136.73C83.6454 145.728 83.7283 160.284 68.2605 169.283C52.7927 178.281 27.6213 178.281 12.0705 169.283C-3.48021 160.284 -3.56311 145.728 11.9047 136.73C27.3725 127.772 52.5439 127.772 68.0947 136.73ZM19.7422 164.845C31.0632 171.356 49.3923 171.356 60.5888 164.845C71.8268 158.335 71.7439 147.719 60.4644 141.167C49.1435 134.656 30.8144 134.656 19.6178 141.167C8.37985 147.719 8.42128 158.335 19.7422 164.845Z" fill="#F98973"/>
<path d="M55.4888 146.56L53.0836 147.969L56.0279 151.743L51.2175 154.563C49.8491 148.135 35.7083 145.523 44.9558 153.36C47.3195 155.6 47.4439 158.129 43.9605 160.12C40.3113 162.276 36.2059 161.571 32.0176 160.203L28.9904 161.944L24.6776 159.456L27.7048 157.715C25.6314 156.18 24.5532 154.646 24.5117 153.07L29.3221 150.25C32.1005 159.83 44.5411 159.415 37.989 153.858C29.1147 145.813 41.348 141.5 48.7709 145.44L51.1761 144.03L55.4888 146.56Z" fill="#F98973"/>
<path d="M60.4629 141.168C71.7838 147.679 71.8253 158.295 60.5873 164.847C49.3493 171.357 31.0201 171.357 19.7407 164.847C8.41972 158.336 8.37828 147.72 19.6163 141.168C30.8128 134.658 49.1419 134.658 60.4629 141.168ZM20.031 164.681C31.1446 171.108 49.2249 171.108 60.2555 164.681C71.3277 158.253 71.2447 147.803 60.1311 141.375C49.0175 134.948 30.9372 134.948 19.9065 141.375C8.83441 147.803 8.91737 158.253 20.031 164.681Z" fill="#C22000"/>
<path d="M63.2869 124.293C74.4005 130.721 74.4834 141.171 63.4113 147.599C52.3392 154.026 34.3003 154.026 23.1867 147.599C12.0731 141.171 11.9902 130.721 23.0623 124.293C34.1344 117.866 52.1733 117.866 63.2869 124.293ZM35.1712 143.162C39.3595 144.53 43.4649 145.235 47.1141 143.079C50.5975 141.088 50.4731 138.517 48.1094 136.319C38.8619 128.482 53.0027 131.094 54.3711 137.522L59.1815 134.702L56.2372 130.928L58.6424 129.518L54.3297 127.03L51.9245 128.44C44.5016 124.542 32.2684 128.813 41.1427 136.858C47.6947 142.415 35.2541 142.83 32.4757 133.251L27.6654 136.07C27.6654 137.605 28.785 139.181 30.8584 140.715L27.8312 142.457L32.1439 144.945L35.1712 143.162Z" fill="url(#paint2_radial_447_7821)"/>
<path d="M82.9829 136.44C79.2092 167.085 6.01709 166.131 3.52898 135.859C-0.908169 162.233 34.9207 169.117 55.1989 165.178C65.6904 163.146 77.6749 158.584 82.0706 148.176C83.4805 145.148 82.817 139.343 82.9829 136.108C82.9829 136.191 82.9829 136.316 82.9829 136.44Z" fill="url(#paint3_linear_447_7821)"/>
<mask id="mask1_447_7821" style="mask-type:luminance" maskUnits="userSpaceOnUse" x="3" y="135" width="80" height="32">
<path d="M82.9829 136.44C79.2092 167.085 6.01709 166.131 3.52898 135.859C-0.908169 162.233 34.9207 169.117 55.1989 165.178C65.6904 163.146 77.6749 158.584 82.0706 148.176C83.4805 145.148 82.817 139.343 82.9829 136.108C82.9829 136.191 82.9829 136.316 82.9829 136.44Z" fill="white"/>
</mask>
<g mask="url(#mask1_447_7821)">
<path d="M85.9701 172.685H1.45703V133.746H85.9701V172.685ZM1.7888 172.353H85.6798V134.036H1.7888V172.353Z" fill="#C22000"/>
<path d="M79.4997 133.871H79.168V172.478H79.4997V133.871Z" fill="#C22000"/>
<path d="M73.0309 133.871H72.6992V172.478H73.0309V133.871Z" fill="#C22000"/>
<path d="M66.5622 133.871H66.2305V172.478H66.5622V133.871Z" fill="#C22000"/>
<path d="M60.0935 133.871H59.7617V172.478H60.0935V133.871Z" fill="#C22000"/>
<path d="M53.5818 133.871H53.25V172.478H53.5818V133.871Z" fill="#C22000"/>
<path d="M47.113 133.871H46.7812V172.478H47.113V133.871Z" fill="#C22000"/>
<path d="M40.6442 133.871H40.3125V172.478H40.6442V133.871Z" fill="#C22000"/>
<path d="M34.1755 133.871H33.8438V172.478H34.1755V133.871Z" fill="#C22000"/>
<path d="M27.7068 133.871H27.375V172.478H27.7068V133.871Z" fill="#C22000"/>
<path d="M21.195 133.871H20.8633V172.478H21.195V133.871Z" fill="#C22000"/>
<path d="M14.7262 133.871H14.3945V172.478H14.7262V133.871Z" fill="#C22000"/>
<path d="M8.25755 133.871H7.92578V172.478H8.25755V133.871Z" fill="#C22000"/>
</g>
<path d="M71.247 119.69C86.7977 128.689 86.8807 143.245 71.4129 152.243C55.9451 161.242 30.7736 161.242 15.2229 152.243C-0.327844 143.245 -0.410791 128.689 15.057 119.69C30.5248 110.692 55.6963 110.692 71.247 119.69ZM22.8946 147.806C34.2155 154.317 52.5447 154.317 63.7412 147.806C74.9792 141.296 74.8962 130.68 63.6168 124.128C52.2958 117.617 33.9667 117.617 22.7702 124.128C11.5322 130.638 11.5737 141.254 22.8946 147.806Z" fill="#F98973"/>
<path d="M58.6411 129.517L56.2359 130.926L59.1802 134.7L54.3698 137.52C53.0014 131.092 38.8606 128.48 48.1081 136.317C50.4718 138.557 50.5962 141.086 47.1128 143.077C43.4636 145.233 39.3582 144.528 35.1699 143.16L32.1426 144.901L27.8299 142.413L30.8571 140.672C28.7837 139.137 27.7055 137.603 27.6641 136.027L32.4744 133.207C35.2528 142.787 47.6934 142.372 41.1414 136.815C32.2671 128.77 44.5003 124.457 51.9232 128.397L54.3284 126.987L58.6411 129.517Z" fill="#F98973"/>
<path d="M63.6152 124.125C74.9361 130.636 74.9776 141.252 63.7396 147.804C52.5016 154.314 34.1725 154.314 22.893 147.804C11.5721 141.293 11.5306 130.677 22.7686 124.125C33.9651 117.615 52.2943 117.615 63.6152 124.125ZM23.1833 147.596C34.2969 154.024 52.3772 154.024 63.4079 147.596C74.48 141.169 74.397 130.719 63.2834 124.291C52.1698 117.863 34.0895 117.863 23.0589 124.291C12.0282 130.719 12.0697 141.169 23.1833 147.596Z" fill="#C22000"/>
<path d="M67.7205 109.571C78.8341 115.998 78.917 126.448 67.8449 132.876C56.7727 139.304 38.7339 139.304 27.6203 132.876C16.5067 126.448 16.4238 115.998 27.4959 109.571C38.5266 103.143 56.5654 103.143 67.7205 109.571ZM39.5633 128.397C43.7516 129.766 47.857 130.471 51.5063 128.315C54.9896 126.324 54.8652 123.753 52.5015 121.555C43.254 113.718 57.3948 116.33 58.7633 122.758L63.5736 119.938L60.6294 116.164L63.0345 114.754L58.7218 112.266L56.3166 113.676C48.8937 109.778 36.6605 114.049 45.5348 122.094C52.0868 127.651 39.6462 128.066 36.8678 118.486L32.0575 121.306C32.0575 122.841 33.1771 124.416 35.2505 125.951L32.2234 127.693L36.5361 130.181L39.5633 128.397Z" fill="url(#paint4_radial_447_7821)"/>
<path d="M87.3774 121.678C83.6038 152.324 10.4116 151.37 7.92351 121.098C3.48636 147.472 39.3153 154.355 59.5935 150.416C70.085 148.384 82.0694 143.822 86.4651 133.414C87.875 130.387 87.2116 124.581 87.3774 121.346C87.3774 121.429 87.3774 121.554 87.3774 121.678Z" fill="url(#paint5_linear_447_7821)"/>
<mask id="mask2_447_7821" style="mask-type:luminance" maskUnits="userSpaceOnUse" x="7" y="121" width="81" height="31">
<path d="M87.3774 121.678C83.6038 152.324 10.4116 151.37 7.92351 121.098C3.48636 147.472 39.3153 154.355 59.5935 150.416C70.085 148.384 82.0694 143.822 86.4651 133.414C87.875 130.387 87.2116 124.581 87.3774 121.346C87.3774 121.429 87.3774 121.554 87.3774 121.678Z" fill="white"/>
</mask>
<g mask="url(#mask2_447_7821)">
<path d="M90.3647 157.92H5.85156V118.98H90.3647V157.92ZM6.18333 157.588H90.0744V119.271H6.18333V157.588Z" fill="#C22000"/>
<path d="M83.9372 119.148H83.6055V157.756H83.9372V119.148Z" fill="#C22000"/>
<path d="M77.4255 119.148H77.0938V157.756H77.4255V119.148Z" fill="#C22000"/>
<path d="M70.9567 119.148H70.625V157.756H70.9567V119.148Z" fill="#C22000"/>
<path d="M64.488 119.148H64.1562V157.756H64.488V119.148Z" fill="#C22000"/>
<path d="M58.0193 119.148H57.6875V157.756H58.0193V119.148Z" fill="#C22000"/>
<path d="M51.5505 119.148H51.2188V157.756H51.5505V119.148Z" fill="#C22000"/>
<path d="M45.0387 119.148H44.707V157.756H45.0387V119.148Z" fill="#C22000"/>
<path d="M38.57 119.148H38.2383V157.756H38.57V119.148Z" fill="#C22000"/>
<path d="M32.1013 119.148H31.7695V157.756H32.1013V119.148Z" fill="#C22000"/>
<path d="M25.6326 119.148H25.3008V157.756H25.6326V119.148Z" fill="#C22000"/>
<path d="M19.1638 119.148H18.832V157.756H19.1638V119.148Z" fill="#C22000"/>
<path d="M12.695 119.148H12.3633V157.756H12.695V119.148Z" fill="#C22000"/>
</g>
<path d="M75.6415 104.925C91.1923 113.924 91.2752 128.479 75.8074 137.478C60.3396 146.477 35.1682 146.477 19.6174 137.478C4.06669 128.479 3.98374 113.924 19.4515 104.925C34.9193 95.9677 60.0908 95.9677 75.6415 104.925ZM27.2891 133.041C38.6101 139.551 56.9392 139.551 68.1357 133.041C79.3737 126.53 79.2908 115.914 68.0113 109.362C56.6904 102.852 38.3612 102.852 27.1647 109.362C15.9267 115.914 16.0097 126.53 27.2891 133.041Z" fill="#F98973"/>
<path d="M63.0356 114.755L60.6305 116.165L63.5748 119.938L58.7644 122.758C57.3959 116.331 43.2551 113.718 52.5026 121.556C54.8663 123.795 54.9908 126.325 51.5074 128.315C47.8582 130.471 43.7527 129.766 39.5644 128.398L36.5372 130.14L32.2245 127.652L35.2517 125.91C33.1782 124.376 32.1001 122.841 32.0586 121.265L36.8689 118.446C39.6473 128.025 52.0879 127.61 45.5359 122.053C36.6616 114.008 48.8949 109.696 56.3177 113.635L58.7229 112.225L63.0356 114.755Z" fill="#F98973"/>
<path d="M68.0097 109.363C79.3307 115.874 79.3722 126.49 68.1342 133.042C56.8962 139.553 38.567 139.553 27.2876 133.042C15.9666 126.531 15.9251 115.915 27.1631 109.363C38.4011 102.853 56.7303 102.853 68.0097 109.363ZM27.6193 132.876C38.7329 139.304 56.8132 139.304 67.8438 132.876C78.8745 126.448 78.8331 115.998 67.7195 109.571C56.6059 103.143 38.5256 103.143 27.4949 109.571C16.4228 115.998 16.4642 126.448 27.6193 132.876Z" fill="#C22000"/>
<path d="M159.685 71.1801C170.799 77.6077 170.882 88.0579 159.81 94.4855C148.738 100.913 130.699 100.913 119.585 94.4855C108.472 88.0579 108.389 77.6077 119.461 71.1801C130.533 64.7525 148.572 64.7525 159.685 71.1801ZM131.57 90.0483C135.758 91.4168 139.863 92.1218 143.513 89.9654C146.996 87.9749 146.872 85.4038 144.508 83.206C135.26 75.3684 149.401 77.981 150.77 84.4086L155.58 81.5888L152.636 77.8151L155.041 76.4052L150.728 73.9171L148.323 75.327C140.9 71.4289 128.667 75.7002 137.541 83.7451C144.093 89.3019 131.653 89.7166 128.874 80.1374L124.064 82.9572C124.064 84.4915 125.183 86.0674 127.257 87.6017L124.23 89.3434L128.542 91.8315L131.57 90.0483Z" fill="url(#paint6_radial_447_7821)"/>
<path d="M179.381 83.3267C175.608 113.972 102.416 113.018 99.9274 82.7461C95.4903 109.12 131.319 116.004 151.597 112.064C162.089 110.032 174.073 105.471 178.469 95.0623C179.879 92.0351 179.215 86.2294 179.381 82.9949C179.381 83.0778 179.381 83.2023 179.381 83.3267Z" fill="url(#paint7_linear_447_7821)"/>
<mask id="mask3_447_7821" style="mask-type:luminance" maskUnits="userSpaceOnUse" x="99" y="82" width="81" height="32">
<path d="M179.381 83.3267C175.608 113.972 102.416 113.018 99.9274 82.7461C95.4903 109.12 131.319 116.004 151.597 112.064C162.089 110.032 174.073 105.471 178.469 95.0623C179.879 92.0351 179.215 86.2294 179.381 82.9949C179.381 83.0778 179.381 83.2023 179.381 83.3267Z" fill="white"/>
</mask>
<g mask="url(#mask3_447_7821)">
<path d="M182.369 119.572H97.8555V80.6328H182.369V119.572ZM98.1872 119.24H182.078V80.9231H98.1872V119.24Z" fill="#C22000"/>
<path d="M175.898 80.7578H175.566V119.365H175.898V80.7578Z" fill="#C22000"/>
<path d="M169.429 80.7578H169.098V119.365H169.429V80.7578Z" fill="#C22000"/>
<path d="M162.961 80.7578H162.629V119.365H162.961V80.7578Z" fill="#C22000"/>
<path d="M156.492 80.7578H156.16V119.365H156.492V80.7578Z" fill="#C22000"/>
<path d="M149.98 80.7578H149.648V119.365H149.98V80.7578Z" fill="#C22000"/>
<path d="M143.511 80.7578H143.18V119.365H143.511V80.7578Z" fill="#C22000"/>
<path d="M137.043 80.7578H136.711V119.365H137.043V80.7578Z" fill="#C22000"/>
<path d="M130.574 80.7578H130.242V119.365H130.574V80.7578Z" fill="#C22000"/>
<path d="M124.105 80.7578H123.773V119.365H124.105V80.7578Z" fill="#C22000"/>
<path d="M117.593 80.7578H117.262V119.365H117.593V80.7578Z" fill="#C22000"/>
<path d="M111.125 80.7578H110.793V119.365H111.125V80.7578Z" fill="#C22000"/>
<path d="M104.656 80.7578H104.324V119.365H104.656V80.7578Z" fill="#C22000"/>
</g>
<path d="M167.645 66.5771C183.196 75.5758 183.279 90.1313 167.811 99.13C152.344 108.129 127.172 108.129 111.621 99.13C96.0706 90.1313 95.9876 75.5758 111.455 66.5771C126.923 57.5785 152.095 57.5785 167.645 66.5771ZM119.293 94.6929C130.614 101.203 148.943 101.203 160.14 94.6929C171.378 88.1823 171.295 77.5664 160.015 71.0143C148.694 64.5037 130.365 64.5037 119.169 71.0143C107.931 77.5249 107.972 88.1409 119.293 94.6929Z" fill="#F98973"/>
<path d="M155.04 76.4033L152.634 77.8132L155.579 81.5869L150.768 84.4067C149.4 77.9791 135.259 75.3665 144.507 83.2041C146.87 85.4434 146.995 87.973 143.511 89.9635C139.862 92.1199 135.757 91.4149 131.568 90.0464L128.541 91.7882L124.228 89.3L127.256 87.5583C125.182 86.024 124.104 84.4897 124.062 82.9139L128.873 80.094C131.651 89.6732 144.092 89.2586 137.54 83.7018C128.666 75.6569 140.899 71.3441 148.322 75.2836L150.727 73.8737L155.04 76.4033Z" fill="#F98973"/>
<path d="M160.014 71.0118C171.335 77.5224 171.376 88.1384 160.138 94.6904C148.9 101.201 130.571 101.201 119.291 94.6904C107.971 88.1798 107.929 77.5639 119.167 71.0118C130.364 64.5013 148.693 64.5013 160.014 71.0118ZM119.582 94.4831C130.695 100.911 148.776 100.911 159.806 94.4831C170.878 88.0554 170.795 77.6053 159.682 71.1777C148.568 64.75 130.488 64.75 119.457 71.1777C108.427 77.6053 108.468 88.0554 119.582 94.4831Z" fill="#C22000"/>
<path d="M164.119 56.4574C175.233 62.8851 175.315 73.3352 164.243 79.7628C153.171 86.1905 135.132 86.1905 124.019 79.7628C112.905 73.3352 112.822 62.8851 123.894 56.4574C134.925 50.0298 152.964 50.0298 164.119 56.4574ZM135.962 75.2842C140.15 76.6527 144.255 77.3576 147.905 75.2013C151.388 73.2108 151.264 70.6397 148.9 68.4419C139.652 60.6043 153.793 63.2168 155.162 69.6445L159.972 66.8246L157.028 63.0509L159.433 61.641L155.12 59.1529L152.715 60.5628C145.292 56.6648 133.059 60.9361 141.933 68.981C148.485 74.5378 136.045 74.9524 133.266 65.3732L128.456 68.1931C128.456 69.7274 129.576 71.3032 131.649 72.8375L128.622 74.5792L132.934 77.0674L135.962 75.2842Z" fill="url(#paint8_radial_447_7821)"/>
<path d="M183.776 68.5649C180.002 99.2103 106.81 98.2565 104.322 67.9844C99.8848 94.3584 135.714 101.242 155.992 97.3027C166.483 95.2707 178.468 90.7092 182.864 80.3005C184.273 77.2733 183.61 71.4677 183.776 68.2332C183.776 68.3161 183.776 68.4405 183.776 68.5649Z" fill="url(#paint9_linear_447_7821)"/>
<mask id="mask4_447_7821" style="mask-type:luminance" maskUnits="userSpaceOnUse" x="103" y="67" width="81" height="32">
<path d="M183.776 68.5649C180.002 99.2103 106.81 98.2565 104.322 67.9844C99.8848 94.3584 135.714 101.242 155.992 97.3027C166.483 95.2707 178.468 90.7092 182.864 80.3005C184.273 77.2733 183.61 71.4677 183.776 68.2332C183.776 68.3161 183.776 68.4405 183.776 68.5649Z" fill="white"/>
</mask>
<g mask="url(#mask4_447_7821)">
<path d="M186.763 104.806H102.25V65.8672H186.763V104.806ZM102.582 104.474H186.473V66.1574H102.582V104.474Z" fill="#C22000"/>
<path d="M180.336 66.0352H180.004V104.642H180.336V66.0352Z" fill="#C22000"/>
<path d="M173.824 66.0352H173.492V104.642H173.824V66.0352Z" fill="#C22000"/>
<path d="M167.355 66.0352H167.023V104.642H167.355V66.0352Z" fill="#C22000"/>
<path d="M160.886 66.0352H160.555V104.642H160.886V66.0352Z" fill="#C22000"/>
<path d="M154.418 66.0352H154.086V104.642H154.418V66.0352Z" fill="#C22000"/>
<path d="M147.949 66.0352H147.617V104.642H147.949V66.0352Z" fill="#C22000"/>
<path d="M141.437 66.0352H141.105V104.642H141.437V66.0352Z" fill="#C22000"/>
<path d="M134.968 66.0352H134.637V104.642H134.968V66.0352Z" fill="#C22000"/>
<path d="M128.5 66.0352H128.168V104.642H128.5V66.0352Z" fill="#C22000"/>
<path d="M122.031 66.0352H121.699V104.642H122.031V66.0352Z" fill="#C22000"/>
<path d="M115.562 66.0352H115.23V104.642H115.562V66.0352Z" fill="#C22000"/>
<path d="M109.093 66.0352H108.762V104.642H109.093V66.0352Z" fill="#C22000"/>
</g>
<path d="M172.04 51.8117C187.591 60.8104 187.674 75.3659 172.206 84.3645C156.738 93.3632 131.567 93.3632 116.016 84.3645C100.465 75.3659 100.382 60.8104 115.85 51.8117C131.318 42.8544 156.489 42.8544 172.04 51.8117ZM123.688 79.9274C135.008 86.438 153.338 86.438 164.534 79.9274C175.772 73.4168 175.689 62.8009 164.41 56.2488C153.089 49.7382 134.76 49.7382 123.563 56.2488C112.325 62.8009 112.408 73.4168 123.688 79.9274Z" fill="#F98973"/>
<path d="M159.434 61.6415L157.029 63.0515L159.973 66.8251L155.163 69.645C153.794 63.2174 139.654 60.6048 148.901 68.4424C151.265 70.6817 151.389 73.2113 147.906 75.2018C144.257 77.3582 140.151 76.6532 135.963 75.2847L132.936 77.0264L128.623 74.5383L131.65 72.7966C129.577 71.2623 128.498 69.7279 128.457 68.1521L133.267 65.3323C136.046 74.9115 148.486 74.4969 141.934 68.9401C133.06 60.8951 145.293 56.5824 152.716 60.5219L155.121 59.112L159.434 61.6415Z" fill="#F98973"/>
<path d="M164.408 56.2501C175.729 62.7607 175.771 73.3767 164.533 79.9287C153.295 86.4393 134.965 86.4393 123.686 79.9287C112.365 73.4181 112.324 62.8022 123.562 56.2501C134.8 49.7395 153.129 49.7395 164.408 56.2501ZM124.018 79.7628C135.131 86.1905 153.212 86.1905 164.242 79.7628C175.273 73.3352 175.232 62.8851 164.118 56.4575C153.004 50.0298 134.924 50.0298 123.893 56.4575C112.821 62.8851 112.863 73.3352 124.018 79.7628Z" fill="#C22000"/>
<path d="M153.22 119.293C164.334 125.721 164.417 136.171 153.345 142.599C142.273 149.026 124.234 149.026 113.12 142.599C102.007 136.171 101.924 125.721 112.996 119.293C124.068 112.866 142.107 112.866 153.22 119.293ZM125.105 138.12C129.293 139.489 133.398 140.194 137.048 138.037C140.531 136.047 140.407 133.476 138.043 131.278C128.795 123.44 142.936 126.053 144.305 132.48L149.115 129.661L146.171 125.887L148.576 124.477L144.263 121.989L141.858 123.399C134.435 119.501 122.202 123.772 131.076 131.817C137.628 137.374 125.188 137.788 122.409 128.209L117.599 131.029C117.599 132.563 118.719 134.139 120.792 135.673L117.765 137.415L122.078 139.903L125.105 138.12Z" fill="url(#paint10_radial_447_7821)"/>
<path d="M172.916 131.405C169.143 162.05 95.9507 161.096 93.4626 130.824C89.0254 157.198 124.854 164.082 145.132 160.143C155.624 158.111 167.608 153.549 172.004 143.14C173.414 140.113 172.751 134.308 172.916 131.073C172.916 131.197 172.916 131.28 172.916 131.405Z" fill="url(#paint11_linear_447_7821)"/>
<mask id="mask5_447_7821" style="mask-type:luminance" maskUnits="userSpaceOnUse" x="93" y="130" width="80" height="32">
<path d="M172.916 131.405C169.143 162.05 95.9507 161.096 93.4626 130.824C89.0254 157.198 124.854 164.082 145.132 160.143C155.624 158.111 167.608 153.549 172.004 143.14C173.414 140.113 172.751 134.308 172.916 131.073C172.916 131.197 172.916 131.28 172.916 131.405Z" fill="white"/>
</mask>
<g mask="url(#mask5_447_7821)">
<path d="M175.904 167.689H91.3906V128.75H175.904V167.689ZM91.7224 167.357H175.613V129.04H91.7224V167.357Z" fill="#C22000"/>
<path d="M169.433 128.875H169.102V167.482H169.433V128.875Z" fill="#C22000"/>
<path d="M162.965 128.875H162.633V167.482H162.965V128.875Z" fill="#C22000"/>
<path d="M156.496 128.875H156.164V167.482H156.496V128.875Z" fill="#C22000"/>
<path d="M149.984 128.875H149.652V167.482H149.984V128.875Z" fill="#C22000"/>
<path d="M143.515 128.875H143.184V167.482H143.515V128.875Z" fill="#C22000"/>
<path d="M137.047 128.875H136.715V167.482H137.047V128.875Z" fill="#C22000"/>
<path d="M130.578 128.875H130.246V167.482H130.578V128.875Z" fill="#C22000"/>
<path d="M124.109 128.875H123.777V167.482H124.109V128.875Z" fill="#C22000"/>
<path d="M117.64 128.875H117.309V167.482H117.64V128.875Z" fill="#C22000"/>
<path d="M111.129 128.875H110.797V167.482H111.129V128.875Z" fill="#C22000"/>
<path d="M104.66 128.875H104.328V167.482H104.66V128.875Z" fill="#C22000"/>
<path d="M98.1911 128.875H97.8594V167.482H98.1911V128.875Z" fill="#C22000"/>
</g>
<path d="M161.181 114.69C176.731 123.689 176.814 138.245 161.346 147.243C145.879 156.242 120.707 156.242 105.156 147.243C89.6058 138.245 89.5228 123.689 104.991 114.69C120.458 105.692 145.63 105.692 161.181 114.69ZM112.828 142.765C124.149 149.275 142.478 149.275 153.675 142.765C164.913 136.254 164.83 125.638 153.55 119.086C142.229 112.576 123.9 112.576 112.704 119.086C101.466 125.638 101.507 136.254 112.828 142.765Z" fill="#F98973"/>
<path d="M148.575 124.477L146.17 125.887L149.114 129.661L144.303 132.481C142.935 126.053 128.794 123.441 138.042 131.278C140.405 133.518 140.53 136.047 137.046 138.038C133.397 140.194 129.292 139.489 125.103 138.121L122.076 139.862L117.763 137.374L120.791 135.633C118.717 134.098 117.639 132.564 117.598 130.988L122.408 128.168C125.186 137.747 137.627 137.333 131.075 131.776C122.201 123.731 134.434 119.418 141.857 123.358L144.262 121.948L148.575 124.477Z" fill="#F98973"/>
<path d="M153.549 119.129C164.87 125.639 164.911 136.255 153.673 142.807C142.435 149.318 124.106 149.318 112.827 142.807C101.506 136.297 101.464 125.681 112.702 119.129C123.899 112.577 142.228 112.577 153.549 119.129ZM113.117 142.6C124.23 149.028 142.311 149.028 153.341 142.6C164.372 136.172 164.331 125.722 153.217 119.295C142.103 112.867 124.023 112.867 112.992 119.295C101.92 125.722 102.003 136.172 113.117 142.6Z" fill="#C22000"/>
<defs>
<radialGradient id="paint0_radial_447_7821" cx="0" cy="0" r="1" gradientUnits="userSpaceOnUse" gradientTransform="translate(40.0845 153.028) rotate(90) scale(16.4734 28.4321)">
<stop offset="0.59375" stop-color="#FFF8AE"/>
<stop offset="1" stop-color="#F98973"/>
</radialGradient>
<linearGradient id="paint1_linear_447_7821" x1="-0.0135885" y1="168.07" x2="79.8387" y2="168.07" gradientUnits="userSpaceOnUse">
<stop stop-color="#F98973"/>
<stop offset="1" stop-color="#F55F41"/>
</linearGradient>
<radialGradient id="paint2_radial_447_7821" cx="0" cy="0" r="1" gradientUnits="userSpaceOnUse" gradientTransform="translate(43.2368 135.946) rotate(90) scale(16.4734 28.4321)">
<stop offset="0.59375" stop-color="#FFF8AE"/>
<stop offset="1" stop-color="#F98973"/>
</radialGradient>
<linearGradient id="paint3_linear_447_7821" x1="3.14041" y1="151.011" x2="82.9927" y2="151.011" gradientUnits="userSpaceOnUse">
<stop stop-color="#F98973"/>
<stop offset="1" stop-color="#F55F41"/>
</linearGradient>
<radialGradient id="paint4_radial_447_7821" cx="0" cy="0" r="1" gradientUnits="userSpaceOnUse" gradientTransform="translate(47.6704 121.223) rotate(90) scale(16.4734 28.4321)">
<stop offset="0.59375" stop-color="#FFF8AE"/>
<stop offset="1" stop-color="#F98973"/>
</radialGradient>
<linearGradient id="paint5_linear_447_7821" x1="7.55385" y1="136.261" x2="87.4062" y2="136.261" gradientUnits="userSpaceOnUse">
<stop stop-color="#F98973"/>
<stop offset="1" stop-color="#F55F41"/>
</linearGradient>
<radialGradient id="paint6_radial_447_7821" cx="0" cy="0" r="1" gradientUnits="userSpaceOnUse" gradientTransform="translate(139.635 82.8328) rotate(90) scale(16.4734 28.4321)">
<stop offset="0.59375" stop-color="#FFF8AE"/>
<stop offset="1" stop-color="#F98973"/>
</radialGradient>
<linearGradient id="paint7_linear_447_7821" x1="99.5389" y1="97.8978" x2="179.391" y2="97.8978" gradientUnits="userSpaceOnUse">
<stop stop-color="#F98973"/>
<stop offset="1" stop-color="#F55F41"/>
</linearGradient>
<radialGradient id="paint8_radial_447_7821" cx="0" cy="0" r="1" gradientUnits="userSpaceOnUse" gradientTransform="translate(144.069 68.1101) rotate(90) scale(16.4734 28.4321)">
<stop offset="0.59375" stop-color="#FFF8AE"/>
<stop offset="1" stop-color="#F98973"/>
</radialGradient>
<linearGradient id="paint9_linear_447_7821" x1="103.952" y1="83.1479" x2="183.805" y2="83.1479" gradientUnits="userSpaceOnUse">
<stop stop-color="#F98973"/>
<stop offset="1" stop-color="#F55F41"/>
</linearGradient>
<radialGradient id="paint10_radial_447_7821" cx="0" cy="0" r="1" gradientUnits="userSpaceOnUse" gradientTransform="translate(133.17 130.946) rotate(90) scale(16.4734 28.4321)">
<stop offset="0.59375" stop-color="#FFF8AE"/>
<stop offset="1" stop-color="#F98973"/>
</radialGradient>
<linearGradient id="paint11_linear_447_7821" x1="93.0709" y1="146.006" x2="172.923" y2="146.006" gradientUnits="userSpaceOnUse">
<stop stop-color="#F98973"/>
<stop offset="1" stop-color="#F55F41"/>
</linearGradient>
</defs>
</svg>
