<svg width="291" height="370" viewBox="0 0 291 370" fill="none" xmlns="http://www.w3.org/2000/svg">
<mask id="path-1-inside-1_32_9" fill="white">
<path d="M0 31C0 13.8792 13.8792 0 31 0H260C277.121 0 291 13.8792 291 31V339C291 356.121 277.121 370 260 370H31C13.8792 370 0 356.121 0 339V31Z"/>
</mask>
<path d="M31 2H260V-2H31V2ZM289 31V339H293V31H289ZM260 368H31V372H260V368ZM2 339V31H-2V339H2ZM31 368C14.9837 368 2 355.016 2 339H-2C-2 357.225 12.7746 372 31 372V368ZM289 339C289 355.016 276.016 368 260 368V372C278.225 372 293 357.225 293 339H289ZM260 2C276.016 2 289 14.9837 289 31H293C293 12.7746 278.225 -2 260 -2V2ZM31 -2C12.7746 -2 -2 12.7746 -2 31H2C2 14.9838 14.9837 2 31 2V-2Z" fill="#6D6BCE" fill-opacity="0.26" mask="url(#path-1-inside-1_32_9)"/>
</svg>
